<mxfile host="app.diagrams.net" agent="Mozilla/5.0 (Windows NT 10.0; Win64; x64) AppleWebKit/537.36 (KHTML, like Gecko) Chrome/134.0.0.0 Safari/537.36" version="26.1.3">
  <diagram name="第 1 页" id="wWlySoZhMCg7z9zLY-jH">
    <mxGraphModel dx="1050" dy="522" grid="1" gridSize="10" guides="1" tooltips="1" connect="1" arrows="1" fold="1" page="1" pageScale="1" pageWidth="827" pageHeight="1169" math="0" shadow="0">
      <root>
        <mxCell id="0" />
        <mxCell id="1" parent="0" />
        <mxCell id="cWcfSYOSI2J4r_bsHk8Z-5" value="RDB 快照就是记录某一个瞬间的内存数据，记录的是实际数据" style="text;whiteSpace=wrap;fontSize=18;fillColor=#e1d5e7;strokeColor=#9673a6;" vertex="1" parent="1">
          <mxGeometry y="20" width="540" height="50" as="geometry" />
        </mxCell>
        <mxCell id="cWcfSYOSI2J4r_bsHk8Z-7" value="因此在Redis 恢复数据时，RDB 恢复数据的效率会比AOF 高些，因为直接将RDB文件读入内存就可以，&#xa;不需要像AOF那样还需要额外执行操作命令的步骤才能恢复数据。" style="text;whiteSpace=wrap;fontFamily=Helvetica;fontSize=18;fontColor=default;" vertex="1" parent="1">
          <mxGeometry x="580" y="120" width="310" height="120" as="geometry" />
        </mxCell>
        <mxCell id="cWcfSYOSI2J4r_bsHk8Z-9" style="edgeStyle=orthogonalEdgeStyle;rounded=0;orthogonalLoop=1;jettySize=auto;html=1;fontFamily=Helvetica;fontSize=18;fontColor=default;" edge="1" parent="1" source="cWcfSYOSI2J4r_bsHk8Z-8" target="cWcfSYOSI2J4r_bsHk8Z-7">
          <mxGeometry relative="1" as="geometry" />
        </mxCell>
        <mxCell id="cWcfSYOSI2J4r_bsHk8Z-8" value="AOF 文件记录的是命令操作的日志" style="text;whiteSpace=wrap;fontFamily=Helvetica;fontSize=18;fontColor=default;" vertex="1" parent="1">
          <mxGeometry x="580" y="20" width="310" height="50" as="geometry" />
        </mxCell>
        <mxCell id="cWcfSYOSI2J4r_bsHk8Z-10" value="" style="shape=image;verticalLabelPosition=bottom;labelBackgroundColor=default;verticalAlign=top;aspect=fixed;imageAspect=0;image=data:image/png,iVBORw0KGgoAAAANSUhEUgAAAj0AAAMXCAYAAADR0eTlAAAABWZkRUNSJJPjAOWrYpkAAOPLSURBVHgB5cRjtCVn2oDh+3mravPY57RtxLYzM0kGydi2bdu2EYxi22bbPH2szap6n2/Vj7PWXr06mWimZ773x3WxcOnB6jKXucxlLnOZy1zmsn0xAC5zmctc5jKXucxlLtsXA+Ayl7lsUmNzG//tAFzmMpe5zGX/bgbAZS5z2aRcrp5p0+fz3yqTzQPgMpe5zGUu+3czAC5zmctqlctFNm98lP82lWoJAJe5zGUuc9l/ggFwmctc5jKXucxlLnPZvhgAl7nMZS5zmctc5jKX7YsBcJnLXOYyl7nMZS5z2b4YAJe5zGUuc5nLXOYyl+2LAXCZy1zmMpe5zGUuc9m+GACXucxlLnOZy1zmMpftiwFwmctc5jKXucxlLnPZvhgAl7nMZS5zmctc5jKX7YsBcJnLXPaf8pGPfRKAWh/52CcBcJnLXOYyl/03MQAuc5nLnqqPfOyT/CsALnOZy1zmsv9VBsBlLnPZU/WVL32eBMBXvvR5JgF85UufJwHwr3zkY5/kK1/6PAAuc5nLXOay/yYGwGUuc9m/20c+9kkSAB/52CcB+MjHPslXvvR5ABIf+dgnAXCZy1zmMpf9NzAALnOZy/7dvvKlzwPwlS99HoBJH/nYJ5kE8JGPfRIAl7nMZS5z2f5mAFzmMpftD1/50ufZG4DLXOYyl7nsv4EBcJnLXPZUfORjn2QSwEc+9kkmAXzkY59kEsDj+cjHPsnevvKlzwPgMpe5zGUu298MgMtc5rKn4itf+jyTAL7ypc8zCeArX/o8kwASH/nYJ/nKlz4PQK2vfOnzTAJwmctc5jKX/bcwAC5zmcv+3b7ypc/zkY99EgCXucxlLnPZ/wID4DKXuezp+MjHPslXvvR5AJ6Mr3zp83zkY5/kK1/6PAAuc5nLXOay/2YGwGUuc9l/wkc+9km+8qXP85GPfRKAxEc+9kkmAbjMZS5zmcv+WxgAl7nMZU/VRz72Sb7ypc8D8GR85GOf5Ctf+jwAtb7ypc8zCcBlLnOZy1z238IAuMxlLnuqvvKlzwOwt6986fMA7O0rX/o8AImvfOnzAHzlS58HYNJXvvR5AFzmMpe5zGX/DQyAy1zmMpe5zGUuc5nL9sUAuMxlLnOZy1zmMpe5bF8MgMtc5jKXucxlLnOZy/bFALjMZS5zmctc5jKXuWxfDIDLXOYyl7nMZS5zmcv2xQC4zGUuc5nLXOYyl7lsXwyAy1zmMpe5zGUuc5nL9sUAuMxlLnOZy1zmMpe5bF8MgMtc5jKXucxlLnOZy/bFALjMZS6rlcnkmDVnKc/UrLnLmD13ObPmLmPWnKU8U+lUFgCXucxlLnPZf4IBcJnLXDapWBxn+7Z1PBsKhVEamlsZHx9h+7Z1PBvKpQIALnOZy1zmsn83A+Ayl7ls0ujwAM+WcrEAQKk4wejwAM8WAJe5zGUuc9m/mwFwmctc5jKXucxlLnPZvhgAl7nMZf8OCAAICoDLXOYyl7nsf4kBcJnLXPbvpAgALnOZy1zmsv8lBsBlLnPZv4OqAiACAC5zmctc5rL/JQbAZS5zmctc5jKXucxl+2IAXOYyl/07CAKAy1zmMpe57H+RAXCZy1zmMpe5zGUuc9m+GACXucxl/w6qCoAAAC5zmctc5rL/JQbAZS5zmctc5jKXucxl+2IAXOYyl/07gQDgMpe5zGUu+19iAFzmMpe5zGUuc5nLXLYvBsBlLnPZvwMoAC5zmctc5rL/RQbAZS5zmctc5jKXucxl+2IAXOYyl/07KAAgIgC4zGUuc5nL/pcYAJe5zGX/TooC4DKXucxlLvtfYgBc5jKXucxlLnOZy1y2LwbAZS5z2b8DVgEQEQBc5jKXucxl/0sMgMtc5rJ/B0UBAAHAZS5zmctc9r/EALjMZS77d0AEAEEAcJnLXOYyl/0vMQAuc5nL/h2wFgCXucxlLnPZ/yID4DKXuezfQQEAMQKAy1zmMpe57H+JAXCZy1z276BWARARAFzmMpe5zGX/SwyAy1zmsn8HiwVAMAC4zGUuc5nL/pcYAJe5zGX/DqgCIEYAcJnLXOYyl/0vMQAuc5nL/h3UKgAiAoDLXOYyl7nsf4kBcJnLXPbvoCgAIgKAy1zmMpe57H+JAXCZy1z274AqAIgA4DKXucxlLvtfYgBc5jKX/TtYtQCIGABc5jKXucxl/0sMgMtc5rJ/B1QBEAQAl7nMZS5z2f8SA+Ayl7ns30FVARAjALjMZS5zmcv+lxgAl7nMZf8OqgqAIAC4zGUuc5nL/pcYAJe5zGX/DqoWADEGAJe5zGUuc9n/EgPgMpe57Nlw1AlnccSxz+XwY5/D4cc+l+UHHQtAe9dUjjzueSSOPP55HHn8WQC4zGUuc5nL/psZAJe5zGXPhoG+XYgxeJ6P53kY4wEgCGIMCREDKAAuc5nLXOay/2YGwGUuc9mzYevm1aAKwOOxNqZ35xYAXOYyl7nMZf/NDIDLXOayZ0O5WGCgbxdWLQD7ImLYuX0jAC5zmctc5rL/ZgbAZS5z2bNl6+ZViALA3lQtg/27qJSLALjMZS5zmcv+mxkAl7nMZc+WSrlE357tqI0BqKXAtk1rAHCZy1zmMpf9tzMALnOZy55NWzY+hqoCUGtwz05KpQkAXOYyl7nMZf/tDIDLXOayZ1MUhmzfsh4bRwAk1Fq2b1kLgMtc5jKXuex/gQFwmctc9mzbvXMTAJOGh/solQoAuMxlLnOZy/4XGACXucxlz7Y4jti+ZT1xHKOqbNu0FgCXucxlLnPZ/woD4DKXuezfYffOTai1TIyPUJgYAcBlLnOZy1z2v8IAuMxlLvt3mD1/OWFYplgYA8BlLnOZy1z2v8QAuMxlLnu2zVt0IKCsfexexBjmLlwJgMtc5jKXuex/hQFwmctc9myat+hAQNm1fSMAu7ZtQIxh7sKVALjMZS5zmcv+FxgAl7nMZc+WeYsORFF2bd8IwKRd2zYgxjB34UoAXOYyl7nMZf/tDIDLXOayZ8O8RQeiKLu3bwRgb7u2bUCMYe7ClQC4zGUuc5nL/psZAJe5zGXP1LxFB6Iou7dvBODx7Nq2ATGGuQtXAuAyl7nMZS77b2UAXOYylz0T8xYdiKLs3r4RgH9l17YNiDHMXbgSAJe5zGUuc9l/IwPgMpe57Omat+hAFGX39o0APFm7tm1AjGHuwpUAuMxlLnOZy/7bGACXucxlT8e8RQeiKLu3bwTgqdq1bQNiDHMXrgTAZS5zmctc9t/EALjMZS57quYtOhBF2b19IwBP165tGxBjmLtwJQAuc5nLXOay/xYGwGUuc9lTMW/RgSjK7u0bAXimdm3bgBjD3IUrAXCZy1zmMpf9NzAALnOZy56seYsORFF2b98IwLNl17YNiDHMXbgSAJe5zGUuc9n+ZgBc5jKXPRnzFh2IouzevhGAZ9uubRsQY5i7cCUALnOZy1zmsv3JALjMZS77V+YtOhBF2b19IwD/Lru2bUCMYe7ClQC4zGUuc5nL9hcD4DKXueyJzFt0IIqye/tGAP7ddm3bgBjD3IUrAXCZy1zmMpftDwbAZS5z2eOZt+hAFGX39o0A/Kfs2rYBMYa5C1cC4DKXucxlLvtPMwAuc5nL9mXeogNRlN3bNwLwn7Zr2wbEGOYuXAmAy1zmMpe57D/JALjMZS7b27xFB6Iou7dvBGB/2bVtA2IMcxeuBMBlLnOZy1z2n2IAXOYyl9Wat+hAFGX39o0A7G+7tm1AjGHuwpUAuMxlLnOZy/4TDIDLXOaySfMWHYii7N6+EYD/Fru2bUCMYe7ClQC4zGUuc5nL/t0MgMtc5rLEvEUHoii7t28E4L/Nrm0bEGOYu3AlAC5zmctc5rJ/JwPgMpe5bN6iA1GU3ds3AvDfate2DYgxzF24EgCXucxlLnPZv4sBcJnLXDVv0YEoyu7tGwH4b7dr2wbEGOYuXAmAy1zmMpe57N/BALjMZS6at+hAFGX39o0A/K/YtW0DYgxzF64EwGUuc5nLXPZsMwAuc5lr5i06EEXZvX0jAP9rdm3bgBjD3IUrAXCZy1zmMpc9mwyAy1zmknmLDkRRdm/fCMD/ql3bNiDGMHfhSgBc5jKXucxlzxYD4DKXuWLeogNRlN3bNwLwv27Xtg2IMcxduBIAl7nMZS5z2bPBALjMZS6Yt+hAFGX39o0A/H+xa9sGxBjmLlwJgMtc5jKXueyZMgAuc9n/d/MWHYii7N6+EYD/b3Zt24AYw9yFKwFwmctc5jKXPRMGwGUu+/9s3qIDUZTd2zcC8P/Vrm0bEGOYu3AlAC5zmctc5rKnywC4zGX/X81bdCCKsnv7RgD+v9u1bQNiDHMXrgTAZS5zmctc9nQYAJe57P+jeYsORFF2b98IgCt2bduAGMPchSsBcJnLXOYylz1VBsBlLvv/Zt6iA1GU3ds3AuCaXds2IMYwd+FKAFzmMpe5zGVPhQFwmcv+P5m36EAUZff2jQC4ate2DYgxzF24EgCXucxlLnPZk2UAXOay/y/mLToQRdm9fSMALkvs2rYBMYa5C1cC4DKXucxlLnsyDIDLXPb/wbxFB6Iou7dvBMBltXZt24AYw9yFKwFwmctc5jKX/SsGwGUu+183b9GBKMru7RsBcNm+7Nq2ATGGuQtXAuAyl7nMZS57IgbAZS77XzZv0YEoyu7tGwFw2RPZtW0DYgxzF64EwGUuc5nLXPZ4DIDLXPa/at6iA1GU3ds3AuCyJ2PXtg2IMcxduBIAl7nMZS5z2b4YAJe57H/RvEUHoii7t28EwGVPxa5tGxBjmLtwJQAuc5nLXOayvRkAl7nsf828RQeiKLu3bwTAZU/Hrm0bEGOYu3AlAC5zmctc5rJaBsBlLvtfMm/RgSjK7u0bAXDZM7Fr2wbEGOYuXAmAy1zmMpe5bJIBcJnL/lfMW3QgirJ7+0YAXPZs2LVtA2IMcxeuBMBlLnOZy1yWMAAuc9n/gnmLDkRRdm/fCIDLnk27tm1AjGHuwpUAuMxlLnOZywyAy1z2327eogNRlN3bNwLgsn+HXds2IMYwd+FKAFzmMpe5zFUGwGUu+282b9GBKMru7RsBcNm/065tGxBjmLtwJQAuc5nLXOYiA+Ayl/23mrfoQBRl9/aNALjsP2HXtg2IMcxduBIAl7nMZS5zjQFwmcv+G81bdCCKsnv7RgBc9p+0a9sGxBjmLlwJgMtc5jKXucQAuMxl/23mLToQRdm9fSMALtsfdm3bgBjD3IUrAXCZy1zmMlcYAJe57L/JvEUHoii7t28EwGX7065tGxBjmLtwJQAuc5nLXOYCA+Ayl/23mLfoQBRl9/aNALjsv8GubRsQY5i7cCUALnOZy1z2/50BcJnL/hvMW3QgirJ7+0YAXPbfZNe2DYgxzF24EgCXucxlLvv/zAC4zGX727xFB6Iou7dvBMBl/412bduAGMPchSsBcJnLXOay/68MgMtctj/NW3QgirJ7+0YAXPbfbNe2DYgxzF24EgCXucxlLvv/yAC4zGX7y7xFB6Iou7dvBOCZ+sjHPgnA3j7ysU8CsC8f+dgnAfjIxz7JvgA8kY987JMAPBUf+dgnAXiyPvKxTwLwTH3kY58E4OnatW0DYgxzF64EwGUuc5nL/r8xAC5z2f4wb+GBKMru7RsBeDZ85Uuf5yMf+yQAiY987JMAPBlf+dLnAfjKlz7PJIAn8pGPfZKvfOnzfORjnwTgyfjIxz7JV770eT7ysU8C8Hg+8rFPArC3j3zskwDs7SMf+yT7AvCRj30SgGfDrm0bEGOYu3AlAC5zmctc9v+JAXCZy/7T5i08EBVl9/aNADybvvKlzwMw6SMf+yQAH/nYJ0kAPJ6vfOnzfORjnwTgIx/7JF/50ucB2JePfOyTfOVLnwfgK1/6PB/52CcBeCIf+dgn+cqXPg/AV770eT7ysU8CsC9f+dLn+cjHPgnApI987JN85UufB2BvX/nS5wH4ypc+TwLgK1/6PADPtl3bNiDGMHfhSgBc5jKXuez/CwPgMpf9J81beCAqyu7tGwH4d/nIxz7JV770eRIAX/nS50kAJD7ysU+SAPjIxz4JQOIrX/o8H/nYJ/nKlz4PwL585GOf5Ctf+jwAk77ypc/zkY99EoB9+cjHPslXvvR5ACZ95Uuf5yMf+yQAkz7ysU8yCeAjH/skAB/52CcB+MjHPskkgP1l17YNiDHMXbgSAJe5zGUu+//AALjMZf8p8xYeiIqye/tGAJ5NH/nYJ5kE8JUvfR6Ax/OVL32eBMBXvvR5ABIf+dgn+cqXPs9HPvZJAGp95GOfJPGVL32ej3zsk+ztK1/6PB/52CdJACQ+8rFPkvjKlz4PwEc+9kkAJn3lS5/nIx/7JAmAr3zp80wC+MqXPg/AV770eQC+8qXPMwkg8ZGPfZIEwEc+9kkSAB/52CcB+HfZtW0DYgxzF64EwGUuc5nL/tcZAJe57D9h3sIDUVF2b98IwLPtK1/6PAmAxEc+9kkmAXzkY59kEsDePvKxT5L4ypc+z0c+9km+8qXP85GPfZIEQOIrX/o8CYCvfOnz7A3gK1/6PAmAxFe+9HkSAImvfOnzfORjnwRg0le+9HkSAJM+8rFP8pUvfR6ASV/50uf5yMc+CUCtr3zp8yQAvvKlz5MA+MqXPg/Av9OubRsQY5i7cCUALnOZy1z2v8wAuMxl/26Llh6GirJ7+0YA/hO+8qXPkwD4ypc+D8BXvvR5EgC1PvKxT/KVL32eBMCkr3zp8yQAJn3kY5+kFsBHPvZJagHU+sjHPkktgI987JNMAqj1kY99kq986fMAJL7ypc8DkPjKlz7PRz72SQBqfeRjn+QrX/o8AHv7ypc+D8C/y65tGxBjWLDkYABc5jKXuex/lQFwmcv+3WIbYsQA8N/iIx/7JAmAr3zp8wB85GOfJAHwkY99kgTA3r7ypc+TAJj0lS99ngTA3r7ypc/zeAD29pUvfR6ASR/52CcBmPSVL30egEkf+dgn+cqXPg/ApK986fMATPrIxz4JwL+LMR5RFAPgMpe5zGX/qwyAy1z277Zu1f3EUciU6fMA+E/5yMc+yVe+9HkAJn3kY58E4Ctf+jwJgElf+dLnSQB85UufJwHw7/KRj32Sr3zp8wBM+sjHPsneAD7ysU+yN4DEV770eQBqfeRjnwRg0le+9HkSAM+2qTMXUK2U2bj2AQBc5jKXuex/lQFwmcv+Ezaue5g4CpkyfR4A/24f+dgn+cqXPg9A4itf+jwf+dgnAdiXj3zsk0wC+MjHPskkgFof+dgnSQA8WR/52CdJACQ+8rFP8pUvfR6AWl/50uepBfCVL30egK986fPUApj0kY99kloAH/nYJ6kF8GybOnMB1UqZzesfAcBlLnOZy/6XGQCXuew/ZeO6h4mjkCnT5wHwbPvIxz7JV770eT7ysU/ylS99HoBaX/nS50kA7O0rX/o8kwC+8qXPMwmg1le+9HkSALU+8rFPArAvX/nS50l85GOfJPGVL30egMfzkY99ksRXvvR5AL7ypc/zkY99kgTA3r7ypc9TC+ArX/o8tQCeTVNnzqdaKbN5/SMAuMxlLnPZ/zoD4DKX/SdtXPcwcRQyZfo8AJ4tH/nYJ/nKlz4PwFe+9Hk+8rFP8ngAEh/52CcBeCq+8qXPA5D4ypc+D8Ckr3zp8yQAHs9XvvR5Eh/52CdJANT6yMc+SeIrX/o8CYBJX/nS50l85GOfJAGQ+MjHPsneAD7ysU+yN4Bnw9SZ86lWKmxe/wgALnOZy1z2/4EBcJnL/tM2rnuYOAqZMn0eAM+Gr3zp8wBM+sqXPs/jAUh85UufJwFQ6ytf+jwAT9ZXvvR5AJ6Kr3zp8yQAan3lS58nAfB4vvKlz5MASHzlS5/nyQJ4pqbOnE+1UmHz+kcAcJnLXOay/y8MgMtctj9sXPcwcRQyZfo8AFz2v2TqzPlUKxU2r38EAJe5zGUu+//EALjMZfvLxnUPE0chU6bPA8Bl/wumzpxPtVJh8/pHAHCZy1zmsv9vDIDLXLY/bVz3MHEUMmX6PABc9t9s6oz5VCsVNq9/BACXucxlLvv/yAC4zGX728Z1DxNHIVOmzwPAZf+Nps6YT7VaYfP6RwBwmctc5rL/rwyAy1z232DjuoeJo5Ap0+cB4LL/JlNnzKdarbB5/SMAuMxlLnPZ/2cGwGUu+2+xcd3DxFHIlOnzAHDZf4OpM+ZTrVbYvP4RAFzmMpe57P87A+Ayl/032bjuYeIoZMr0eQC4bH+aOmM+1WqFzesfAcBlLnOZy1xgAFzmsv82G9c9TByFTJk+DwCX7Q9TZ8ynWq2wef0jALjMZS5zmSsMgMtc9t9o47qHiaOQKdPnAeCy/6SpM+ZTrVbYvP4RAFzmMpe5zCUGwGUu+2+1cd3DxFHIlOnzAHDZf8LUGQuoVitsXv8IAC5zmctc5hoD4DKX/TfbuO5h4ihkyvR5ALjs32nqjAVUq2U2r38EAJe5zGUuc5EBcJnL/tttXPcwcRQyZfo8AFz27zB1xgKq1TKb1z8CgMtc5jKXucoAuMxl/ws2rnuYOAqZMn0eAC57Nk2dsYBqtczm9Y8A4DKXucxlLjMALnPZ/4qN6x4mjkKmTJ8HgMueDVNnLMALfLasfxQAl7nMZS5zWcIAuMxl/0s2rnuYOAqZMn0eAC57JqbOWAACzc0drDj4OLqmzsIYDwCXucxlLnOVAXCZy/7XbFz3MHEUMmX6PABc9nRMnbGAarVM3+7tDA7sJl/fyJx5y1lx8LH0TJ2N8XwAXOYyl7nMNQbAZS77X7Rx3cPEUciU6fMAcNlTMXXGAqrVMpvXP8LwYC9rHrmbRx+8jYE9O8nlG5g1bxkrDj6WKdPm4nsBAC5zmctc5goD4DKX/a/auO5h4ihkyvR5ALjsyZg6YwHVapnN6x8BYNLo8ABrV93LI/ffQl/vNnK5embOXcKKg49lyvR5+EEKAJe5zGUu+//OALjMZf/LNq57mDgKmTpjPgAueyJTZyygWi2zef0jAOzL2OgQ61c/wIP33MTunZtJZ/PMnLOYlQcfx7SZ8wlSaQBc5jKXuez/KwPgMpf9r4vjmIamVqZMnw+Ay/Zl6owFVKtlNq9/BIB/pTAxwqZ1D/PAPdeza/tGfD/F9FmLWHHw8UybuYB0OgOAy1zmMpf9f2MAXOay/1V19U2sPPh4pkyfS6Vcwg88pkyfB4DLak2dsYBqtczm9Y8A8FSUChNs3vAoD95zAzu2rsMYYfqshaw4+Himz1pEOpMDwGUuc5nL/r8wAC5z2f+iKdPnseLg48jXN9K7awvrVt/HqofuIo5CpkyfB4DLElNnLKBaLbN5/SMAPF3lcpGtm1bz4D03sm3zGqyNmTZzPisOPo6ZcxaTzeYBcJnLXOay/3UGwGUu+1+SzdWxZMURzJyzmFKpwMa1D7Jx7UOUiwUANq57mDgKmTJ9HgCumjpjAdVqmc3rHwHg2VCtlNm+ZS0P3nsjWzY+RhRWmTJ9HisOPo6Zc5eQzdUB4DKXucxl/6sMgMtc9r+io3sGBx56Ik0tHQz07WTto/fQu2srALU2rnuYOAqZMn0eAK6ZOmMB1WqZzesfAeDZFoUhO7dt4MF7bmTTukcol0tMmTaXlQcfx6y5y8jl6wFwmctc5rL/NQbAZS77b5dOZ5m3+CDmLVxJNayyZeNjrH3sXgoTowDsy8Z1DxNHIVOmzwPAFVNnLKBaLbN5/SMA/DtZG7N75yYeuvdGNqx9iEJhjJ5ps1lx8HHMnrecfF0DAC5zmctc9r/CALjMZf/N2jqnsPygY+nonMrwYB9rH72Hnds2APCvbFz3MHEUMmX6PAD+v5s6YwHVapnN6x8B4D9FVdmzawsP33cL61fdx/jYMN1TZ7HikOOZs2AFdfVNALjMZS5z2X87A+Ayl/038v0Us+cvZ8Hig/GDFNu3rGP1I3cyNjoIwJO1cd3DxFHIlOnzAPj/auqMBVSrZTavfwSA/aVvzw4efeA21j52DyOD/XT1zGTFwccxd8FK6huaAXCZy1zmsv9WBsBlLvtv09LWxdIDjqJ7yizGx4ZY8+hdbNu8GlUF4KnauO5h4ihkyvR5APx/M3XGAqrVMpvXPwLAf4OBvl2sevgOVj9yF0MDvXT2zGD5Qccyd+EB1Dc0A+Ayl7nMZf9tDIDLXPbfQsQwc85iFi07jHxdA7u3b+KxB+9geLAPgGdi47qHiaOQKdPnAfD/xdQZC6hWy2xe/wgA/22GBnpZ/chdrH7oToYGeunsns7yg45l3qIDaWhqBcBlLnOZy/5bGACXuey/QWNzG0sPOJIp0+dRLIyz5rF72LThEeI4AuDZsHHdw8RRyJTp8wD4Xzd1xgKq1TKb1z8CwH+zoaE9rH7kLh576A4G+3bR0TWNZQcczbzFB9HQ1AqAy1zmMpftbwbAZS7b36bOmMfSlUfR0NjKnl1befTB2xjs2wXAs23juoeJo5Ap0+cB8L9q6owFVKtlNq9/BID/FSNDfax57B4effB2+vt20dE5lWUHHM2CxQfR2NwOgMtc5jKX7S8GwGUu21+y+XoWLjuUGbMXU62UWL/mATasfZCwWgHg32XjuoeJo5Ap0+cB8L9m6owFVKtlNq9/BID/RaPD/ax77B4effA2+vfsoK1zKktXHsmCJYfQ1NwOgMtc5jKX/acZAJe5bH/o7J7OspVH0drWzUDfTh558Db6dm8D4D9h47qHiaOQKdPnAfC/YuqMBVSrZTavfwSA/3WjwwOsW3Ufj9x/K317dtDW0cOSlUeycOkhNLd0AuAyl7nMZf8pBsBlLvtP8oOAOQtWMHfhARjjsXn9I6x97F7KxQIA/0kb1z1MHIVMmT4PgP92U2csoFots3n9IwD8fzI2Osj6VffxyP230Ld7G63tPSxecTiLlh1Kc2snAC5zmctc9u9mAFzmsv+U5pYOlq44iq6emQwP9vHog7exa8cmAPaXjeseJo5CpkyfB8B/q6kzFlCtltm8/hEA/r8aGx1i/ZoHePi+W9izexstbd0sXn44i5YdRktbFwAuc5nLXPbvYgBc5rL/hGkzF7B4xRHk6xvZtnkNqx6+g4nxEQD2t43rHiaOQqZMnwfAf5upMxZQrZbZvP4RAFwwPjbEhjUP8PB9N7Fn11Za2rpYtOwwFi07nJa2LgBc5jKXuezZZgBc5rJ/p3x9I4tXHMH0WQsZHxvi0QdvZ/uWtQD8N9m47mHiKGTK9HkA/LeYOmMB1WqZzesfAcA142MjbFj7IA/dexN7dm2lpa2TRcsOY9Gyw2lp6wLAZS5zmcueLQbAZS77d+nqmcnSFUfR3NLBru0beOyB2xkd7gfgv9HGdQ8TRyFTps8DYH+bOmMB1WqZzesfAcBlE+MjbFj7IA/ddzN7erfR0tbJomWHsWjZ4bS0dQHgMpe5zGXPlAFwmcuebUEqzdyFBzBnwQqq1TJrHr2bzRseI7YxAP/NNq57mDgKmTJ9HgD7y9QZC6hWy2xe/wgALqs1MTbMhtUP8PD9t9Dfu52Wtk4WLTuMRcsOp6WtCwCXucxlLnu6DIDLXPZsam3rZunKo+jsns6e3Vt59MHbGezfDcD/io3rHiaOQqZMnwfAf9rUGQuoVstsXv8IAC57POOjQ6xbfT+P3H8r/Xt20NLWyaJlh7Fo2eG0tHUB4DKXucxlT5UBcJnLni0zZi9m4bJD8f2ADWseYMOaBwmrZQD+12xc9zBxFDJl+jwA/lOmzlhAtVpm8/pHAHDZkzE2Osi6Vffx6AO3MdC3k5a2ThYtO4xFyw6npa0LAJe5zGUue7IMgMtc9kzl6xtZsvJIps6Yx0DfLh598Db27N4GwP+yjeseJo5CpkyfB8C/29QZC6hWy2xe/wgALnuqRkcGWPvYvTz64O0M9O2ipa2TRcsOY9Gyw2lp6wLAZS5zmcv+FQPgMpc9Ex1d01my4ggam9rYsuEx1j52D6XiBAD/H2xc9zBxFDJl+jwA/l2mzlhAtVpm8/pHAHDZMzE63M/ax+7hsYfuYLB/Ny1tnSxadhiLlh1OS1sXAC5zmctc9ngMgMtc9nQY4zFr3lLmLTqAaqXEYw/dwc7tGwD4/2bjuoeJo5Ap0+cB8GybOmMB1WqZzesfAcBlz5aRoT7WPHo3qx66k6GBXlraOlm07DAWLT2M5pZOAFzmMpe5bG8GwGUue6rqGptZsuIIeqbOYc/ubTz64B2MDvcD8P/VxnUPE0chU6bPA+DZMnXGAqrVMpvXPwKAy/4dhof2sPqRu1j9yJ0MD/bS0t7F4hWHs3DpoTS1dADgMpe5zGWTDIDLXPZUdPXMZOnyI6lraGbTukfYsOYBorAKwP93G9c9TByFTJk+D4BnauqMBVSrZTavfwQAl/27DQ3sYdXDd7H6kbsZHuyjtb2bJSuOYMHSg2lqbgfAZS5zmcsMgMtc9mR4vs+cBStIFIvjPPbQ7ezeuQkAl2xc9zBxFDJl+jwAnq6pMxZQrZbZvP4RAFz2nzQ0sJtVD9/BmsfuYXS4n7b2KSxZeSQLFh9EQ1MrAC5zmctcZABc5rJ/paGplaXLj6SrZya7d27msQdvZ2xkEAAXbVz3MHEUMmX6PACeqqkzFlCtltm8/hEAXLa/DPbt4tEHb2ftY/cyOjxAW+dUlh1wNPMWH0RDYysALnOZy1xiAFzmsifSM3UOS1YcQTZfx4Y1D7Jp3cPEcQSAyzaue5g4CpkyfR4AT9bUGQuoVstsXv8IAC77bzDQt5NHH7yNdavuY2x0kI7OqSw78GjmLTqQ+oYWAFzmMpe5wAC4zGX7EgRp5i06gFnzljI+NsxjD93Ont1bAXBZrY3rHiaOQqZMnwfAvzJ1xgKq1TKb1z8CgMv+2/Tv2cEj99/KutX3Mz46REfXNJYfdAzzFq6krr4JAJe5zGX/nxkAl7lsb03N7SxZcQQdXdPZvX0jjz14B+NjIwC4bF82rnuYOAqZMn0eAI9n6owFVKtlNq9/BACX/Tfr793Ow/ffwoY1DzA+NkxH9wxWHHwccxasIJdvAMBlLnPZ/0cGwGUuq9UzbQ5LVh5JkE6zfs0DbNrwKKoWAJc9kY3rHiaOQqZMnwfA3qbOWEC1Wmbz+kcAcNn/ij27t/HwfTezYe2DTIyP0NUzkxUHH8fMuUvIZHIAuMxlLvv/xAC4zGUJz/eZu2Als+YuZXS4n1UP3UHf7m0AuOzJ2rjuYeIoZMr0eQBMmjpjAdVqmc3rHwHAZf+L9uzaysP33sSm9Y9QKReZMm0uyw86jumzFhIEaQBc5jKX/X9gAFzmsvqGFpYsP4LOnhn07tzMqofvpDAxBoDLnqqN6x4mjkKmTJ8HwNQZC6hWy2xe/wgALvtfpsDuHZt4+L6b2LppFVYt02YuYMXBxzJl+lyM8QBwmctc9r/MALjMVZ3d01m84nDqG1vYtOERNq57GGstAC57ujaue5g4Clmw5FCq1TKb1z8CgMv+v4iiiB1b1/PwfTexfes6fD9g5pwlrDj4OLqmzATAZS5z2f8qA+AyF82cu4S5Cw8gDCuseugOdm/fBIDLng0b1z3MyGg/UVgFwGX/H1UrZbZtWs2D993Eru2byObqmDN/BcsPOpaOrmkAuMxlLvtfYwBc5pJcrp7FK45gyrS5DA30suqhOxge6gPAZc+m7u6ZNDa3AeCy/8/KxQKbNzzCQ/fdxJ5dW6lvaGbeogNZuvJIWtt7AHCZy1z2v8IAuMwVre3dLF5xOM0tHezctoHVj9xFuVQEwGUuc9mzoTA+yoa1D/LIA7cysGcnjc3tLFx6CIuWHUZTczsALnOZy/7bGQCXuWDqjAUsXHooQZBiw9oH2bLxMQBc5jKX/TuMjQyydtW9rHr4ToYGemlp62LJyiOZt/AA6uqbAHCZy1z238oAuOz/s1Q6w4LFBzNj9kIKEyM89tCd7Nm1FQCXucxl/27Dg3tY/chdrHnsHkZHBujons7yg49l1tylZDI5AFzmMpf9tzEALvv/qqGxlcXLD6etcwoDe3aw6qE7GRsdBMBlLnPZf9Jg3y4efeA21q9+gML4KD3T5rD84GOZNnMBnh8A4DKXuey/hQFw2f9H7V3TWLz8cPJ1jWzbvIa1q+6jWq0A4LJ/NxEBAFUAXOaySX2923j4vpvZtP4Roihk+qyFrDj4WLqnzALAZS5z2X8DA+Cy/2+mzVzA/EUH4vk+m9Y9zPYtawFw2X+KAgAuc9m+qCq7d2zi4XtuZuum1XjGZ/b85Sw/6BjaO6cC4DKXuWx/MgAu+/9k7sKVTJ+1kDiqsuaxe9i9czMALvtPEhEAVBUAl7lsX6I4ZMfWdTx8303s2LaOXL6B+YsPYvGKw2lu7QDAZS5z2f5gAFz2/8XSlUfS2T2DUnGCRx+8g8G+XQC47D9NBABUAcBlLnsilUqZrRtX8/C9N7N7x2aaWzpZvPwI5i06kHxdAwAuc5nL/pMMgMv+1/l+ioMOP4nG5nbGRgd54O7rmRgfAcBl+wMqAIAC4DKXPRnF4jib1j/Mw/fdzEDfLjq6prH8oOOYMWcRQSoNgMtc5rL/BAPgsv9ldfVNHHr06WSydQz27eKR+29FVQFw2f4iAgCqCoDLXPZUjI8Ns/axe1j72L0UJkaZOn0+yw86lp6pcwBwmctc9u9mAFz2v6qtfQorDj4OEWHH1vWseeweAFy2vwkGAAUAXOayp2OgbyeP3H8LWzY+hhHDrHlLWX7QsbR19ADgMpe57N/FALjsf9GU6fNYsPRgANY+dg9bN60CwGX/DRABQFQBcJnLni5VZee2DTx8/y3s3rGJ+oZmFiw5hIVLD6WhsRUAl7nMZc82A+Cy/zUzZi9m5pzFANx317UM9O0CwGX/LRAAUBQAl7nsmaqUi2xa/wiP3H8rgwO7aW3vZtmBRzN73nLSmSwALnOZy54tBsBl/0tmzV3K1BnzUGu57YZ/Ui4WAHDZfxNBAFAUAJe57NkyNjrImkfuZv2q+yiMj9I9dRbLDzyWnmlzAHCZy1z2bDAALvtfMXv+cnqmzSGKIm6/6RIAXPbfCAEAFABc5rJnW9+eHTx8/81s3bQG4/nMmruUZQceTUtbFwAuc5nLngkD4LL/BXMXHkD3lFlUqxXuuuUyAFz230pEAFAUAJe57N/BWsuOrWt55IGb6evdTkNjK4uWHca8RQeSq6sHwGUuc9nTYQBc9t9u/uKD6OyeTqVc5J7brgTAZf/NBABQBQCXuezfqTgxzvrV97P6kbsYGx2ko2sayw44lqkzFmCMAcBlLnPZU2EAXPbfbNHSQ2nvnEqpNMG9d1wDgMv+2yEGAFEFwGUu+08YGujlkftvZfOGR7FxxIzZC1l+4LG0tncD4DKXuezJMgAu+2+1eMURtLR3U5gY4/47rwPAZf8LBABQAMBlLvtP2rV9Iw/ffzO7d2wmX9/IwqWHMmfBCtLpDAAuc5nL/hUD4LL/RktXHkVzSwcTY8M8eM8NALjsfwUiAKhaAFzmsv+0SrnEpvUPs+rhu5gYHaarZyZLDziajq7pALjMZS57IgbAZf9tFi09lMbmNsZGBnnovpsBcNn/EgQAUABwmcv2l+HBXh558Da2b1lLJptn3qIDmL/kIHL5egBc5jKX7YsBcNl/k7kLVtLS3s3E6DCPPHArAC77XyMIAIoC4DKX7U/WxmzbvIZHHriVkeF+2jumsvSAo+iZOgcAl7nMZXszAC77bzFjziI6e2ZQmBjjoftvBsBl/4tEBABVBcBlLvtvMDYyyGMP3s6WjY9hxGPWvKUsWHow2WweAJe5zGWTDIDL/htMm7mAqdPnUy5N8NC9NwHgsv9VCACgAOAyl/032bltAw89cDNrH7uHwtgoTS3t5PMNCJD4/Je+jgBPx+e/9HUE2Nvnv/R1BNiXz3/p6wjwRD7/pa8jQOLzX/o6AkwCcJnLni0GwGX727SZC5g+ayHVSolH7r8NVQuAy/5XiQoAoAC4zGX/bUoT4wz07WLHtvXs3rmFQmEMBT73pa/zyY99EAWeyOe+9HUmKTAJQIG9AXzuS18noUAtAAVqfe5LX0eBSQAKJD75sQ/yuS99HQUSAC5z2bPFALhsf5o2cwHTZy0kiqo89tCdVKtlAFz2vwwRAFAAcJnL/pt9/ktfZxLA57/0dfYGUOuTH/sgkwCeyOe/9HU++bEPkgB4NnzyYx8EwGUue7YZAJftL1OmzWH6rIVYG7PmkXsoFsYAcNn/OhAAFAXAZS77b/fJj32QxwPwZHz+S18H4PNf+jqTAD75sQ8C8PkvfZ1PfuyDACQ+/6WvkwD4/Je+TgJg0ue/9HUmAXz+S19nXwBc5rJniwFw2f7Q2NzOjDlLAFi3+n5GRwYAcNn/ByIAoKoAuMxl/598/ktfZ28An/zYBwH45Mc+SAIg8fkvfZ0EwOe/9HUSAIlPfuyDAHzyYx8EYNInP/ZBJgF88mMf5PEAuMxlzxYD4LL/tCCVYtacJYgIWzetYbBvFwAu+/9CRABAFQCXuey/3ee/9HUeD0CtT37sgyQAPvmxD5IAeCKf/NgHAfjkxz4IgMtc9t/KALjsP23GnCXk6xsZ6NvJjq1rAXDZ/0cqCoDLXPbf7pMf+yCPB2Bvn//S1/nkxz4IwJPx+S99HYDPf+nrADxVn//S19kbgMtc9mwzAC77T+qZOofOrukUJ8bZsuFRAFz2/42IAKAKAC5z2f9Xn//S1wH4Vz75sQ8C8MmPfRCASZ//0tcB+PyXvg7A3j7/pa/zyY99EIBPfuyDTAJwmcv+HQyAy/5TGppamTFnMQCbNz5KpVIGwGX/34AAICgALnPZf7vPf+nrPB6AWp//0tf55Mc+CMAnP/ZBPv+lrwPwRD7/pa8D8PkvfR2AxCc/9kESAJ/82AdJAOzLJz/2QT7/pa8D8PkvfZ1PfuyDALjMZc82A+Cy/wTfC5g5ZwnGGDZveIyRoT4AXPb/kQgAqAKAy1z23+6TH/sgjwdgb5//0teZBJD4/Je+zic/9kEA9vbJj30QgE9+7IMA7Mvnv/R1ACZ9/ktf55Mf+yAAiU9+7IN8/ktf55Mf+yAALnPZv4MBcNl/woy5i6lvaGbP7m3s2r4BAJf9f4UIAKoKgMtc9v/JJz/2QfYG8Ex8/ktfB2DS57/0dT75sQ8CkPj8l75O4pMf+yCf/9LXSQC4zGXPNgPgsn+37imz6OqZyfjYMJs3PAqAy/4/EwQAl7nsf8Xnv/R1Hg/Av/L5L32dT37sgwB8/ktfJ/HJj30QgE9+7IMAfPJjH+TzX/o6AInPf+nrJAA++bEPAjDpkx/7IACf/9LXSXzyYx8kAfDJj32QxOe/9HUSAC5z2bPFALjs3ymdzjB1xnxsHLFl42PEUQiAy/4/UwDAZS77X/DJj32QfwXgiXzyYx8EIPHJj32QBMDePvmxD5IA+OTHPsgkgE9+7IMA1Prkxz5IAmBvn/zYB0kAuMxlzxYD4LJ/p86eWaTSGXZs28DYyCAALvv/TgAAl7nsv5kCz8S0GQtYcfDxTJ+9GAX2JwCXuezZYABc9u+SyeTonjKTaqXMnt1bAXCZCxABwGUu+28mwDOxfetaSsVxps2Yx5z5yxFgfwFwmcueDQbAZf8uXVNm4gcpendtoVopA+AyF4gAgMtc9v/dulX3MTrcT/eUWXT2zADAZS77X2YAXPbvkM3W0dUzi2qlzJ7dWwFwmStQAcBlLnPBlo2riKOQmXMWU1ffBIDLXPa/ygC47N+ha8pMPN+nd9cWqpUyAC5zBQIALnOZCybGR9iycRW+n2LGnMWICAAuc9n/IgPgsmdbLt9AV88sqpUye3ZvBcBlLgEBwGUuc0Xvri307d5KU3M7M+YsBsBlLvtfZABc9mzr6pmJ8Qy9u7ZQrZQBcJlLRADAZS5zyZaNqylMjNEzdQ75ugYAXOay/zUGwGXPpnx9I11TZ1GtlNmzeysALnONAAAuc5lLwrBC767NiAgd3dMBcJnL/tcYAJc9mzq7pyNA764tVCtlAFzmGkUAcJnLXNO3exvF4jid3TPI5PIAuMxl/0sMgMueTc2tXSjKwJ4dALjMRSIA4DKXucZaS9/ubXieT2f3dABc5rL/JQbAZc+W1vZuMpkcQwO9lEoFAFzmIhAAXOYyF+3ZvY1KuURH9wxS6QwALnPZ/woD4LJnS3NbFwDDg3sAcJmrRADAZS5zURRW2bN7K6kgTUNjCwAuc9n/CgPgsmdLS2snURzSv2cnAC5zmctc5rJKpQRAOpMDwGUu+19hAFz2bGhrn0IQpBke2IONIwBc5ioQAFzmMleViwUAMpk8AC5z2f8KA+CyZ0NrZzcAA307AXCZyxAAcJnLXOEHAdlsnklgASWXryObzbM3AJe57L+RAXDZs6GltYtqpcTQQC8ALnOZqADgMpe5IgpDDjjsJA48/GQSyw48FhAamto48PCTqbVk5VEAuMxl/40MgMueqbb2KRjjMdC3CwCXuSyBAIDLXOayfbFxzJZNjwHgMpf9NzIALnumWju7Aejr3QaAy1yWQAQAl7nMJbt3bsbaGIDHE0ZVBvt2AeAyl/03MgAue6bq6poIwyqFiTEAXOayhAAALnOZS7ZtXo0CAPti45htm1ajqgC4zGX/jQyAy54JEUMmm6dUnADAZS6bhAgALnOZS+IoYufW9dg4BmBvsY3o37MTAJe57L+VAXDZM5HN1QFQKk4A4DKXTRIFAJe5zDW7dmwCEQBqxXHE9s1rUbUAuMxl/60MgMueiWy+DoBScRwAl7lsEgIALnOZa+IoZNf2Ddg4BmCSWsue3dsAcJnL/psZAJc9E7lsHQCl0gQALnPZJEQAcJnLXLRrx0bECAAJtZZN6x7B2hgAl7nsv5kBcNkzkc3VAVAqTADgMpe5zGUumxRWq+zesYnYxgBUq2X6+3YC4DKX/bczAC57JtLZPACl4gQALnPZJEEAcJnLXLVz+0aMGKwqWzatAhQAl7nsv50BcNkzEaTShNUKAC5zmctc9lS0tU/h/7OGhlZGhvqxUQQKbe1T+P/M9wIAXPa/zAC47JlIpdJUq2UAXOayWiICgMtc9njaO6fQ1tnD/2fWRoyO9NPW0UNbZw//X82atxQAl/2vMwAue7qM5+N5PtVKBQCXuayWCgC4zGVPZGS4n+1b1uKy/w8AXPb/gQFw2dOVSqUBCMMKAC5zWS1RAHCZy1zmMpf9LzIALnu6glQagLBaBsBlLquFCAAuc5nLXOay/0UGwGVPV5BKA1CplgFwmctqCQDgMpe5zGUu+19kAFz2dKVSGQDCSgUAl7msFiIAuMxlLnOZy/4XGQCXPV1BkAIgrFYAcJnLXOYyl7nMZf9fGACXPV3GeABYjQFwmctqCQKAy1zmMpe57H+RAXDZ0yVGAFCrALjMZbUQAHCZy1zmMpf9LzIALnu6jDEAWGsBcJnLXOYyl7nMZf9fGACXPV0iHgBqLQAuc1ktEABc5rL/tI987JP8KwCP5yMf+yQAT8ZHPvZJAGp95GOfBODxfORjnwTgyfrIxz4JQK2PfOyTAPwrH/nYJwGY9JGPfRKAWh/52Cf5VwBc5gID4LKnyxgDgNUYAJe5rJYIALjMZc/ERz72SR4PwEc+9kkmAUz6ypc+TwLgK1/6PABf+dLnSQA8ka986fN85GOfBODJ+sjHPgnAv/KRj30SgI987JPsDeCJfORjnwTgiXzkY58E4CMf+yQJgI987JNMAvjIxz5JAmDSV770eR4PgMtcYQBc9nSJCACqCoDLXFYLBACXueyZ+MqXPk8C4Ctf+jwAX/nS50kAfOVLnycBUOsjH/skCYCPfOyTAHzkY58kAVDrIx/7JHsD+MjHPsneACZ95GOf5Ctf+jwAT8ZHPvZJvvKlzwPwlS99nkkAX/nS5wHY20c+9km+8qXPA/BkfOVLn+cjH/skX/nS50kAfOVLn2cSwFe+9HkSAC5z2b4YAJc9XcYYAKy1ALjMZbVEAMBlLnsmPvKxT5IA+MjHPgnARz72SRIA+/KVL32eWgBf+dLnqQUw6Stf+jwJgK986fPsDeArX/o8CYDH85GPfZIEwEc+9kkmASS+8qXPA/CVL32ej3zsk0z6ypc+D8CT8ZGPfZIEwEc+9kkmAUz6ypc+D0DiK1/6PACTvvKlzwPgMpc9EQPgsqdLxANArQXAZS6rpSoAuMxlz9RXvvR5AL7ypc8D8JUvfR6AffnIxz7J3gA+8rFPsjeAp+sjH/skAImPfOyTfOVLn2cSwFe+9HkmAUz6yMc+SeIrX/o8kz7ysU+SAKj1kY99EoDERz72Sb7ypc8zCeArX/o8kwBqfeRjn+RfAZj0kY99kscD4DJXGACXPV3GCABWLQAuc1ktEQBwmcv+nT7ysU+SAEh85UufZ28AX/nS59kbQK2vfOnzfORjnwRg0kc+9km+8qXPA1DrK1/6PACJr3zp8wA8kY987JMkvvKlz5MA+MjHPgnAV770eRIf+dgnSQAkvvKlzwOQ+MqXPg/Av/KRj30SgK986fNMAvjKlz4PwFe+9HkmASS+8qXPUwvgK1/6PLUAXOYCA+Cyp0uMAUCtBcBlLnOZy/4dPvKxT/KVL30egK986fN85GOfBGDSV770eRIAkz7ysU8yCeAjH/skkwD+077ypc+TAHg8X/nS50kAPF1f+dLn+cjHPkktgI987JMAfORjn2QSgMtcti8GwGUuc5nLXPbf7Ctf+jwAk77ypc8D8K985UufZ28AT+QrX/o8H/nYJwH4yMc+yVe+9HkAnshHPvZJagF85GOfZBJA4iMf+yS1AD7ysU9SC2BfPvKxT1IL4CMf+ySTACZ95UufB+ArX/o8CYCvfOnzAHzlS58nAVDrIx/7JACTPvKxT1ILwGUuMAAuc5nLXOay/2Yf+dgn2RvAv8tXvvR5PvKxT/KVL30egH/lK1/6PLUAvvKlzzMJIPGVL32eWgBf+dLnqQWwL1/50uepBfCVL32eSQDPpq986fPUAnCZCwyAy1zmMpe57L/ZV770efYGUOsjH/skAPvykY99EoAn6yMf+yRf+dLn+cjHPgnAs+kjH/skAHv7yMc+CcCz4SMf+yQAiY987JN85Uuf5yMf+yRf+dLn+cjHPgmAy1z2RAyAy1zmMpe57L/ZRz72SfYG8Gz7yMc+SeIrX/o8AF/50uf5yMc+SQLgmfrIxz7JV770eQD29pUvfZ6PfOyTADwTH/nYJ/nKlz4PQOIrX/o8AF/50ucB+MqXPg9ArY987JN85Uuf5yMf+yQALnOZAXCZy1zmMpf9N/vKlz7P3gASX/nS5/nIxz4JQOIjH/skCYCPfOyTJAA+8rFPkgD4yMc+SQIg8ZGPfZLEV770eRIAk77ypc+T+MjHPkkC4On4yMc+yVe+9HkAEh/52CcBqPWVL32ej3zskwA8XV/50ucBeCIf+dgnAUh85GOf5Ctf+jwAX/nS5/nIxz4JwEc+9kn2BuCy/+8MgMtc5jKXuey/1Ve+9HkA9vaVL30egMRXvvR5EgBf+dLnebIAEl/50udJADyer3zp8yQAJn3lS58HYG9f+dLnAaj1lS99HoBJX/nS50kA1PrKlz4PwKSvfOnzAOztK1/6PACP5ytf+jwA+/KVL32eBMBXvvR5ACZ95Uuf5/EAuOz/OwPgMpe5zGUuc5nLXOayfTEALnOZy1zmMpe5zGUu2xcD4DKXucxlLnOZy1zmsn0xAC5zmctc5jKXucxlLtsXA+Ayl7nMZS5zmctc5rJ9MQAuc5nLXOYyl7nMZS7bFwPgMpe5zGUuc5nLXOayfTEALnOZy1zmMpe5zGUu2xcD4DKXucxlLnOZy1zmsn0xAC5zmctc5rL9pbN7BnMXHsD/V/MWHURi7sID+P8MwGX/HxgAl7nMZS5z2f6wbfMaNqx+gP/P6uoaSGzZ8CgbVj/A/1erHroDAJf9rzMALnOZy1zmsv2hUBjj/zsFEsXiOIXCGP+fRXEIgMv+lxkAl7nMZS5zmctc5jKX7YsBcJnLXOYyl7nMZS5z2b4YAJe5zGUuc5nLXOYyl+2LAXCZy1zmMpe5zGUuc9m+GACXucxlLnOZy1zmMpftiwFwmctc5jKXuezfaWS4HwCXuex/iQFwmctc5jKXucxlLnPZvhgAl7nMZS5zmctc5jKX7YsBcJnLXOYyl7nMZS5z2b4YAJe5zGUuc5nLXOYyl+2LAXCZy1zmMpe5zGUuc9m+GACXucxlLnOZy1zmMpftiwFwmctc5jKXucxlLnPZvhgAl7nMZS5zmctc5jKX7YsBcJnLXOYyl7nMZS5z2b4YAJe5zGUuc5nLXOYyl+2LAXCZy1zmMpe5zGUuc9m+GACXucxlLnOZy1zmMpftiwFwmctc5jKXucxlLnPZvhgAl7nMZS5zmctc5jKX7YsBcJnLXOYyl7nMZS5z2b4YAJe5zGUuc5nLXOYyl+2LAXCZy1zmMpe5zGUuc9m+GID/FZ//0tcBmPT5L30dgCfj81/6OgDPlg2rH+SBu28A4Nnw+S99HYCn4vNf+joALvj8l74OwKTPf+nrADwZn//S1wH4d+vduYUH7r6B3p1bAPh3+vyXvg7Ak/X5L30dAJe5zGUuc9njMQD/333+S1/nkx/7IACf/9LX2RvAU1UuFygWxgB4pj7/pa/zyY99kM9/6esAPBmf/9LX+eTHPsjnv/R1AFz2RD7/pa/zyY99EIDPf+nr7A3g2RKGFYqFMcKwAsC/y+e/9HU++bEP8vkvfR2Af+XzX/o6n/zYB/n8l74OgMtc5jKXuWxfDMD/Z5//0tf55Mc+CEDikx/7IHsD2F8+/6Wv88mPfRCAT37sg3z+S18H4Il8/ktf55Mf+yAAn/zYB/n8l74OgMv25fNf+jqf/NgHAUh88mMfZG8Aic9/6eskAP6bff5LX+eTH/sgAJ/82Af5/Je+DsDj+fyXvs4nP/ZBAD75sQ/y+S99HQCXucxlLnPZ3gzA/4LPf+nrAHz+S18H4PNf+joAn//S15kEUOvzX/o6n/zYBwH4/Je+DsB/k89/6et88mMfBGDSJz/2QT7/pa8DsC+f/9LX+eTHPgjApE9+7IN8/ktfB+D/o89/6esAfP5LXwfg81/6OgCf/9LXmQRQ6/Nf+jqf/NgHAfj8l74OwBP55Mc+CMB/s89/6et88mMfBGDSJz/2QT7/pa8DsLfPf+nrfPJjHwRg0ic/9kE+/6WvA+Ayl7nMZS6rZQD+F3zyYx8E4JMf+yAAn/zYBwH45Mc+SAJgb5/82AcB+PyXvs4nP/ZBPv+lr/N4AP5TPv+lr5P45Mc+yOe/9HX29smPfZDPf+nrJAASn//S10l88mMfBODzX/o6AJM++bEP8vkvfZ0EwP8nn/zYBwH45Mc+CMAnP/ZBAD75sQ+SANjbJz/2QQA+/6Wv88mPfZDPf+nrPB6A/2af/9LXSXzyYx/k81/6Onv75Mc+yOe/9HUSAJ//0tdJfPJjHwTg81/6OgCTPvmxD/L5L32dBIDLXOYyl7ksYQD+P/v8l74OQOKTH/sgtQA++bEPkgCY9PkvfZ1aAInPf+nrTAL4/Je+TgJg0ue/9HUSAInPf+nrTAJIfPJjHyQB8MmPfZC9AXzyYx8kAZD45Mc+SAIg8cmPfZDPf+nrAEz65Mc+SALAZZM+/6WvA5D45Mc+SC2AT37sgyQAJn3+S19nEsCkz3/p69QCSHz+S1+nFsCkz3/p60wC+PyXvk4CYNLnv/R1EgCf/9LXmQQw6ZMf+yAJgE9+7IPsDeCTH/sgCYBPfuyDJAASn/zYB/n8l74OwKRPfuyDJABc5jKXucxlCQPwv+TzX/o6AJ//0tcBeCKf/9LX+eTHPgjAk/X5L32dT37sg0wCSHz+S1/nkx/7IJM+/6Wv88mPfRCAvX3yYx8E4PNf+jqf/NgHmfT5L30dgMTnv/R1agF8/ktfpxZArc9/6evUAvj8l77OJID/zz7/pa8D8PkvfR2AJ/L5L32dT37sgwA8FZ/82AeZ9PkvfR2Az3/p63zyYx8kAfDJj30QgM9/6et88mMfZBLApM9/6et88mMfZNLnv/R1PvmxDwKwt09+7IN8/ktf55Mf+yCTPv+lrwMw6fNf+jq1AD7/pa9TC2DS57/0dWoBfP5LX2cSgMtc5jKXuayWAfhf8PkvfR2AT37sgwB88mMfBOCJfPJjHwTgqfjkxz7I57/0dRIAn/zYBwH45Mc+CMDnv/R1EgBPxue/9HUmAdT65Mc+SAJg0ic/9kESAHv75Mc+yOMB+P/q81/6OgCf/NgHAfjkxz4IwBP55Mc+CMC/0yc/9kE+/6WvkwD45Mc+CEDikx/7IACf/9LXSQD8K5//0teZBLC3T37sgyQAJn3yYx8kAVDrkx/7II8HwGUuc5nLXLY3A/C/4JMf+yAAkz7/pa/zyY99kM9/6esAPJs++bEPkvj8l74OwKTPf+nrfPJjHyQBkPjkxz7I57/0dQA+/6Wv88mPfRCASZ/82AepBfBs+/yXvs4nP/ZBAP4/+uTHPgjApM9/6et88mMf5PNf+joA/26f/NgH+fyXvk7ikx/7IACTPvmxD5L4/Je+DkCtz3/p63zyYx8kAZD45Mc+yOe/9HUAPv+lr/PJj30QgMQnP/ZBagE82z7/pa/zyY99EACXucxlLnNZLQPw/8nnv/R1AJ6uz3/p6wAkPvmxD/L5L30dgM9/6et88mMfBODp+vyXvg7ApM9/6eskAJ6sz3/p6yQAEp//0tf55Mc+CIDLEp//0tcBeLZ9/ktf55Mf+yAJgEmf/9LXAUh88mMf5PNf+joAic9/6et88mMfBODp+PyXvg5Arc9/6eskAJ6Mz3/p6yQAEp//0tf55Mc+CIDLXOYyl7lsbwbgf83nv/R1PvmxDwLwyY99EIBPfuyDfP5LXwfgmfr8l77OpE9+7IMAfPJjH+TzX/o6kwA+/6WvA/DJj32Qz3/p63zyYx8EYNInP/ZBPv+lrzPpkx/7IACTPvmxD5IAqPX5L30dgH355Mc+SOLzX/o6iU9+7IMAuOLzX/o6n/zYBwH45Mc+CMAnP/ZBPv+lrwPwTH3+S19n0ic/9kEAPvmxD/L5L32dSQCTPv+lrzPpkx/7IACJT37sg3z+S19nEsDnv/R1AD75sQ/y+S99nU9+7IMAJD75sQ/y+S99nUmf/NgHAaj1yY99kARArc9/6esA7O2TH/sgic9/6eskPvmxDwLgMpe5zGUu2xcD8L/g81/6OgCf/9LX+eTHPgjA3j75sQ8C8K98/ktfJwGwt09+7IPUApj0yY99kL0BJD75sQ8CsLdPfuyDTAKY9MmPfRCAxCc/9kEAJn3yYx8kAfB4PvmxD5L4/Je+TgLg/6vPf+nrAHz+S1/nkx/7IAB7++THPgjAv/L5L32dBMDePvmxD1ILIPH5L32dT37sg0z6/Je+DsAnP/ZBagHU+uTHPsjeABKf/NgHAaj1yY99kEkAtT75sQ8CkPjkxz4IwKRPfuyDJAD25ZMf+yCJz3/p6yQAXOYyl7nMZXszAP8LPvmxDzIJ4PF88mMfBKDWJz/2QQAmffJjH2QSwNPhBylS6QwAz5ZPfuyDADwVn/zYB0kA/H/1yY99kEkAj+eTH/sgALU++bEPAjDpkx/7IJMAnoxPfuyDfP5LX2fSJz/2QQD25nk+qXQGz/MB+Hf75Mc+CMCT9cmPfZAEgMtc5jKXuWxvBsBlT9fCpYdwyJGnAeAyV3zyYx9kEsC+9EybwyFHnkbPtDkAuMxlLnOZy/6XGACXucxlLnOZy1zmMpftiwFwmctc5jKXucxlLnPZvhgAl7nMZS5zmctc5jKX7YsBcJnLXOYyl7nMZS5z2b4YAJe5zGUuc5nLXOYyl+2LAXCZy1zmMpe5zGUuc9m+GACXucxlLnOZy1zmMpftiwFwmctc5jKXucxlLnPZvhgAl7nMZS5zmctc5jKX7YsBcJnLXOYyl7nMZS5z2b4YAJe5zGUuc5nLXOYyl+2LAXCZy1zmMpe5zGUuc9m+GACXucxlLnOZy1zmMpftiwFwmctc5jKXuezZ0tjUSve02dRqam4DlM6emXRPm00tAJe57L+RAXCZy1zmMpe57NkyOjLIjFmLmD13GZNASMyYtYjZc5cxqa19CgAuc9l/IwPgMpe5zGUuc9mzKQqrADwRay1bNjwGgMtc9t/IALjMZS5zmctc9mzasnEV1sYAPJ7CxCjjY0MAuMxl/40MgMtc5jKXucxlz6bB/l1EURWAfbHWsnXTKgBc5rL/VgbAZS5zmctc5rJnk6qyddMa4jgCYG+l4gSjwwMAuMxl/60MgMtc5jKXucxlz7b+3u1YGwNQy1rL1k2PAeAyl/03MwAuc5nLXOYylz3bVJVtm1YTxxEAkybGhhke7APAZS77b2YAXOYyl7nMZS77d9jTux21FoCEqrJpwyMAuMxl/+0MgMtc5jKXucxl/w5qLdu3rCWOIgDGR4cojI8C4DKX/bczAC5zmctc5jKX/bv07tpKHEeAsmXjKgBc5rL/BQbAZS5zmctc9nRMm7mQuQtX4rInMnv+MoaH9jDYv4vOnunMXbgSl/0rAC7b3wyAy1zmMpe57OmKo5BycQKX/SsTYyOUixO47F+pb2gBwGX7mwFwmctc5jKXPRPDQ324zGXPhsLEKAAu+29gAFzmMpe5zGUuc5nLXLYvBsBlLnOZy1zmMpe5zGX7YgBc5jKXucxlLnOZy1y2LwbAZS5zmctc5jKXucxl+2IAXOYyl7nMZS5zmctcti8GwGUuc5nLXOYyl7nMZftiAFzmMpe5zGUuc5nLXLYvBsBlLnOZy1zmMpe5zGX7YgBc5jKXucxlrvrIxz4JQK2PfOyTAPwrH/nYJwF4Mj7ysU8C8GR95GOfBKDWRz72SQBc5rJ/NwPgMpe5zGUuc9mT8ZGPfZK9AXzkY59kbwC1PvKxTwLwkY99kr0BPJGPfOyTALjMZf9JBsBlLnOZy1zmslof+dgn+cqXPs9HPvZJACZ95UufZxLAV770eQC+8qXPA/CVL32eSQCTPvKxT/KVL30egK986fNMAvjKlz4PwN4+8rFP8pUvfR4Al7lsfzAALnOZy1zmMtd85GOfJAHwkY99EoCPfOyTfOVLnwfgK1/6PB/52CcBqPWRj32Sr3zp8wBM+sqXPs9HPvZJAPb2lS99HoCvfOnzfORjn2TSV770eQCejI987JMkAD7ysU8yCcBlLvt3MAAuc5nLXOYy13zlS58nAfCVL32ej3zsk3zlS58HYNJXvvR5PvKxTwLwkY99ksRXvvR5APb2lS99no987JMkAGp95GOfJPGVL32eSR/52CdJANT6yMc+CUDiIx/7JF/50ueZBPCVL32eSQAuc9m/gwFwmctc5jKXuegjH/skAImvfOnzfORjn2RvX/nS5wH4ypc+T+IjH/skkwA+8rFPMukrX/o8CYDERz72SRJf+dLnSQB85GOfBOArX/o8iY987JMkABJf+dLnAUh85UufB+Bf+cjHPgmAy1z2bDEALnOZy1zmMpd95GOfBOArX/o8ewPY21e+9Hn2BrC3r3zp8yQAHs9XvvR5EgBP11e+9HkAXOayZ4sBcJnLXOYyl7nmIx/7JF/50ucB+MqXPg9A4iMf+yQAiY987JMA7O0jH/skewPYl4987JPUAvjIxz5JLYB9+cjHPkktgI987JNMAnCZy/4dDIDLXOYyl7nMNV/50ucBmPSRj30SgK986fN85GOfBODxfOVLn2dvAPvylS99nloAX/nS56kFsC9f+dLnqQXwlS99nkkALnPZv4MBcJnLXOYyl7ks8ZUvfZ6PfOyTAPwrH/nYJ9kbwOP5yMc+CcDePvKxTwLgMpf9tzEALnOZy1zmMpft7Stf+jwf+dgn+cqXPg9Ara986fM8HoC9feRjn+QrX/o8AHv7ypc+z0c+9kkAnomPfOyTALjMZc8WA+Ayl7nMZS5zWeIjH/skAB/52CdJAHzkY58kAfCRj32SJwsg8ZGPfZKvfOnzACQ+8rFPAlDrK1/6PB/52CcBeLq+8qXPA+Aylz1bDIDLXOYyl7nMVV/50ucB+MqXPs/jAfjKlz7PkwWQ+MqXPg/ApK986fMkAGp95UufB2DSV770eQD29pUvfR4Al7ns380AuMxlLnOZy1zmMpe5bF8MgMtc5jKXucxlLnOZy/bFALjMZS5zmctc5jKXuWxfDIDLXOYyl7nMZS5zmcv2xQC4zGUuc5nLXOYyl7lsXwyAy1zmMpe5zGUuc5nL9sUAuMxlLnOZy/4/+sjHPgnApI987JMAPBkf+dgnAfh3+sjHPgnAs+EjH/skAP/KRz72SQAmfeRjnwTgqfjIxz4JgMv+PzIALnOZy1zmsv8vPvKxTzLpK1/6PAD/Dh/52Cd5sgCeTR/52CcBeLZ85GOfZBLApI987JPUAnDZ/3cGwGUuc5nLXLa/feRjn2QSQK2PfOyTTAKY9JGPfZJJAImvfOnzJAAez0c+9kkAan3kY5+kFsBHPvZJagFM+sqXPk8tgK986fPsC8Ckj3zskwDs7SMf+yQA+/KRj30SgElf+dLn+cjHPglArY987JPsDWDSRz72Sb7ypc8DkPjIxz7JV770eSYB1PrKlz7PJACXucAAuMxlLnOZy/anj3zsk3zlS59n0kc+9kkAEh/52Cf5ypc+z6SPfOyTAHzkY5/kK1/6PJM+8rFPArAvH/nYJwGY9JUvfZ6PfOyTANT6ypc+zySAr3zp80wCeDwf+dgn+cqXPg9A4iMf+yQAT8VXvvR5PvKxTwJQ6yMf+yQAe/vKlz4PQOIjH/skX/nS59kbwL585GOfBOArX/o8H/nYJ5n0lS99HoAn4yMf+yS1AFz2/4EBcJnLXOYyl/1/8ZGPfZIEwEc+9kkA/p0+8rFP8pUvfR6ASV/50uf5yMc+CUCtj3zsk3zlS58HYF++8qXP85GPfRKASV/50ucBeDI+8rFPApD4yMc+yVe+9HkAEh/52CcBmPSRj32SxFe+9HkmfeRjnyQB8Hg+8rFP8pUvfZ5JAF/50ucBcNn/BwbAZS5zmctc9v/FV770eRIAX/nS5wF4qj7ysU/ylS99no987JMAPJ6PfOyTAHzkY59kbwAf+dgnAUh85GOf5Ctf+jwAz6aPfOyTfOVLnweg1le+9HkAJn3lS58HYNJXvvR5EgCJj3zsk3zlS58nAZD4yMc+ySSAj3zsk3zlS5/nIx/7JAAu+//IALjMZS5zmcv+W3zkY58E4Jn4yMc+CUDiIx/7JF/50ucBqPWVL30egCfylS99no987JMA7MtXvvR5agF85UufZxLApK986fMA/Ctf+dLnAXiyvvKlzwPwTHzkY5/kK1/6PAB7+8qXPk8tAJf9f2YAXOYyl7nMZfvTV770eT7ysU+S+MqXPg/As+EjH/skX/nS5wHY20c+9kkA9vaRj32Sr3zp8wA8U1/50ucBeDI+8rFPAvBUfORjnwQg8ZGPfZKvfOnzfORjnwTgyfjIxz5J4itf+jwAH/nYJwF4sj7ysU/ylS99HgCX/X9hAFzmMpe5zGX721e+9HkSAM/ERz72Sb7ypc8D8JUvfR6ASV/50ucB+MjHPslXvvR5APb2lS99HoBJX/nS5wHYl4987JPUAvjIxz5JLYDH85UvfR6Aj3zsk3zlS58H4Mn6yMc+yVe+9HkAnq6vfOnzJD7ysU+S+MqXPg/AvnzkY58EIPGVL32ej3zsk3zlS58HwGX/nxgAl7nMZS5z2f70kY99EoDERz72Sb7ypc8D8HR85UufB+DxfORjn+QrX/o8AM/UV770eWoBfOVLn6cWwOP5yMc+SeIrX/o8AE/WRz72Sb7ypc8DkPjIxz7JV770eQC+8qXP85GPfRKAf+UjH/skia986fMkAD7ysU8CUOsjH/skX/nS5wFIfORjn+QrX/o8H/nYJwFw2f8nBsBlLnOZy1y2P33lS5/nIx/7JImvfOnzAEz6ypc+z0c+9kkmfeVLnwfgK1/6PB/52CeZ9JUvfR6Ax/ORj32SxFe+9HkA9qePfOyTJL7ypc+TAHg8H/nYJwH4yMc+CUDiK1/6PACJj3zsk3zlS58HYNJXvvR5PvKxTwKwL1/50ucB+MqXPk8C4CMf+ySJr3zp8wBM+sjHPslXvvR5ABIf+dgn+cqXPg/AV770eT7ysU8C4LL/LwyAy1zmMpe5bH/7ypc+TwJgb1/50ueZBDDpK1/6PJMA9uUjH/skia986fMkAJ6Kj3zskyQAan3kY59kbwAf+dgn2RvARz72SSZ95UufJwHwr3zlS59nEkCtj3zsk3zlS58HYG9f+dLn+cjHPgnAvnzkY5+k1le+9HkSALW+8qXPA5D4yMc+yVe+9HkAJn3lS5/nIx/7JAAu+//AALjMZS5zmcv+v/nKlz4PwFe+9HkSAE/kK1/6PAB7+8qXPs8kgElf+dLnebIAvvKlzzMJ4NnwlS99HoDH85UvfR6ASV/50ucBSHzlS5+nFsDevvKlzwMw6Stf+jwAe/vKlz4PgMv+PzAALnOZy1zmMpe5zGUu2xcD4DKXuezfQRUAXOYyl7nMZf+LDIDLXOayfwdVC4DLXOYyl7nsf5EBcJnLXPbvoGoBcJnLXOYyl/0vMgAuc5nL/h1ULQAuc5nLXOay/0UGwGUuc9m/g7UWAJe5zGUuc9n/IgPgMpe57N9BrQXAZS77T/rIxz4JwKSPfOyTADwZH/nYJwH4d/rIxz4JwL/TRz72SQD+lY987JMATPrIxz4JwFPxkY99EgCX/X9hAFzmMpf9O6hVAFzmsn+3j3zsk0z6ypc+D8Cz7SMf+yRPFsB/ykc+9kkAni0f+dgnmQQw6SMf+yS1AFz2/5EBcJnLXPbvoFgAXOayx/ORj32SSQC1PvKxTzIJYNJHPvZJJgEkvvKlz5MAeDwf+dgnAaj1kY99kloAH/nYJ6kFkPjKlz5PLYCvfOnz7AtArY987JMA7O0jH/skAPvykY99EoBaH/nYJ5kEkPjKlz7PRz72SQBqfeRjn2RvAJM+8rFP8pUvfR6AxEc+9km+8qXPMwmg1le+9HkmAbjs/ysD4DKXuezfwVoLgMtcti8f+dgn+cqXPs+kj3zskwAkPvKxT/KVL32eSR/52CcB+MjHPslXvvR5Jn3kY58EYF8+8rFPAjDpK1/6PB/52CcBqPWVL32eSQBf+dLnmQSwLx/52Cf5ypc+D0DiIx/7JABP1Ve+9Hk+8rFPAlDrIx/7JAC1PvKxT/KVL32eSR/52CcBSHzlS58HIPGRj32Sr3zp8+wNYF8+8rFPAvCVL32ej3zsk0z6ypc+D8CT8ZGPfZJaAC77X2UAXOYyl/07qFoAXOayffnKlz4PwLPhIx/7JAmAj3zskwD8u3zkY5/kK1/6PACTvvKlz/ORj30SgL195GOf5Ctf+jwA+/KVL32ej3zskwBM+sqXPg/AM/GRj30SgMRHPvZJvvKlzwOQ+MjHPgnApI987JMkvvKlzzPpIx/7JAmAx/ORj32Sr3zp80wC+MqXPg+Ay/5XGQCXucxl/w42tgC4zGX/bl/50udJAHzlS58H4Kn6yMc+yVe+9Hk+8rFPArAvH/nYJwH4yMc+yd4APvKxTwIw6SMf+yRf+dLnAfhP+MjHPslXvvR5AGp95UufB2DSV770eQAmfeVLnycBkPjIxz7JV770eRIAiY987JNMAvjIxz7JV770eT7ysU8C4LL/LwyAy1zmsn8HRQEwxgPAZS7bl4987JMkvvKlzwPwdH3kY58EIPGRj32Sr3zp8wDU+sqXPg/AE/nKlz7PRz72SQD29pUvfZ5aAF/50ueZBFDrK1/6PAD/yle+9HkAnqmvfOnzADwTH/nYJ/nKlz4PwN6+8qXPUwvAZf/fGACXucxl/w5qLQC+5wPgMpfty1e+9HkSH/nYJwF4pj7ysU/ylS99HoC9feRjnwRgbx/52Cf5ypc+D8Az8ZUvfR6AJ+sjH/skAM+Gj3zskwAkPvKxT/KVL32ej3zskwA8GR/52CdJfOVLnwfgIx/7JABP1kc+9km+8qXPA+Cy/2UGwGUuc9m/g7UxAJ7vA+Ayl/27fORjn+QrX/o8AF/50ucBmPSVL30egI987JN85UufB2BvX/nS5wGY9JUvfR6AvX3kY5+kFsBHPvZJagE8ka986fMAfORjn+QrX/o8AM/URz72Sb7ypc8D8HR95UufJ/GRj32SxFe+9HkA9uUjH/skAImvfOnzfORjn+QrX/o8AC77X2cAXOYyl/07qFUAjO8D4DKX1frIxz4JwLPhK1/6PACP5yMf+yRf+dLnAXgmvvKlz1ML4Ctf+jy1AJ7IRz72SRJf+dLnAXimPvKxT/KVL30egMRHPvZJvvKlzwPwlS99no987JMA/Csf+dgnSXzlS58nAfCRj30SgFof+dgn+cqXPg9A4iMf+yRf+dLn+cjHPgmAy/7XGQCXucxl/w7WxgD4ng+Ay1xW6ytf+jwf+dgnmfSVL30egMRXvvR5PvKxTzLpK1/6PABf+dLn+cjHPsmkr3zp8wA8no987JMkvvKlzwOwP33kY58k8ZUvfZ4EwOP5yMc+CcBHPvZJABJf+dLn+cjHPsmkr3zp8wB85UufByDxkY99kq986fMATPrKlz7PRz72SQD25Stf+jwAX/nS50kAfORjnyTxlS99HoBJH/nYJ/nKlz4PQOIjH/skX/nS5wH4ypc+z0c+9kkAXPa/zAC4zGUu+3ew1gLg+QEALnPZ3r7ypc8zCaDWV770eSYBTPrKlz7PJIB9+cjHPkniK1/6PAmAp+IjH/skCYBJH/nYJ9kbwEc+9kn2BpD4yMc+yaSvfOnzJAD+la986fNMApj0lS99nkkAtT7ysU/ylS99HoC9feVLn+cjH/skAPvykY99klpf+dLnSQDU+sqXPg9A4iMf+yRf+dLnAZj0lS99no987JMAuOx/lQFwmctc9u+gWAA8PwDAZS77d/vKlz4PwFe+9HkSAE/kK1/6PAB7+8qXPs8kgMRXvvR5niyAxFe+9HkmAfw7feVLnwfg8XzlS58HYNJXvvR5ABJf+dLnqQWwt6986fMATPrKlz4PwN6+8qXPA+Cy/1UGwGUuc9m/g7UWAN/zAXCZy1zmMpf9LzEALnOZy/4d1FoAPN8HwGUuc5nLXPa/xAC4zGUu+3ew1gJgjIeIAOAyl7nMZS77X2EAXOYyl/27VCtlAHw/BYDLXOYyl7nsf4UBcJnLXPbvElYrAHiBD4DLXOYyl7nsf4UBcJnLXPbvUq2WAQj8AACXueyp+sjHPgnApI987JMA/Csf+dgnAfh3+sjHPgnA/5KPfOyTADyRj3zskwBM+sjHPgnAU/GRj30SAJf9rzEALnOZy/5dwmoZAM9PAeAylz0ZH/nYJ5n0lS99HoBn20c+9kmeLID/RR/52CcBeDZ85GOfZBLApI987JPUAnDZ/zID4DKXuezfpVKpABD4PgAuc9FHPvZJEgCTPvKxTzIJYNJXvvR5EgCP5yMf+yQAkz7ysU9SC+AjH/sktQAmfeVLn6cWwFe+9Hn2BWDSRz72SQD29pGPfRKAffnIxz4JQK2PfOyTTAKo9ZGPfZJJAJM+8rFPMglg0kc+9kkmAUz6ypc+z0c+9kkAan3kY59kbwCJj3zsk3zlS58HIPGRj32Sr3zp80wCqPWVL32eSQAu+19nAFzmMpf9u4RhGQDPTwHgMtd85GOf5Ctf+jyJj3zskwB85GOf5Ctf+jyTPvKxTwLweD7ysU8CMOkrX/o8H/nYJwGY9JUvfZ5JAF/50ueZBPB4PvKxT/KVL30egMRHPvZJAJ6Kr3zp83zkY58EoNZHPvZJAGp95GOf5Ctf+jyTPvKxTwKQ+MjHPslXvvR5Jn3kY58E4CMf+yRf+dLnmfSRj30SgI987JN85UufZ9JHPvZJACZ95UufByDxkY99kq986fPsDWBvH/nYJwH4ypc+z0c+9kkmfeVLnwfgyfjIxz5JLQCX/bczAC5zmcv+XaqVMgCeHwDgMpd85GOf5Ctf+jwAia986fMAPJGPfOyTJAA+8rFPAvDv8pGPfZKvfOnzAEz6ypc+z0c+9kkAan3kY5/kK1/6PAD78pUvfZ6PfOyTAEz6ypc+D8B/k4987JMAJD7ysU/ylS99HoCPfOyTAEz6yMc+SeIrX/o8kz7ysU+SAHg8H/nYJ/nKlz7PJICvfOnzALjsv50BcJnLXPbvUq1UAEinMgC4zEUf+dgnSQD8K1/50udJAHzlS58H4Kn4yMc+yVe+9Hk+8rFPAvB4PvKxTwLwkY99kr0BfORjnwQg8ZGPfZKvfOnzAPwv+sjHPslXvvR5AGp95UufByDxlS99HoBJX/nS50kAJD7ysU/ylS99ngRA4iMf+ySTAD7ysU/ylS99no987JMAuOx/jQFwmctc9u9SqRQBSGezALjMNR/52Cf5ypc+T+IjH/skAP/KRz72SQASH/nYJ/nKlz4PQK2vfOnzADyer3zp83zkY58EYF++8qXPUwvgK1/6PJMAJn3lS58H4F/5ypc+D8B/m6986fMAPF0f+dgn+cqXPg/A3r7ypc9TC8Bl/6sMgMtc5rJ/l2qljKolnckB4DLXfOVLnwfg6fjIxz7JV770eQD29pGPfRKAWh/52Cf5ypc+D8Az9ZUvfR6AJ+MjH/skAP+NPvKxTwKQ+MjHPslXvvR5PvKxTwLwr3zkY58k8ZUvfR6Aj3zskwA8WR/52Cf5ypc+D4DL/hcYAJe5zGX/TpVyiUwmB4DLXPZkfORjn+QrX/o8AF/50ucBmPSVL30egI987JN85UufB6DWV770eQAmfeVLnwdgXz7ysU9SC+AjH/sktQAez1e+9HkAPvKxT/KVL30egP82H/nYJ/nKlz4PwNPxlS99nsRHPvZJEl/50ucB2JePfOyTACS+8qXP85GPfZKvfOnzALjsf4UBcJnLXPbvVC4X8fyABIDLXPavfOVLnwfg8XzkY5/kK1/6PADPxFe+9HlqAXzlS5+nFsDj+cjHPkniK1/6PAD/bT7ysU/ylS99HoDERz72Sb7ypc8D8JUvfZ6PfOyTADyRj3zskyS+8qXPkwD4yMc+CUCtj3zsk3zlS58HIPGRj32Sr3zp83zkY58EwGX/KwyAy1zmsn+nSqUEQCaTA8BlrvjKlz7PRz72SSZ95UufB+ArX/o8H/nYJ5n0lS99HoAn8pGPfZLEV770eQD2l4987JMkvvKlz5MAeDwf+dgnAfjIxz4JQOIrX/o8H/nYJ5n0lS99HoDEV770eT7ysU8y6Stf+jwAX/nS5/nIxz7JpK986fMAfOVLn+cjH/skk77ypc8DkPjKlz4PQOIjH/skX/nS5wGY9JUvfZ6PfOyTAOztK1/6PABf+dLnSQB85GOfJPGVL30egEkf+dgn+cqXPg9A4iMf+yRf+dLnAfjKlz7PRz72SQBc9r/AALjMZS77d6qUigDU1TcC4DKXfOVLn2cSwKSvfOnzTAJ4PB/52CdJfOVLnycB8GR95GOfJAFQ6yMf+yR7A/jIxz7J3gA+8rFPMukrX/o8CYB/5Stf+jyTACZ95UufZxJAra986fNMApj0lS99nkkAk77ypc8zCWBvH/nYJ/nKlz4PwN6+8qXP85GPfRKAvX3kY5+k1le+9HkSALW+8qXPA5D4yMc+yVe+9HkAJn3lS5/nIx/7JAAu+29nAFzmMpf9O40M9QPQ2NIOgMtc9mR95UufB+ArX/o8CYDH85UvfR6AvX3lS59nEsCkr3zp8zxZAF/50ueZBPC/5Ctf+jwAj+crX/o8AImvfOnzACS+8qXPUwtgb1/50ucBmPSVL30egL195UufB8Bl/+0MgMtc5rJ/p/GxIeIopKmpHQCXucxlLnPZ/wID4DKXuezfbXiojyCVpq6+CQCXucxlLnPZfzsD4DKXuezfbWSoH4DGpjYAXOYyl7nMZf/tDIDLXOayf7ex0UEAGptbAXCZy1zmMpf9tzMALnOZy/7dSsUJChOjNDZ34PspAFzmMpe5zGX/zQyAy1zmsv+EsZFBjDE0NLUC4DKXucxlLvtvZgBc5jKX/SeMjQ4C0NzSAYDLXOYyl7nsv5kBcJnLXPafMDS4h0q5RFvHFFLpDAAuc5nLXOay/1YGwGUuc9l/go1jBvp24gcBbR1TAHCZy1zmMpf9tzIALnOZy/5TBvt3AtDeMQUAl/2vS2eyuMxlzwYxBgCX/TcwAC5zmcv+U8bHRhge3ENdQzMtbV0AuOx/VWNzO9NnLcJlT2T2vBXMXXAA02ctZvqsRbjsiahaAFy2vxkAl7nMZf9JA307AWjrmAKAy/4Xbd+yhgfvuRGX/Svl0gRBKs1jD93Gg/fciMv+FQCX7W8GwGUuc9l/0kD/LirlEu0dU8jl6gFwmctc5jKX/bcxAC5zmcv+k2wcM9C3E0Ro7egBwGUuc5nLXPbfxgC4zGUu+0/r79tBbGOmTJtLLl8PgMtc9v+RiAHAWguAy1z2v8AAuMxlLvtPK4yPsmvbBjzfp2f6XABc5rL/jzzPByCOIgBc5rL/BQbAZS5z2f6wc9sGCoUxOrum09zaCYDLXPb/jecHxFEEgMtc9r/CALjMZS7bH+I4Yue2DQBMmT4XAJe57P8bz/OJ4ggAl7nsf4UBcJnLXLa/9PduZ7B/N41NbXRPmQWAy1z2/4nne9goBMBlLvtfYQBc5jKX7U87t21AVemZNpsgSAPgMpf9f+AHAcZ4RHEIgMtc9r/CALjMZS7bn8bHhti1bQOZbB0z5y0FwGUu+/8gl28AoFIuA+Ayl/2vMAAuc5nL9retm9cwOjxAR+dUZs9fDoDLXPa/LperB6AwMQqAy1z2v8IAuMxlLtvfVC3rVt9PqVSge8osps9aBIDLXPa/LJuvA6AwMQqAy1z2v8IAuMxlLvtvUK2UWPfYvagq02bOp71zKgAuc9n/qny+AYDCxCgALnPZ/woD4DKXuey/xcT4CKsfuRuA+YsPIputA8BlLvtfI8ZQ39hCpVyiWikD4DKX/a8wAC5zmcv+mwwP9rJ+zYMAHHj4SRhjAHCZy/6XNDV3YIzHYP9OAFzmsv8lBsBlLnPZf5u+3VvZumk1AEcc9zyyuToAXOay/xWt7d0ADA70AuAyl/0vMQAuc5nL/hvt2LqOdavvB+DAw06iqaUDAJe57L+dILS2dRNHEWMjQwC4zGX/SwyAy1zmsv9W/b3beeT+WwBYsuIIunpmAOAyl/03a+3oxg8ChgZ2AwqAy1z2v8QAuMxlLvtvNjY6xAN3X09YrTBnwUpmzF4MgMtc9t8IhGkzFwKwe+cWAFzmsv81BsBlLnPZf7tiYZwH772J0eF+ps6Yx/zFB5HJ5ABwmcv+m7S0dZLL1zM63M/42BAALnPZ/xoD4DKXuex/QbVSYs0jdzM0sJv2zqksPeBoOrtnAOAyl/23mD5rAQBbN60BwGUu+19kAFzmMpf9r4jiiNWP3M22zWtIZTLMXbiS+YsPIpurA8BlLtufunpmkq9rYmS4n/GxIQBc5rL/RQbAZS5z2f+a7VvW8uj9tzEy1Ed751SWHXA0XVNmAuAyl+0P+bpGZs9fhrUxm9c/AoDLXPa/ygC4zGUu+180NjrIYw/dwZaNq/B8nznzV7Bw6SHk6xoBcJnL/lM8z2fRskMRMaxffT/FwjgALnPZ/yoD4DKXuex/2c5t63n0gVsZGuiltb2HZQccydQZC/CDAACXuezfbf7ig0hncvT1bmegbxcALnPZ/zID4DKXuex/3fjYCKsfuYvNGx4lji0zZi9kxUHH0TNtDmIMAC5z2b/D7LlLaWnrolgYZ+PahwBwmcv+1xkAl7nMZf9f7Nq+kYfvu4ntW9bh+wGz5i5lxUHH0dkzAwCXuezZNGPOIrqnzaFaKfHYQ3dgbQyAy1z2v84AuMxlLvv/pFIps23zah669yZ2bNtAJpNj7oKVLDvwGNo7pwLgMpc9U9NmLmDq9PlUK2Ueuf9WqpUSAC5z2f8HBsBlLnPZ/0flcpGtGx/joftuYvf2TdTVNzJ/8UEsXnE4LW1dALjMZU9H97Q5TJ+1kDCs8MiDt1IuFwFwmcv+vzAALnOZy/4/KxUn2LThER6692Z6d26hqbmDRcsOY9mBx9A1dRa+nwLAZS57MmbOWczsuUuJwpBHH7iNcrEAgMtc9v+JAXCZy1zmgmJhjI3rHuLh+25m945N5PP1zJm3nJWHnsDMOUvI1zcC4DKX7YsYw8KlhzJl+jwqlTIP338zxcI4AC5z2f83BsBlLnOZSybGR9i0/hEeuOdGtm5ag8YRU6bPZeXBx7NgycG0tHUD4DKXTfL9FMtXHk1rezfFwjgP3XsjpeIEAC5z2f9HBsBlLnOZiyrlIju2ruWBe25k49qHGB8bpq1jCouWHcryg46le9psUqk0AC5zUTqTZcXBx1HX2MzYyCAP338zYbUCgMtc9v+VAXDZk5HN1nHk8c/jsGPOZFJDYysAhx1zJocf8xwOO+ZMDj/2ORx5/FkAuMxl/wusjendtYWH77uZNY/dw9BAL/UNzcyeu4yVh5zI3AUraW7tAsBl/58cefxZAOxLU3M7Kw8+nkw2x0D/Th598HbiKALAZS77/8wAuOzJKJUmAMH3AyaJCAC+H+D5Pr4fIGLo790GgMtc9r9msG8Xqx+5i0ceuJW+3VsxxtDZM4PFyw/jgENPYPqshdTVNwHgsv9l8xYdAMC+TJk+j8Urj8DzA7ZsfIy1j96LqgXAZS77/84AuOzJGhsZAOCJiAjbtqwFwGUu+181NjLI+jUPcv/d17Fx3UOMDPWRyzcwbeYCVhx8HEtWHEHXlJmk0hkAXPa/JJ3J0d45DRHhqOOfB0DCeD4Llx7KzDmLCSsVHrn/FnZu2wCAy1zmCgPgsidr66bVWLUA7Iu1lr7e7VTKJQBc5rL/ddVKmd6dW3jsoTt46N6b2L5lLcXCGE0tHcyZv4IDDz2J+YsPor1zKn4QAOCy/3bTZs4HFADEcPixzyGbzbPy4ONobe9mdLifB+65nvGxYQBc5jKXGACXPVnjY8NMjI0AsC+osmXjYwC4zGX/30yMj7Bt8xoeuPsGVj18F3t2bcVaS3vnVOYvPoiDDjuF+YsPor1zKn4QAOCy/zapdIaOrumIGAASnudz4OEnk83VsW3zGh598HaiMATAZS5zjQFw2VOxddMqrLUA1LLWsnvXZqKwCoDLXPb/2fBgLxvWPsj9d1/LulX30de7HVVLe+dU5i8+iIMOO4X5iw+ivXMqfhAA4LL/BjNmLQJgXx554Fa2b1kLgMtc5ioD4LKnYmxkkOLEGAC1RISd2zYA4DKXuSIKQ/r37GD96vu5785rWfvYPezZtZXYxrR3TmX+4oM46LBTmL/4INo7pxIEaQBctj/k8g20d05FRADY29IVRwLgMpe5zAC47KnasPZBbBwDkFBr6d25mbBaAcBlLnNRHEcM9O1iw9oHuf/Oa1jzyN3s3rmZKA5p75zK/MUHcdARJ7No2aF0T51FNlcHgMv+U2bOWQQiAOyLGMMRxz4PAJe5zFUGwGVPVWFilNGRQQASiLBj23oAXOYyl02y1jI4sJtN6x7m/juuYdXDd7J7+ybKpQItbd3MnrecAw87iWUHHM20mQuob2wBwGX/Lrl8PU0tnYgIAI/HeIYjjz8LAJe5zEUGwGVPx9ZNj6FqSfT1bqNaKQPgMpe5bF8UGB7cw6YNj/DgPTeS2LThEYYGdpOva2D6rIUsP/AYDjj0BGbPXUZzaxfGGACeiiOOfx7zFh2IiADgslrTZy9CAIC9qVqiKETVAhCGIQAuc5mLDIDLno7CxBhjI4OAsH3LWgBc5jKXPVmFiVF2b9/E6kfu5p47rmH1I3eze/smVJXuabNZvPwwDjr8FOYvOpCO7hnk8vUAPJEjjj8LI4bW9m4WLTsUEQOAyxLZXB2tbd0gQhzHhGEVVKmUC4yPDdO7cwsb1zzEPbdfzW03/JN7brsCAJe5zEUG4D+lvXMKhx11Bv8f5PONxGHIyoOO57CjzuB/3eLlhwPgMpf9p8RRyNDAbjZteIQH77mRxKYNjzAxPkxLWxfzFq7kgENP5IBDT2DOghV0dE/H9wIAamkcA+B5Pg3N7Sw98CiM8QCYlMnlOeyoM3DJ8gOOwcYxcRSBKgYhCkM8E5DN5GnvmMqc+cs58JATOeyoM9iX+YsPAsBlLvv/zgD8J40M9/PYI3fgsv82WzY9BoDLXLY/FSZG2b19E6sfuZt77riG1Y/eza4dmwDo6pnJvIUHcNixZ7Ly4OOZM38FTS0dAHi+D0DCMx51+UZWHHwcnh8AMKlaLfPYI3fgkkcevJVHH7qNxKMP385jj9zBk7V961oAXOYyFxiA/zS1Fpf9twFwmcv+m8RRyFD/bjavf4QH7r6BB++5gS0bH2N4aA/ZfB1dU2ayZMURHHXC2QDUMp5HNlfHyoOPJxWkAZik1uKypwLAZS5zhQFwmctc5rL/FYWJMXZu28Cqh+7kjpsuZdXDd9K7awsA+yIiZLI5Vh56AulMFgCXucxlLnsyDIDLXOYyl/2vGh7cw8a1D6GqADyeIJXmgMNOoqmlAwCXucxlLvtXDIDLXOYyl/2vExEAnohnPObMWwaAy1zmMpf9KwbAZS5zmcv+lx15wlkA7E01JgpD1FqiKGR4qI8dWzcA4DKXucxl/4oBcJnLXOay/2UgWBsTRVVUlXKpSN/ubezYuoGN6x/ivruu465bLmfVQ3ewp3crAC5zmctc9q8YAJe5zGUu+192+w3/ZOf2Dax97D7uuuVy7rvzGtaveYBtm9cwsGcnlXIRAJe5zGUueyoMgMtc5jKX/a/btmkNI0N9xHEEgMtc5jKXPVMG4L/ZRz72SQCeio987JMA/Csf+dgnAaj1kY99EoCPfOyTAOzLRz72SQA+8rFPsjeAJ/KRj30SgMfzkY99EoBJH/nYJwF4Mj7ysU8C4DKXuezZ8JGPfRKAffnIxz4JwBP5yMc+CcCz5SMf+yQAkz7ysU8CkPjIxz4JwOP5yMc+CcBHPvZJ9gbgMpe5bJIB+P/mK1/6PB/52CcBeLq+8qXP85GPfRKAxEc+9kkmfeVLnwcg8ZUvfZ5JAPvLRz72Sb7ypc8D8JGPfZK9AbjMZS57sj7ysU/ylS99no987JMAPJGPfOyTTAL4yMc+SQLgIx/7JJMA9vaRj32SxwNQ6ytf+jwf+dgnAXgyPvKxTzLpK1/6PACJr3zp80wCcJnLXFbLAPw3+cjHPkktgI987JPsC8Dj+cqXPg/A4/nIxz7JV770eQD29pGPfZIEwKSvfOnzJAD+23zkY5/kK1/6PACJr3zp8+wNwGUuc9mT8ZGPfZKvfOnzAHzlS5/nIx/7JACJj3zskwDU+sqXPk8CIPGVL32eBMBXvvR5EgD78pUvfZ69AXzlS58HYG9f+dLnAfjIxz4JwEc+9kkSAB/52CcBmPSVL32eBIDLXOayJ8sA/Df5ypc+zySAr3zp8zwegEkf+dgn+VcAEh/52Cf5ypc+D8BHPvZJAD7ysU+SAPjKlz7PJIAn8pGPfZJJAHv7yMc+SS2Aj3zsk9QCSHzkY58E4CMf+yQAH/nYJwH4yMc+ySSAWh/52Cf5ypc+D8BHPvZJAFzmMpc9XR/52Cf5ypc+D8Ckr3zp83zkY58E4PF85GOf5Ctf+jwf+dgnmQTwkY99kgTARz72SQCeyEc+9km+8qXPA/BEvvKlzwPwlS99ngTAV770eQD+lY987JNMAnCZy1xWywD8r/jIxz4JwL585UufpxbAV770eWoBTPrIxz5J4itf+jwAX/nS50kA7MtHPvZJEgAf+dgnAfjKlz7P3gD29pUvfZ5JAF/50ueZBDDpK1/6PABf+dLnAfjKlz4PwFe+9HkSAHv7ypc+D8BHPvZJvvKlz/ORj32SxwPgMpe57Il85Uuf5yMf+yR7+8qXPg/AvnzkY5/kK1/6PABf+dLnmQTwlS99ngTAV770eQAez0c+9km+8qXPA7C3j3zsk0wCeDI+8rFPkgD4yMc+CcBXvvR59gbgMpe5bJIB+G/0kY99kq986fMAPNu+8qXPkwDYl4987JNMAkh85UufJwHwlS99HoCPfOyT7A3gP+0jH/skAImvfOnz1AL4ypc+TwLAZS5z2ZPxlS99nkkA/8pHPvZJEgAf+dgnSQB85GOfJAHwTHzlS58nAfBkfeVLnycB8JUvfR6Aj3zsk+wNwGUuc9kkA/Df5iMf+yQA/04f+dgn+cqXPg9A4iMf+yQJgK986fNMApj0kY99EoCPfOyTAHzlS58nAfCVL32eBMAz9ZGPfRKAj3zskwA8kY987JN85UufB8BlLnPZ/vCVL32eBEDiK1/6PAmAr3zp80wCmPSRj32SvQF85GOfZG8AtT7ysU+SAPjIxz5JAuAjH/skCYBJH/nYJwH4yMc+CcBXvvR5EgBf+dLnSQC4zGUum2QA/pt85GOf5Ctf+jwAkz7ysU+SAPjIxz5JAqDWRz72SWoBfORjn6QWQOIjH/skAB/52CdJAHzlS58nAZD4yMc+CcC+fOVLn+cjH/skAE/GRz72SSYBfORjn2QSwKSPfOyTAHzlS58H4Ctf+jwAT+QrX/o8AC5zmcv+W3zkY58kAfCRj32SSQCTvvKlz7M3gK986fPsDaDWV770eRIAX/nS50kAfOVLnycBsLevfOnzfORjnwTAZS5z2RMxAP9NvvKlzwNQ6ytf+jwJgK986fMkAGp95UufpxbAV770eWoBJL7ypc9TC6DWRz72Sb7ypc8DMOkjH/skX/nS5wFIfOVLn+cjH/skCYCPfOyTJAD29pUvfZ5JAF/50ueZBDDpK1/6PACTPvKxT/KVL32ej3zskwC4zGUu+0/6yMc+SeIrX/o8AI/nIx/7JACTvvKlz5MA+MqXPs8kgP+kj3zsk3zlS58HIPGVL32ej3zskyQAPvKxT5IAcJnLXDbJALjqIx/7JAmAWl/50ucB+MjHPglA4itf+jwAtb7ypc+TAPjKlz5PAqDWV770eQAez1e+9HkAnoqPfOyTALjMZS77d/rKlz5PAuAjH/skAF/50ucBqPWVL32ej3zsk3zlS5/nIx/7JJMAPvKxT1IL4NnwkY99kq986fMAPJ6vfOnzANT6ypc+TwLgK1/6PAkAl7nMZZMMgGs+8rFPkvjKlz5PAiDxkY99kq986fN85GOfBGB/+sjHPslXvvR5AL7ypc8D8JUvfZ6PfOyTALjMZS77b/ORj32Sr3zp80wC+MqXPk8tgKfrIx/7JF/50uf5yMc+yVe+9HkAJn3lS58HwGUuc9kzZQD+m33kY59kEsBHPvZJJgEkPvKxT7I3gI987JPsDeArX/o8CYDERz72SRJf+dLnAfjKlz7PRz72SQAez0c+9kkmAXzkY59kEsDT8ZGPfRKAj3zsk3zlS58HYG9f+dLnAfhXPvKxT5IAcJnLXPZUfOVLn+cjH/sktQAmfeRjnwRg0kc+9km+8qXPk/jIxz7JJICPfOyT1ALY20c+9kkSAI/nIx/7JF/50ucB+MqXPs9HPvZJHg/AvnzkY59kEsBHPvZJJgG4zGUuSxiA/0Zf+dLnAfjKlz7P4wFIfOVLn+fJAtjbV770eRIAk77ypc+TAKj1lS99HoCvfOnzPB6Ax/OVL30egH35ypc+zySAx/OVL30egFpf+dLnAZj0lS99nkkALnOZy56Kr3zp8+wNIPGVL32eBEDiK1/6PACJr3zp8zwRgL195UufZxLAvnzlS58HYNJXvvR5Hg9Ara986fMAfOVLn+fxALjMZS5LGACXucxlLnOZy1zmMpftiwFwmctc5jKXucxlLnPZvhgAl7nMZS5zmctc5jKX7YsBcJnLXOYyl7nMZS5z2b4YAJe5zGUuc5nLXOYyl+2LAXCZy1zmMpe5zGUuc9m+GACXucxlLnOZy1zmMpftiwFwmctc5jIX5PL1TJ+1CBEBwGVPVV1dI+2dUwFwmcv+PzMALnOZy1z2/1U6k2PGnCUcetTpHHDoibR3TMEYA4DLnqpUOsv8xQdx1Alns2DJITQ1twPgMpf9f2MA/tNa23tw2X+bdCYHgMtc9r/M91NMnT6f5Qcdy8FHnMLU6XMRz7Bn11bWrbqPOI5pbe/BZU+FH6QYHtrDxrUPMTY6SFtHD0tWHsmRxz+PmXMW09DYBoDLXPb/gQH4T6pWSnjG439dz5TZJAI/hWc8/teVCuMAuMxl/0sEob1zKguWHMKhx5zBjDmLqG9oZmSojw1rHuSeW69kw9oHGR8fZmSoD894uOypqpZL9O7awiP338qD99zI9i3rqFTKTJk+j2UHHsWBh57I9FkLqW9oBsBlLvtfZQD+U/r37GTzxsf4/8ALAhLbt6xl88bH+P8AwGUu+1/Q0NjKrLlLOfCIk5m/+CDaOnooFcbYvnUtD9x9PY89dAd7dm/FWgtAuVhg88bHcNnTBZAoTIyybfNq7rvjGlY/cjf9vdvJ5PJMm7mA5QcdS2Lq9Plks3UAuMxl/0sMgMtc5jKX/S/JZPNMmT6XZQcew7IDj6Zn2hw847Nn11ZWPXwXD9x9A9s2raFYGAfAZf9uQwO7Wbf6fu6981o2bXiEsdEB6huamTFnEQccdiILlxxCe8dUjDEAuMxl/+0MgMtc5jKX/bcznkd751QWLDmEAw87iZlzltDQ2MLwYB8b1z7IA/dcx4a1DzI82AuAy/aHarnE7u2beOT+23jk/lvZtX0j1UqJ1o4e5i85iAMPO4lZc5fS0NQKgMtc9t/KALjMZS5z2X+rxuZ2Zs1bxkGHnsT8xQfR1tFDuVhg+5Z1PHTvTax6+A56d20lrFYBcNl/i7HRQTZveJT777qedavuY7B/N+lMlp5pc1h2wNEkeqbNJp3JAuAyl/03MQAue7pGhvoAcJnLXPZsyuXqmTp9PisOOpalK4+kZ+psvCCgv3c7qx+5m/vvvo5tm1czMT4CgMv+m1kb079nB2sevZv777qerZtWMTE+QkNTK7PmLuPAQ09k3uKDaG3vBsBlLvtvYABc5jKXuey/QWtHDwuWHMIBh53IjDmLqGtoZnRkkM3rH+X+u65n3er7GRrYDYDL/heVihPs2Lqeh+69icceuoPeXVuI45iOzqksXHooBx56ItNnLSSXbwDAZS7bXwyAy1zmMpftL9lsnmkzF7Dy0BNYuOQQ2jp6qFRK7Ny+gUfuv4VHH7iVXTs2Uq2UAHDZ/xcjQ31sXPsQ9999HRvWPsjw4B6y+XqmzVzAAYeewMKlh9LeORURA4DLXPafZABc5jKXuew/raWti/mLD+KAw05k+qyF5PMNDA/2sWHNA9x/1/Vs2fAYY6NDALjs/7MoDNmzayurHr6Th++7mZ3bN1CtlGht72b+4oM48NATmTF7Mfm6RgBc5rL/BAPgMpe5zGX/CZlMjinT57Hi4ONYtOww2junEoZVdm3fyMP33cyqh+9gz+5t2DgCwGWuGR8bZsuGx7j/7uvZsPZBRob6yOTyTJ0xj5WHHM+iZYfT0TUNYzwAXOayfxcD4DKXucxl/06NTW3MW7iSAw47kZlzFlNX38To8AAb1z7E/Xddz+YNjzI+NgyAy1w2KY4i9uzaymMP3cEj99/Crh2bCKsVWto6mbfoQA487ESmz1pEJpcHwGUue7YZAJe5zGUu+3do65jC4uWHsfSAo+jonkEcR+zesZlH7r+VRx+8jd5dW4ijEACXueyJjI0OsXn9I9x/9/VsWvcwo8MDpDM5ps2czwGHnMDs+cupa2gGwGUue7YYAJe5zGUue7b4foqeqXNYcfBxLFhyMM2tXYyPDbN5/SM8eNcNbFr/MGOjgwC4zGVPVRRW2b1zM48+eBuPPXg7e3ZtRa3SPWUWKw46lgVLDqa5pQMAl7nsmTIALnOZy1z2TOVy9cyYvYgDDj2eWfOWkq9rpG/PDlY9fCcP33czu3ZsohpWAHCZy54NI8P9bFj7IA/ccwNbNq6iMD5KW8cUFq84giUrjqC9cyoALnPZ02UAXOYyl7ns6apraGbugpWsPPR4ps6YTxzHbNu8hgfuvp71q+5jeHAPAC5z2b9LpVxk57b1PHjvjax57B4G+3bR1NLB/MUHseLg4+ieMgsRA4DLXPZUGACXucxlLnuqGhpbmb/oQFYcdCydPTMYGepn/ar7eODu69m+ZS2l4gQALnPZf9Jg3y7WPHYPD957Izu3rSeVyjB7/nJWHnIc3dNm43k+AC5z2ZNhAFzmMpe57MlqamlnwZKDWXbg0bR3TWNoYA+rH7mLVQ/fSd+eHagqAC5z2f5UGB9ly8ZVPHTfTWzbvAbfTzF77jJWHnw8U6bPIwhSALjMZU/EALjMZS5z2b/S0tbFomWHsmTFkbR1TGFoYA+rH7mL1Y/cydBALwAuc9l/m2qlzPYta3novpvYtnkNxvOYOWcxKw4+nmkzFxCk0gC4zGX7YgBc5jKXuezx5Osambf4IBYtO4yWtm6GBvaw+pG7WP3InQwN9ALgMpf9t6tWymzfspaH7ruJbZvXICJMn7WQFQcdR8+0OYgIAC5zWS0D4DKXucxlewuCNDPmLGL5QcfQ0TmVkeF+Vj9yF6sfuZOhgV4AXOay/zXVSpntW9by0H03sX3LOnw/YNbcpaw4+Fg6uqYB4DKXTTIALnOZy1xWq2vKLJYddAxTp8+nVBxn/er7eezB2xka6AXAZS77X1etlNm2eTUP338zu3duJl/XxLxFB7Jk5ZG0tHUB4DKXGQCXucxlLksEQYp5iw5gzvzlGDFs3vAoD917M3292wFwmcv+vykWxtm07mEeuf8WBvp20dTczqJlhzFzzmIAXOYqA+Ayl7nMZY1Nbaw85AQ6uqbTu2MzD913E7u2b0RVAXCZy/4/GxsdYu1j97Dm0bsJqxWmTJ/HsgOPwvN9AFzmGgPgMpe5zFXTZi5g6QFHkUpnWL/6fjauf5iwWgHAZS5zyWD/bh578HYmxkdoaGzjsKPPpKmlAwCXucQAuMxlLnPRIUeexvRZC4njiAfuvoG+3u0AuMxlrioUxnjo3psY7N+NiLBkxRFMm7kAAJe5wgC4zGUuc80hR55GKp1hbHSIO2++jGJhDACXucxlk9Y8ejfrVz8AwPRZC2lu7QTAZS4wAC5zmctcsuzAo0mlMxQL4zxy/y0AuMxlLtuXvt5tPPrAbQAsXn44DU2tALjs/zsD4DKXucwV8xcdSENjK8XCOA/cfT0ALnOZy57I6MgAqx+5G4ClK4+irr4RAJf9f2YAXOYyl7lg2swFtHdNo1gY59EHbwPAZS5z2ZMxNLCbjWsfQkSYt/ggUukMAC77/8oAuMxlLvv/LpXO0NUzk2qlzJrH7iGsVgBwmctc9mT17trCts1ryOXq6eyeAYDL/r8yAC5zmcv+v+vsnkEqnaF31xZKhXEAXOYylz1Ve3ZvpVop09Uzk1Q6A4DL/j8yAC5zmcv+P0ulM3T1zKRaKbNn91YAXOYylz0d1UqZ3l1bSKUzdHbPAMBl/x8ZAJe5zGX/n3V2zyCVztC7awvVShkAl7nMZU/Xnt1bqVbKdPXMJJXOAOCy/28MgMueLGMMtUAAMGIwxlALwGUu+08zxrC31vYurLX0927HGMMkAJe5zGVPhjGGSVFYZc/uraTSGZqa2jHGUMsPUgC47H+ZAXDZk2GMx+HHPo8jjnsek5pa2gE46KhTOeK45zHp0KPPBMBlLvtPO+K457G3fF0TxhgOOuIUjjjueUwCcJnLXPZkZDJ5jjjueUyaNnMBAPMWH8gRxz2PWrlcHQAu+19mAFz2ZFgbAxaAJxLHETu2rgPAZS77TysWxgD4VyYmRgFwmctc9mQUi+OotQA8kTiOGRsdAsBl/8sMgMuerD27tmGtBeDxqCq7d2wCwGUu+0/bsvExrLUAPB5rYzavewQAl7nMZU/W+NgwAE+kWikB4LL/dQbAZU/W9q3rEAGAfbFxzJYNjxLHEQAuc9l/2vBgH5VyEYDHMzY6xNjoIAAuc5nLnqytm1ahNgZgX6yN2bD2QQBc9r/OALjsyapWSvT17sTaGIC9WY3p690BgMtctr9s2bgKa2MA9qaqbNn4GAAuc5nLnoqx0SEKhTEA9qVUKjA2MgiAy/7XGQCXPRU7tq5FxABQy9qIbZvXoGoBcJnL9pehgV6qlTIAexsfG6IwPgqAy1zmsqdq68bVWGsBqGVtzNYNjwHgsv8PDIDLnopyqUD/nu1YtQBMUgt7dm0DwGUu259A2bppFdbGAEyyatmyYRUALnOZy56OkeF+SoUxAGqVSyWGh/oAcNn/BwbAZU/Vlg2rEAAgYeOIrVvWYG0MgMtctr8N9O2iVJgAYFJhfJTxsSEAXOYylz1d69c8iKoFIBHHMVs3PQaAy/6/MAAue6rCsMLuHZux1gKgCnt2bgHAZS77b7F546NYawGwNmbrxlUAuMxlLnsmChOjjI4MApAIq2WGBvYA4LL/LwyAy56OHdvWIwI2jtmxbR3WxgC4zGX/LUaHBygVJwAoFicYHRkAwGUuc9kztXXjKtRa4jhm68bVgALgsv8vDMB/m/qGZv6bZTI5hgb2ADA+Nkx9QzP/7QBcVN/QjEv6ercC0L97O/UNzbgEwGXPtmy+jvqGZlwkIhQL48RRSLVaor6hGVcB/H9iAP7bzF90IDPnLuG/WZBKMTExwvRZC5k5dwn/zcQYAFzU1t7DzLlLcEVrew9jo4O0dnQzc+4SXNHU0gmAy/4d5sxfwcy5S3BRbCPK5QIz5ixm5twluEjEAPD/iQH4b7R981o2rXsYlz0b1CoALhsdHmDTuodx2f9nE2PDALjs32nTuodxmavUKgD/3xgAl7nMZS5zmctc5jKX7YsBcJnLXOYyl7nMZS5z2b4YAJe5zGUuc5nLXOYyl+2LAXCZy1zmMpe5zGUuc9m+GACXucxlLnOZy1zmMpftiwFwmctc5jKXucxlLnPZvhgAl7nMZS5zmctc5jKX7YsBcJnLXOYyl7nMZS5z2b4YgP8vPvKxTwLwVHzkY58E4CMf+yQA/ykf+dgnAfhXPvKxTwJQ6yMf+yQALtvfPvKxTwIw6SMf+yQAiY987JMAPJ6PfOyTAHzkY59kbwBP5CMf+yQAT8VHPvZJAD7ysU8C8J/ykY99EoAn4yMf+yQAtT7ysU8C4LL/NR/52CcBeDI+8rFPAlDrIx/7JAAf+dgnAdiXj3zskwB85GOfZG8AtT7ysU8CsLePfOyTAOzLRz72SQBqfeRjnwRgXz7ysU8CUOsjH/skAP/KRz72SR4PwOP5yMc+CcCT9ZGPfRIAl00yAP/LPvKxTwLwTH3lS5/nIx/7JAD/CV/50uf5yMc+CcCT8ZGPfRIAl/27feRjn+TxANT6ypc+z0c+9kkAnoyPfOyTTPrKlz4PQOIrX/o8kwD25SMf+yQAz9RXvvR5PvKxTwLwn/CVL32ej3zskwA8WR/52CcBcNn/sq986fN85GOfBOCZ+MqXPs9HPvZJABIf+dgnmfSVL30egMRXvvR5JgE8kY987JMAPBUf+dgnSQB85GOfJAHwdH3kY59kEkDiK1/6PAmAr3zp8yQAHs9HPvZJvvKlz/ORj30SgH/lIx/7JF/50uf5yMc+CYDLEgbAFR/52CfZG8BHPvZJEgAf+dgnAfjIxz7J3gA+8rFPUgsg8ZGPfZK9AUz6yMc+yd4APvKxT7I3gMRHPvZJvvKlzwPgsv+Ur3zp8+wN4Ctf+jwAe/vKlz4PwEc+9kkAPvKxT5IA+MjHPgnApK986fMkAP6dPvKxT7I3gI987JMkAD7ysU8C8JGPfZK9AXzkY5+kFsCkj3zsk+wNIPGRj32SvQF85GOfZG8Akz7ysU/ylS99HgCX/X/xlS99HoAn8pGPfZKvfOnzAOztIx/7JAmASV/50udJADxZH/nYJ/nKlz4PwKSPfOyTAEz6yMc+CcCkj3zsk3zlS58HIPGVL32eBMBXvvR5EgB7+8jHPskkgMfzlS99HoCvfOnzADxVH/nYJ/nKlz4PwFe+9Hk+8rFPAvB4PvKxT/KVL30egK986fN85GOfBMBlBuB/3Uc+9kkSAB/52CepBVDrK1/6PLUAvvKlz1ML4Ctf+jwAX/nS55n0kY99kq986fMAfOVLnyfxkY99EoCvfOnzAHzlS59n0kc+9kkAEl/50udJAHzlS59nbwBf+dLnSQDsy0c+9kkSAB/52CeZBOCyf5ePfOyTfOVLnwfgiXzlS58H4Ctf+jwJgK986fMA/Csf+dgnmQTweD7ysU+SAPjIxz5JLYBaX/nS56kF8JUvfZ5aAF/50ucB+MqXPs+kj3zsk3zlS58H4Ctf+jyJj3zskwAkvvKlzwPwlS99nkkf+dgnAfjKlz5PAuArX/o8ewP4ypc+TwLg8XzkY58kAfCRj32SSQAu+2/1kY99kn8FYNJHPvZJvvKlzwPwkY99EoCPfOyTJAC+8qXPMwngiXzkY59kEsCkj3zsk3zlS58H4CMf+yQAia986fN85GOfBOAjH/skX/nS5wFIfORjn+QrX/o8AB/52CcB+MjHPkkC4CMf+ySTAGp95UufJwEw6SMf+yQA/8pHPvZJEgAf+dgnSQDs7SMf+yRf+dLnAZj0lS99no987JMA7O0jH/skX/nS5wGY9JUvfZ6PfOyTALjKAPyv+sjHPslXvvR5JgF85UufpxbAv9NXvvR5PvKxTwLwbPrIxz4JQOIjH/skX/nS55kE8JUvfZ5JAC77d/jIxz7JV770eQD29pGPfZJJAE/GRz72SRIAH/nYJwH4ypc+z94Aan3kY5/kK1/6PJMAvvKlz1ML4N/pK1/6PB/52CcBeLZ95GOfBCDxkY99kq986fNMAvjKlz7PJACX/bf6ypc+Ty2Ar3zp89QCqPWRj32SxFe+9HkAvvKlz5MA2JePfOyTJAA+8rFPAvCVL32evQFM+sjHPkniK1/6PACTvvKlzwPwlS99HoBaH/nYJ0l85UufB+ArX/o8ewOY9JGPfZKvfOnzAOztK1/6PB/52CcBeCJf+dLnSQB85UufJwEw6SMf+ySJr3zp83zkY59kb1/50uf5yMc+SQLgIx/7JImvfOnzAHzkY58EYNJXvvR5PvKxT5IAcI0B+F/0kY99kq986fMAPBUf+dgnmQRQ6yMf+yQAtT7ysU8y6Stf+jwAz8RXvvR5PvKxTwIw6SMf+yRf+dLnAZj0lS99HoDEV770eQBc9t/kK1/6PAmAJ+srX/o8CYCvfOnzAHzkY59kbwCTPvKxT/KVL30egKfiIx/7JJMAan3kY58EoNZHPvZJJn3lS58H4Jn4ypc+z0c+9kkAJn3kY5/kK1/6PAC1vvKlzwOQ+MqXPg+Ay1zwlS99ngTAvnzkY59kEkDiK1/6PAmAr3zp8wB85GOfZG8Aia986fMkAGp95GOfJAHwkY99kgRA4itf+jwJgFof+dgnAfjIxz4JwFe+9HkAnoyvfOnzfORjnwQg8ZGPfRKAj3zskwA8GV/50udJAHzlS59nbwBf+dLnSQB85UufJwGQ+MqXPs9HPvZJACZ95UufJwHgGgPwv+grX/o8AE/VV770eRIAT8ZXvvR5AL7ypc8D8K985GOfZNJXvvR5AFz2v+AjH/skewP4yMc+yd4Aan3kY58kAfCRj32SBMBHPvZJEgCTPvKxTwLwkY99EoCvfOnzJAC+8qXPkwCY9JUvfR6Ap+orX/o8CYAn4ytf+jwAX/nS5wF4Mj7ysU8y6Stf+jwALnPZ0/GRj32Sr3zp8wAkPvKxT5IA+MqXPs8kgEkf+dgnAfjIxz4JwFe+9HkSAF/50udJAEz6yMc+yVe+9HkAJn3lS58nAfCVL32eBMCkj3zsk3zlS58HIPGRj32Sr3zp83zkY58EoNZHPvZJvvKlz/ORj30SgI987JN85UufB+DxfOVLnwfgK1/6PACJj3zskyQAPvKxT5IAqPWRj32SWgAf+dgnqQUw6SMf+yS1AD7ysU8yCcBVBuB/2Uc+9kkmAXzkY59kEsCT9ZGPfZKvfOnzAOztK1/6PB/52CcB+Fe+8qXPM+kjH/skAHv7ypc+z0c+9kkAPvKxT/KVL30egMfzkY99kloAH/nYJ5kE4LJn6itf+jx7A/jKlz7P3gBqfeVLnycB8JUvfZ4EwFe+9HkSAHv7ypc+z0c+9kkAnoyPfOyTTAL4yMc+ySSAJ+sjH/skX/nS5wHY21e+9Hk+8rFPAvBkfOVLn2fSRz72SQBqfeVLn+cjH/skAB/52Cf5ypc+D8AT+cjHPkktgI987JNMAnDZf6uPfOyT1AL4yMc+SS2ASR/52CcB+MjHPkkC4Ctf+jwJgMRHPvZJAPblK1/6PB/52CcBeDwf+dgnAfjIxz5JAmDSRz72SQA+8rFPAjDpIx/7JAAf+dgnSQB85Uuf5yMf+yRf+dLnAaj1lS99HoB/5Stf+jwA+/KVL32eSQBf+dLnmQRQ6ytf+jwJgElf+dLnSQDU+sqXPs/jAXCZAfhf9pUvfZ5JAF/50ueZBPCvfOVLn+cjH/skX/nS5wH4yMc+CcC/21e+9Hk+8rFP8pUvfR6AJ/KVL32eWgBf+dLnmQTgsv8FH/nYJ/nKlz4PQOIrX/o8H/nYJ0kAfORjnyQBsLevfOnzTAL4ypc+zySAf+UrX/o8H/nYJ/nKlz4PwEc+9kkA/t2+8qXP85GPfZKvfOnzAPwrX/nS56kF8JUvfZ5JAC77b/WVL32eWgBf+dLnqQUw6Stf+jy1AGp95GOf5Ctf+jwAkz7ysU/ylS99HoDEV770eT7ysU+SAPjIxz5JAiDxlS99nloAiY987JN85UufB+ArX/o8H/nYJwFIfOVLn6fWRz72SRIAH/nYJwH4yMc+SQJg0le+9Hk+8rFP8pUvfR6Ap+IjH/skkwA+8rFPMgng2faRj32Sr3zp8wC4ygC45iMf+yQAiY987JN85Uuf5yMf+yQAj+crX/o8H/nYJwGo9ZGPfZKvfOnzADwVH/nYJ/nKlz7PRz72SQBc9r/uIx/7JF/50ucBeDxf+dLnAaj1lS99ngTAV770eRIAz4aPfOyTACQ+8rFP8pUvfZ6PfOyTADyer3zp83zkY58EoNZHPvZJvvKlzwPwVHzkY5/kK1/6PB/52CcBcJnLHs9HPvZJEgC1vvKlzwPwkY99EoDEV770eQBqfeVLnycB8JUvfZ4EQK2PfOyTJAASX/nS5wGY9JUvfR6AWh/52CdJfOVLn2cSwFe+9HkmAUz6yMc+yVe+9Hk+8rFPAvBkfORjnwTgK1/6PJMAvvKlzzMJoNZHPvZJEgBPxkc+9kkSAImPfOyTfOVLnwfAZQbANV/50udJfORjn+QrX/o8AF/50uf5yMc+CUDiIx/7JAAf+dgnAZj0kY99EoCPfOyTJL7ypc8D8JGPfRKAj3zsk0z6ypc+D0Ctj3zskyS+8qXPA/CVL32ej3zskyQAXPa/5CMf+yRf+dLn+cjHPslXvvR5ACZ95UufB2B/+sqXPk/iIx/7JF/50ucB+MqXPs9HPvZJABIf+dgnAfjIxz4JwKSPfOyTAHzkY58k8ZUvfR6AxEc+9kkAPvKxTzLpK1/6PACTPvKxT5L4ypc+D8BXvvR5PvKxT5IAcJnLJn3kY58k8ZUvfZ4EQOIjH/skX/nS5/nIxz4JwDPxkY99ksRXvvR5EgD/ykc+9kkSX/nS50kAJD7ysU/ylS99HoCPfOyTAEz6yMc+yVe+9HkAvvKlz/ORj30SgK986fMA7O0jH/skAF/50ucBeCq+8qXPkwCo9ZGPfRKAvX3lS58n8ZGPfZLEV770eQBcljAA/4s+8rFPsjeAj3zsk+wN4CMf+yRf+dLnAUh85GOf5Ctf+jwAk77ypc8DkPjKlz7PJIDEV770efYGkPjKlz7P3gAmfeRjnyTxlS99ngTApK986fMkPvKxT5IAcNn+9JGPfZIEwOP5yMc+yVe+9HkAvvKlz/ORj32SxwOwLx/52CeZBPCRj32SSQCJj3zsk+wN4CMf+yR7A/jIxz7JV770eQASH/nYJ/nKlz4PwKSvfOnzACS+8qXPMwkg8ZUvfZ69AUz6ypc+z94AEh/52CdJfOVLnycBMOkrX/o8iY987JMkAFz2/8VHPvZJ9gbwkY99kr0BJL7ypc+TAEh85GOfJPGVL30egK986fN85GOfBODxfORjn2QSwEc+9kkmAXzlS58nAVDrIx/7JAmAj3zskyQAEl/50udJACQ+8rFPkvjKlz4PQOIrX/o8H/nYJwH4yMc+yVe+9HkAJn3lS5/nIx/7JHsDSHzlS58nAfCRj32SWgAf+dgnmQQw6Stf+jwAia986fMATPrKlz5PAmBfvvKlz5P4yMc+SQLAZQbgf9FXvvR5niyAr3zp8wBM+sqXPg/A3r7ypc8D8Gz7ypc+TwLg8XzlS58nAZD4ypc+D8DevvKlzwPgsn+Xr3zp80wC2JevfOnzAEz6ypc+z+MBqPWVL30egK986fM8HoDEV770eZ4sgK986fMATPrKlz4PwN6+8qXPA/Bs+8qXPk8C4PF85UufJwEw6Stf+jwAe/vKlz4PgMv+233lS5/nyQLYl6986fMkACZ95UufJwFQ6ytf+jwAX/nS53k8APvylS99nn0B2JevfOnzJABqfeVLnwfgK1/6PAB7+8qXPs/eAPb2lS99nicC8ES+8qXPA/BkfeVLnycB4DID4DKXucxlLnOZy1zmsn0xAC5zmctc5jKXucxlLtsXA+Ayl7nMZS5zmctc5rJ9MQAuc5nLXOYyl7nMZS7bFwPgMpe5zGUuc5nLXOayfTEALnOZy1zmMpe5zGUu2xcD4DKXucxlLnOZy1zmsn0xAC5zmctc5jKXucxlLtsXA+Ayl7nMZS5zmctc5rJ9MQD/jXqmzWbG7EX8t5oxZwmJGbMX8d8MwGWJuvpGZsxehAtmzFnCpBmzF+GCbK4OAJf9O82YvQgXzZizhMSM2YtwEcD/Rwbgv82m9Y+ye8cW/ps1N3eQGOjdye4dW/hvtXPbBgBcNTI8wO4dW3BFtVSkubmD8sQ4u3dswRUTY8MAuOzfYeum1ezesQUXNTd3kNi9Ywsu2rltAwD/3xiA/zbDQ3v4b4dAYmS4n+GhPfw3GxsZBMBFw0N7cEmxOA4ChcIYw0N7cAmAy55tpcIEw0N7cBUCieGhPbhqbHQQgP9PDIDLXOYyl7nMZS5zmcv2xQC4zGUuc5nLXOYyl7lsXwyAy1zmMpe5zGUuc5nL9sUAuOzpGhnqA8BlLnOZy1zmMpf9f2MAXOYyl7nMZS5zmctcti8GwGUuc5nLXOYyl7nMZftiAFzmMpe5zGUuc9nTUSoVAHDZ/0cGwGUuc5nLXOYyl7nMZftiAFzmMpe5zGUuc9nTFUcRAC77/8YAuMxlLnOZy1zmMpe5bF8MgMtc5jKXucxlLnOZy/bFALjMZS5zmctc5jKXuWxfDIDLXOYyl7nMZS5zmcv2xQC4zGUuc5nLXOYyl7lsXwyAy1zmMpe5zGUuc5nL9sUAuMxlLnOZy1zmMpe5bF8MgMtc5jKXucxlLnOZy/bFALjMZS5zmctc5jKXuWxfDIDLXOYyl7nMZS5zmcv2xQC4zGUuc5nLXOYyl7lsXwyAy1zmMpe5zGUuc5nL9sUAuMxlLnOZy1zmMpe5bF8MgMtc5jKXucxlLnOZy/bFALjMZS5zmctc5jKXuWxfDIDLXOYyl7nMZS5zmcv2xQC4zGUuc5nLXOYyl7lsXwyAy1zmMpe5zGUuc5nL9sUAuMxlLnOZy1zmMpe5bF8MgMtc5jKXucxlLnu6PN8HwGX/3xgAl7nMZS5zmctc5jKX7YsBcJnLXOYyl7nMZU9HNpsHwGX/HxkAlz0ZdfVNtLR1UitIpQClqaWdlrZOagG4zGX/aS1tndTK5esBJV/XQEtbJ7UAXOYylz0ZTc3ttLR1UguUREtbJ7Va27oAcNn/MgPgsidjYnyEBUsOY9Gyw5mUr2sChHmLD2LRssOZNGvecgBc5rL/tEXLDmPRssOZ1NkzExC6p81h0bLDmbRo2WEAuMxlLnsyxkeHWLj0MBYtO5xJICQWLTucWhPjIwC47H+ZAXDZk6U2AuCJxHHEtk2rAXCZy/7TBvt7QRWAx6PWMtC/GwCXucxlT0ZsYwD+FWtjKpUyAC77X2YAXPZkbd+6jjiKAHg8lUqJ/j07AXCZy/7Ttm5ejQIAjweBLRseA8BlLnPZk9XXuw21FoDHMzLUD4DL/tcZAJc9Wb07tyACAPtirWXTuocBBcBlLvtPKxXGGR7qAxSAvakqvbu2UikXAXCZy1z2ZG3fshZEANgXRdmy4VEAXPa/zgC47MmK44gd2zYQRyEAe6uUCowODwDgMpftL9s2r8aqArAvO7auA8BlLnPZU1EplxjYswONLQB7G+rvpVQqAOCy/3UGwGVPxa4dm1AAoJbGMVs2rgLAZS7bnwrjo4wM9aGqAExStfT1bqdaKQPgMpe57KnatmUtKgpALVVl6+bVALjs/wMD4LKnIo5Ctmx8DBvHAEwqV0oMDfYC4DKX7W+b1j0MqgDU2r5lDQAuc5nLno5yqUDvzs2otQBMGhnaQ6kwDoDL/j8wAC57qvp6t2NtDEAitjFbNq0CwGUu+29QKZcYGNiNKgBYVQb27KJSLgHgMpe57OnauXUDiACQsKps3bQaAJf9f2EAXPZUqbVs27wGG8cARNUKQ/29ALjMZf8ttm1aDSgAAmzbsgYAl7nMZc9ENaywZ9cW1FoAxob7KUyMAeCy/y8MgMuejj27t6FqsWrZumk1oAC4zGX/LcqlAkODvYAy2L+LcqkAgMtc5rJnavvWdSCCWsu2zasBcNn/Jwbg6TDGMHX6PFzUM3U2Y6NDxNWQdDrL1OnzcFFH93QA/ld0ds9g6vR5/H9WKRVRhXKpyNTp8/j/rK1jCgD/K7qnzGLq9Hm47H9FR+c0CuOjlIoTNDa1M3X6PFz2vwTgiRiAp2vK9LmkUhlcVC4WGOjbSSqVwUW5fAMA/2uy+XpSqQz/XwlC747NeMYjlcrw/1VdfSMA/2sy2TypVAaX/a8YHx1idHiAVCqDy/6XGM8D4IkYgGdiT+9WXOYqgP9Ve3q34rL/DwD+V+3p3YrLXOayfzerFoB/xQC4zGUuc5nLXOYyl7lsXwyAy1zmMpe5zGUuc5nL9sUAuMxlLnOZy1zmMpe5bF8MgMtc5jKXucxlLnOZy/bFALjMZS5zmctc5jKXuWxfDIDLXOYyl7nMZS5zmcv2xQC4zGUuc5nLXOYyl7lsXwyAy1zmMpe5zGUuc5nL9sUA/Lf7yMc+CcCT9ZGPfRKAf+UjH/skALU+8rFPAvCRj30SgH35yMc+CcBHPvZJ9gbwRD7ysU8C8Ex85GOfBODxfORjnwTgqfrIxz4JwEc+9kkAXFbrIx/7JABP1Uc+9kkAPvKxTwKwt4987JMA7O0jH/skALU+8rFPApD4yMc+yb4A7MtHPvZJAJ6qj3zskwD8Kx/52CcBmPSRj30SgMRHPvZJAB7PRz72SQA+8rFPsjcAF33kY58EoNZHPvZJAP6Vj3zskwBM+sjHPgnAs+EjH/skAJM+8rFPApD4yMc+CcDj+cjHPgnARz72SfYG8Hg+8rFPAvBUfeRjnwTgIx/7JABPxkc+9kkAPvKxTwKwt4987JMA7O0jH/skAPvykY99EoBaH/nYJwHYl4987JMA1PrIxz4JwL/ykY99kscDUOsjH/skAHv7yMc+CcC+fORjnwRg0kc+9kkAnoyPfOyTADwVH/nYJwF4thmAf5ePfOyT1AL4yMc+yd4AJn3kY59kbwAf+dgn2RvAvnzlS5/nIx/7JABP11e+9Hk+8rFPApD4yMc+yaSvfOnzACS+8qXPMwlgbx/52CepBfCRj32SvQF85GOf5PEA7MtHPvZJ9gbwkY99kr0BPBlf+dLn+cjHPgmAaz7ysU+yN4CPfOyT7A3gyfjKlz7PRz72SQBqfeVLn+cjH/skAJM+8rFP8pUvfR6AWl/50uf5yMc+CcBXvvR5EgBf+dLnSQA8277ypc/zkY99EoAn8pUvfZ6PfOyTADwZH/nYJ5n0lS99HoDEV770eSYBuOwjH/skkwASH/nYJ6kFUOsjH/skX/nS5wF4Mj7ysU/yeAD29pUvfZ6PfOyTADwZH/nYJ5n0lS99HoDEV770eSYBTPrIxz7J3gA+8rFPsjeAJ+MrX/o8H/nYJwF4sr7ypc/zkY99EoDH85GPfRKAp+IjH/skCYCPfOyTJACero987JNMAkh85UufJwHwlS99ngTA/vSRj32Sr3zp83zkY58E4Mn4yMc+yVe+9Hk+8rFPAvBsMgD/Tl/50udJAEz6ypc+zySAvX3lS58nAfCVL32eSQBf+dLnSQA8ka986fMAPJ6PfOyTfOVLnwdgbx/52CdJAEz6ypc+TwLgqfjKlz5PLYCvfOnz7A3gK1/6PAmAr3zp89QC+MjHPgnA3r7ypc/zrwDU+sjHPsneAD7ysU+SAPjIxz4JgGu+8qXP868A1PrIxz7J3gA+8rFPkgD4yMc+CUCtr3zp8wBM+sqXPg/AvnzlS58HYNJXvvR5PvKxT5L4ypc+D8Dj+cjHPskkgI987JPUAtiXr3zp8wD8K1/50ucB+MjHPgnARz72SRIAH/nYJwGY9JUvfZ4EgMv25SMf+yRf+dLnSQB85Uuf5yMf+yRf+dLnSQB85UufJwEw6SMf+yRf+dLnAUh85GOfJAHwkY99kgRAra986fPsDeArX/o8APvylS99HoCPfOyTAHzkY58kAfCRj30SgElf+dLnSQA8WV/50uf5VwBqfeRjn2RvAB/52CdJAHzkY58EIPGRj32SfQH4yMc+SQLgIx/7JACJj3zsk3zlS58HYNJHPvZJACZ95GOfBGDSRz72Sb7ypc8DkPjKlz5PAuArX/o8CYC9feRjn2QSwOP5ypc+D8BXvvR5AJ6Mj3zskyQAPvKxT7I3gI987JMkACZ95GOf5Ctf+jwAH/nYJwGY9JGPfZIEwN4+8rFP8pUvfR6Ar3zp83zkY58E4Il85GOf5Ctf+jwAX/nS5/nIxz4JwLPFAPw3+cqXPs9HPvZJEgAf+dgnmQTwkY99ksRXvvR5ACZ95GOf5F8BSHzkY5/kK1/6PAAf+dgnAfjIxz5JAuArX/o8kwCeyEc+9kkmAezLRz72SSYBfORjn6QWwKSPfOyTfOVLnwcg8ZGPfRKAx/OVL30egH/lK1/6PAC1vvKlz1ML4Ctf+jy1AFzylS99HoB/5Stf+jwAtb7ypc9TC+ArX/o8tQASH/nYJ/lXAPblIx/7JJMAEh/52CdJANT6yMc+yVe+9HkAvvKlz5MASHzlS58nATDpIx/7JP8KwOP5ypc+D8BXvvR5EgBf+dLnAfhXPvKxTzIJwEVf+dLnAUh85UufB6DWV770eQBqfeRjn+QrX/o8AB/52CcB+MqXPk8C4Ctf+jwJgCfykY99kq986fMA/Ctf+dLnAfjKlz5PAuArX/o8AP/KRz72SSYBTPrKlz4PwL/ylS99HoBaX/nS56kF8JUvfZ5aAImvfOnz7AvAV770eWoBfORjn+QrX/o8AB/52CcBSHzlS5/nIx/7JAAf+dgn+cqXPg9A4iMf+yRf+dLnAfjIxz4JwEc+9kkSAB/52CeZBFDrK1/6PAmASR/52CcB+Fc+8rFPkgD4yMc+SQJg0le+9HkSAF/50ufZG8BXvvR5EgD/ykc+9km+8qXPA7C3j3zsk3zlS58HYNJXvvR5PvKxTwKwLx/52Cf5ypc+D8Ckr3zp83zkY58E4NlgAP7dPvKxT/KVL30egMRHPvZJJgHs7Stf+jwJgK986fNMAvjKlz5PAqDWV770eWoBfOVLn6cWwKSPfOyTJL7ypc8D8JUvfZ4EwL585GOfJAHwkY99EoCvfOnz7A1gX77ypc+zLwCTPvKxTwLwkY99kkkAH/nYJwF4Ih/52Cd5PAAuezo+8rFP8ngAnqmvfOnzJAC+8qXPMwngK1/6PAmASR/52CdJACS+8qXPkwD4ypc+TwKg1kc+9km+8qXPA/BkfeVLn6cWwFe+9HlqAUz6yMc+ySSAJ+MjH/skCYCPfOyTAHzlS59nbwAu+sjHPkktgI987JPUApj0lS99HoCPfOyTfOVLn+cjH/skkwA+8rFPMglgXz7ysU/ylS99HoB9+cjHPskkgCfjIx/7JAmAj3zskwB85UufZ28AtT7ysU/yeACeDR/52CepBVDrIx/7JACTPvKxT5L4ypc+D8Ckr3zp8wB85UufB6DWRz72SRJf+dLnAfjKlz7P3gAmfeRjn+QrX/o8AHv7ypc+z0c+9kkAnshXvvR5EgBf+dLnSQDsy0c+9kn2BrC3j3zskwDU+sjHPgnAV770eQBqfeRjnyTxlS99no987JPs7Stf+jwf+dgnSQAkPvKxT5L4ypc+D8BHPvZJACZ95Uuf5yMf+yQJgGfCAPynfeVLn2cSwN4+8rFPkgD4yMc+ySSAj3zskyQAnq6vfOnzJAD25SMf+ySTABJf+dLnSQB85UufB+AjH/skewPYl4987JPsC8Ckr3zp80wC+MqXPk8C4F/5ypc+z+MB2JePfOyTTAKo9ZGPfRIAV33lS5/n8QDsy0c+9kkmAdT6yMc+CcDT9ZUvfR6ASR/52CdJAHzkY58kAVDrK1/6PAD/Tl/50udJADxZX/nS50kAfOVLnwfgIx/7JHsDcNFXvvR5agF85UufpxZArY987JMAJL7ypc9TC+ArX/o8CYCn4ytf+jwJgCfrK1/6PAmAr3zp8wB85GOfZG8Atb7ypc/zeAD25SMf+ySTAGp95GOfBGBvX/nS50kAPJGvfOnzJABqfeRjnyQB8JGPfZIEQOIrX/o8CYBaH/nYJwH4yMc+CcBXvvR5AJ6Mr3zp83zkY58EIPGRj30SgI987JMAPFVf+dLn2RtArY987JN85UufByDxkY99EoCvfOnzAOzLV770eRIAX/nS59kbwFe+9HkSAImvfOnzJAASX/nS5/nIxz4JwKSvfOnzJACeCQPw7/aVL32ej3zskwA8GV/50udJAHzlS59nEsBXvvR5EgDPxEc+9km+8qXPA5D4yMc+SQLgK1/6PJMAJn3kY58E4CMf+yQAX/nS50kAfOVLnycBsC9f+dLn2ReAf+UrX/o8AM+2r3zp8yQAXPZs+cqXPk8C4N/tK1/6PAmAr3zp8yQAan3kY59kEsBHPvZJJgE82z7ysU+SAPjIxz5JAuAjH/skCYBJH/nYJwH4yMc+CcBXvvR5EgBf+dLnSQC45iMf+yR7A/jIxz7J3gASH/nYJ/nKlz4PQOIjH/sktQA+8rFPkgD4yMc+yd4APvKxT7I3gL195GOfJAHwkY99kgTARz72SRIAkz7ysU8C8JGPfRKAr3zp8yQAvvKlz5MAeKa+8qXPkwB4pj7ysU/ylS99HoBJH/nYJ/nKlz4PwKSvfOnzJAC+8qXPkwCY9JGPfZKvfOnzACQ+8rFP8pUvfZ6PfOyTANT6yMc+yVe+9Hk+8rFPAvCRj32Sr3zp8wA8nq986fMAfOVLnwcg8ZGPfZIEwEc+9kkSAPvykY99kr0B1PrKlz4PwKSvfOnzAPwrH/nYJ6kF8JGPfZJaALU+8rFPUgvgIx/7JJMAng0G4D/tIx/7JJMAan3kY59kEsBHPvZJJgF85GOfZBLApI987JPUAvjIxz5JLYDERz72SQA+8rFPkgD4ypc+TwIg8ZGPfRKAffnKlz7PRz72SQCerI987JPsC8Ckj3zsk0wC+MjHPskkgH35yMc+yZMF8GR85GOf5Ctf+jwArvnIxz7JkwXwZHzkY5/kK1/6PACJj3zsk0wC+MjHPskkgI987JNMAtiXj3zskyQAPvKxT5IAqPWVL32eSQBf+dLnmQSwLx/52CepBfCRj32SWgD78pUvfZ4EwFe+9HkSAF/50udJAOztK1/6PB/52CcBcNmkr3zp8zwegK986fNMAkh85UufB2DSV770eWoBfOVLnycB8JUvfZ69AXzlS59nbwB7+8qXPk8C4Ctf+jwJgK986fMkAPb2lS99no987JMAPJ6PfOyTPFkAT8ZHPvZJvvKlzwOwt4987JMkAJ7IRz72SQA+8rFPkgCY9JGPfRKAj3zskwBM+sjHPgnARz72SRIAX/nS5/nIxz7JV770eQBqfeVLnwfgX/nKlz4PwL585UufZxLAV770eSYB7O0rX/o8ewN4qj7ysU8CsLevfOnzJAAmfeVLnycBsLevfOnzPB6AZ4sB+E/7ypc+zySAWl/50udJAHzlS58nAfCVL32eBMBXvvR5EgCTvvKlz1ML4Ctf+jy1ABJf+dLnqQVQ6yMf+yRf+dLnAZj0kY99kq986fMAJL7ypc/zkY99kgTARz72SRIA+/KVL32efQGY9JUvfZ5JAF/50ueZBLAvX/nS55kE8JUvfZ5JAF/50ueZBPBEvvKlz/ORj32Sr3zp8wB85GOfBMAlX/nS55kE8JUvfZ5JAF/50ueZBPBEvvKlz/ORj32Sr3zp8wB85GOfBOArX/o8kwC+8qXPMwngK1/6PJMA9uUrX/o8CYCvfOnzJAD25SMf+yRf+dLn+cjHPgnAE/nKlz5PLYCvfOnz1AJ4Jj7ysU/ylS99HoDEV770eT7ysU+SAPjIxz5JAsA1H/nYJ3k8AB/52CeZBPB4PvKxTwKwP33kY5/kK1/6PACJr3zp83zkY58kAfCRj32SBEDiK1/6PJMAvvKlzzMJ4Ctf+jyTAJ7IV770eT7ysU/ylS99HoCPfOyTAEz6ypc+Ty2Ar3zp83zkY5/kK1/6PAAf+dgnAfjKlz5PLYDERz72Sb7ypc8D8JUvfZ6PfOyTACS+8qXPU+sjH/skCYCPfOyTAHzkY58kATDpK1/6PB/52Cf5ypc+D8BT8ZGPfZJJAB/52CeZBJD4yMc+SQLgIx/7JHsD+MjHPkkC4Mn4ypc+TwLg3+EjH/skX/nS5wF4NhiAf6ePfOyTJL7ypc8D8GR85GOf5Ctf+jwf+dgnSQB85GOfJPGVL32ej3zskwA8Ux/52CdJANT6ypc+D8BHPvZJABJf+dLnAaj1lS99ngTAV770eRIA+/KRj32SfQF4sr7ypc8D8Gz6yMc+CUDiIx/7JF/50uf5yMc+CYDLnq6PfOyTACQ+8rFP8pUvfZ6PfOyTAOztIx/7JF/50ucBeKY+8rFPAvBEvvKlz/ORj30SgMRHPvZJEgDPlo987JN85UufB+DxfOVLnweg1le+9HkSAF/50udJALjmK1/6PAmAr3zp89QC+MqXPs8kgMfzlS99no987JMA/Dt85GOf5Ctf+jwAj+crX/o8ALW+8qXPkwD4ypc+TwLg2fCRj30SgMRHPvZJvvKlz/ORj30SgMfzkY99kgTARz72Sb7ypc/zkY99EoC9feRjnyQBkPjKlz4PwKSvfOnzANT6yMc+SeIrX/o8kwC+8qXPMwlg0kc+9km+8qXP85GPfRKAJ+MjH/skAF/50ueZBPCVL32eSQCJr3zp8zxZAE/kK1/6PACJj3zskwDU+sjHPkkC4Mn6yMc+SQIg8ZGPfZKvfOnzADxbDMC/01e+9HkSAE/GRz72Sb7ypc8D8JUvfZ4EwFe+9HkSAF/50uf5yMc+CcDT8ZGPfZLEV770eRIAiY987JN85Uuf5yMf+yQAz6avfOnz7AvA4/nIxz7JJIAn8pGPfZKvfOnzAOzLRz72SQD29pUvfZ7ERz72Sb7ypc8D8JUvfZ6PfOyTALjqIx/7JF/50ucB2JePfOyTAOztK1/6PImPfOyTfOVLnwfgK1/6PB/52CcBeDZ85UufByDxlS99HoCvfOnzJABqfeRjn+QrX/o8AHv7ypc+TwLgmfjIxz7JV770eT7ysU/ylS99HoBJX/nS5wFw2dPxlS99no987JMAPF1f+dLnAXi2fORjn+QrX/o8H/nYJ/nKlz4PwKSvfOnzADwbPvKxT/KVL30egH35yMc+CcDevvKlz5P4yMc+yVe+9HkAvvKlz/ORj30SgEkf+dgnmfSVL32exEc+9km+8qXPA/CVL32ej3zskwAkPvKxT5L4ypc+TwLgX/nIxz5J4itf+jwJgMRHPvZJvvKlzwPwkY99EoBJH/nYJ/nKlz4PwFe+9Hk+8rFPAvCVL30egL195GOfBOArX/o8AE/FRz72SQD29pGPfRKAZ8NXvvR5EgC1PvKxTwKwL1/50udJfORjnyTxlS99HoBnkwH4T/nIxz4JwEc+9kkmAXzkY58EIPGVL32ej3zsk9QC+MjHPkmtr3zp8wAkPvKxT7I3gI987JPsDeArX/o8CYDERz72SRJf+dLnAfjKlz7PRz72SQAez0c+9kkmAXzkY59kEsCkj3zskwB85GOfZF8APvKxTwLwkY99kklf+dLnqQWQ+MjHPgnApI987JMkvvKlzwNQ6ytf+jwf+dgnSQBM+sjHPslXvvR5ABIf+dgn+cqXPg/ApK986fMAuOYjH/skia986fMA1PrKlz7PRz72SRIAkz7ysU/ylS99HoDERz72Sb7ypc8DMOkrX/o8AJM+8rFP8pUvfR6AJ+MjH/skX/nS5/nIxz7JvwKQ+MjHPslXvvR5ACZ95UufB+ArX/o8AImvfOnzAHzkY59kbwAf+dgn2RtA4iMf+yRf+dLnAfjKlz7PRz72SR4PwL585GOfZBLARz72SSYBuOorX/o8AB/52CdJADwVH/nYJ0kAPJ6PfOyTJACeyEc+9km+8qXPA/CVL32ej3zskzwegH35yMc+ySSAj3zsk0wC+MjHPkniK1/6PAC1vvKlz/ORj32SBMCkj3zsk3zlS58HIPGRj32Sr3zp8wBM+sqXPg/ApK986fNMAvjIxz7JV770eQAmfeVLnwcg8ZUvfZ4EQK2PfOyTJAA+8rFPkgBIfOVLnycBkPjIxz5J4itf+jwAia986fN85GOfBOAjH/skX/nS5wGY9JUvfZ6PfOyT7A0g8ZUvfZ4EwEc+9klqAXzkY59kEsCkj3zsk3zlS58HYG9f+dLn+cjHPgnA4/nKlz7PRz72SWoB1PrKlz4PQOIrX/o8AJO+8qXPkwB4PF/50udJfORjnyQB8GwxAP8uX/nS5wGY9JUvfZ7HAzDpK1/6PP8KwKSvfOnzPFkAe/vKlz5PAmDSV770eRIAtb7ypc8D8JUvfZ7HAzDpK1/6PE8GwFe+9HkmAezLV770eRIAia986fMkAPblK1/6PJMAEl/50ucBmPSVL30egL195UufB8AlX/nS50kA7MtXvvR5JgEkvvKlzwMw6Stf+jwAe/vKlz4PQOIrX/o8AHv7ypc+D8DevvKlzwPwlS99nn8FIPGVL30egCfrK1/6PE8WQOIrX/o8AJO+8qXP83gAan3lS58H4Ctf+jyPB8Blia986fNMAng8X/nS5wGY9JUvfZ5JAPvylS99nkkAj+crX/o8AJO+8qXP83gAan3lS58H4Ctf+jyPB+ArX/o8CYB9+cqXPs8kgMRXvvR5ACZ95UufB2BvX/nS5wHYl6986fMA7O0rX/o8APvylS99nn0B2JevfOnzJABqfeVLnwfgK1/6PAB7+8qXPs/eAPb2lS99nicCMOkrX/o8AI/nK1/6PAC1vvKlzwMw6Stf+jx7A3giX/nS5wF4Kr7ypc+TAHi2GACXucxlLnOZy1zmMpftiwFwmctc5jKXucxlLnPZvhgAl7nMZS5zmctc5jKX7YsBcJnLXOYyl7nMZS5z2b4YAJe5zGUuc5nLXOYyl+2LAXCZy1zmMpe5zGUuc9m+GACXucxlLnOZy1zmMpftiwFwmctc5jKXucxlLnPZvhgAl7nMZS5zmctc5jKX7YsBeCaWrDgSFy094GgSS1YciYuaWtoB+F/T3NLBkhVH8v/V0pVHsfSAo1m68iiWrDiS/68amtoA+F/T0tbFkhVH4rL/FUsPOJrEkhVH4rL/FR1d0wD4VwzA03Xv7Vdz3x3X4KJiYYzAD7jvjmtw1eCenQD8rxjYs4P77riG/892bl1P4Ads27Sa++64hv/Phgd6Afhf0bd7G/fdcQ0u+19SLIwR+AH33XENLvtfsnPregCeiAF4Oqy1xDbGVaqKArGNcRnA/4rYxvx/Z9WigLWW2Mb8fwfwvyK2MS77X6OqKBDbGJf9rwF4IgbAZS5zmctc5jKXucxl+2IAXPZ02TgGwHg+AC5zmctc5jJX+H4Ka2MAXPb/jQFw2dNVLIwDkMvXA+Ayl7nMZS5zQRCkydc1UCpMAOCy/28MgMuerlJxHIB8vgEAl7nMZS5zmQuaWtoBKBUnAHDZ/zcGwGVPV6lUACCXrwfAZS5zmctc5oK6hmYAisVxAFz2/40BcNnTVS4WAMjl6wFwmctc5jKX/X/n+QGNTa1UK2X27N4KgMv+vzEALnu6qtUy/Xt20NTSQUfnVABc5jKXucxl/5/NmLmQfF0jvbu2UK2UAXDZ/zcGwGXPxPat64jCkJ7pczHGA8BlLnOZy1z2/1FLWzfd02ZTKk6wZ/dWAFz2/5EBcNkzUSqMs2PrOvJ1jfRMnQOAy1zmMpe57P8bzw9YtOxQANavfoBqpQyAy/4/MgAue6Z2bt/A6PAAM+YsoqNrKgAuc5nLXOay/y9a27s5/JgzAVj18B2Mjw0B4LL/rwyAy54NG9c/TLEwzrxFB9E1ZSYALnOZy1zmsv91C5YczMKlhwKwacMjDA/2AeCy/88MgMueDaXCOGseu4diYZw581cwdfp8AFzmMpe5zGX/i5paOjjgkBNp65hCpVziwXtuZPf2TQC47P87A+CyZ0upMM6ax+6hWBhnxpxFzFt0IOlMFgCXucxlLnPZ/4JcvoE581ewZMUR5Orq6evdzr13XE1hYhQAl7nAALjs2VQqjLPmsXsYGuilo2sayw44ho6uaQC4zGUuc5nL/ltls3lmzV3CioOPpWvKTAoTo6xffT8JAJe5xAC47NlWKoyz+pG72LrxMYJUmnmLDiSRzmQBcJnLXOYyl/23SKWzTJ+1iOUHHUfPtLlE1SpbNj7Gw/ffTF/vdgBc5hoD4LJ/lx3bNvDog7cxOtxPR9c0lh94DNNmzscPAgBc5jKXucxl+0tdfROz5i5l5cHHMW3mfMQYdmxdz0P338zObRuwsQXAZS4yAC77dxofHeLRB29n2+Y1GOMxfdYilh90HD3T5mKMB4DLXOYyl7nsP6W1rYsFSw5hxcHH0TNtDsbz2L1zMw/ddyNbN62iWikD4DKXGQCX/Sds37KWh+67mV07NpHJ5Jg1dwkrDj6WrikzAXCZy1zmMpf9u3h+QNfUWSw/8BgWLjuMto4exkYG2bThUe6/+3o2rXuYUmECAJe5bJIBcNl/SrlUYPP6R3j4vpvp691OLt/AnPkrOODQE5g6fT7pTBYAl7nMZS5z2TMlIjS3djF7/jIOOOQE5sxbTjqTY/fOTTz6wG088sCt7N6+kWq5BIDLXLY3A+Cy/7SJ8RHWr76fxx68naGBXnL5BmbMWcTKQ09g9vzlNDS1AuAyl7nMZS57KozxaG3vZs6CFRx0+MksXn4Y3VNmUyyMsWHNA9x/9/VsWvcIoyMDALjMZU/EALhsfxkZ7mf1I3fxyAO3snvnZgC6p8xi2QFHs3j5YbR3TAXAZS5zmctc9ng8P6CtYwrzFh3AQYefzMKlh9LVM5NKpcTWjY/xwN3Xs+rhO9mzextxFALgMpc9GQbAZfvb2Mggm9Y9zIN338DWjaspFsZobu1i/pKDOPDwk5g5dwkNTa0AuMxlLnOZy7K5Orp6ZrJgycEcfPjJLFhyMB1d0wnDMtu3rOWh+27ikftvZce2DRQL4wC4zGVPlQFw2X+LSrnEjm3reODuG1j32H0MD/aSzdYxZdpclh1wNCsOPo5pMxeQr28EwGUuc5nL/r8zxtDc2sHMOYtZftAxHHjYScxZsIK2jimEUZVd2zfw6IO38eA9N7Ft8xomxkYAcJnLngkD4LL/Rv19O1j18F3cf/f1bNm4irHRQerqm5g+ayErDz6eJSuPpHvabDLZPAAuc5nLXPb/RTZfR1fPTBYsOZiDjziVxcuPYMr0edQ3tDA6MsC2zWt49IHbuP/O69i84TFGhwcAcJnLni0GwGX/zUqFcXZuW88j99/Kw/fdwo6t6ygUxmhqbmf23GUceNhJLF5+GN1TZpHOZAFwmctc5rL/JelMjvaOqcyZv4KVh5zAgYeexJwFK2jrmIK1lr7e7axffT/33nE1jz5wG9u3rGV0ZAAAl7ns38EAuOx/xfjYEFs3rebBu2/gsYfuYPeOTVRKBZpbu5g9fzkHHnYSC5ceSkf3DIJUBgCXucxlLvtvE6RStLR1M3vuMlYecjwHH3EK85ccRNeUmWSzeYaH+ti2eQ2PPnAb995xNetX309f73Yq5RIALnPZv5sBcNn/opGhPjatf4T77rqOVQ/dwe4dm6iWS7S2dzNv4UoOOuwkFiw5mPauafhBCgCXucxlLtsfglSK1vZuZs9dxspDjufQo85g0bJD6Z42m3xdI6PD/WzbvIbHHrqDu2+/klUP3cH2LWsZHRkAwGUu+08zAC77Xzc81Mem9Y9w313XseqhO9i9YxNhtUxbxxTmLzqQgw4/mUXLDmPKtDnUNzQD4DKXucxl/y7pTI6OzqnMWbCSAw47kUOPOoOFSw+le9ps8nWNjI+NsGPbOh576A7uvOUyHn3wdrZvWcvIUB9xFAHgMpftTwbAZf+fDA/1sWn9I9x313WseugOdu/YRLVapqWti5lzl7L8oGM58LCTmLtgJR2dU0lnsgC4zGUuc9nTlcvV09Uzg3mLD+LgI04hMW/xQXT1zCCXq2d8bJid2zew5pG7ufOWy3j4vpvYunE1I0N9xFEEgMtc9t/EALjs/6vhoT42rX+EB+66nofuvYnNGx5jcKCXVCpFZ88M5i0+iIMPP4WlBxzN9NkLaWxuR4wBwGUuc5nLHk99Qws90+awcOmhHHrUGRxw2InMWbCSjs6ppDI5RkcG2L51LY89eDt33HQJD993M1s2PMbgwG7iKALAZS77b2YAXOaCifERdm3fwJpH7uLeO65h9SN3sXPbBibGR2hsamXajAUsXXkkBx9+CguWHEzXlJnk8vUAuMxlLnNRKp2htb2bmXOXsOzAYzjqhLNYftAxzJq7lNb2boxnGB7cw9aNq3nk/lu4/YZ/8ugDt7Ft0xpGhvux1gLgMpf9LzEALnNNFEUMDfSyZeNjPHTfzdx/53VsWPsg/b3bUbW0dUxhzvwVHHDoiaw85Dhmz11KS3s3fpACwGX/jY464WwSR51wFolZ85YBMHfRSo464WyOOuEsEkedcDYALnPZ3urqm+ieOpv5iw/i4CNO5ZAjT2Ph0kOZMm0uDY0tlItF+nu3s3HdQzx4743cefNlrHr4TnZsW8fY6BAALnPZ/zoD4DKXJUqlCfbs2sq61fdz7x3X8MgDt7Jt8xpGhvvJ5RronjaHRUsP5eAjTmHx8sOZMmMe9Q0tALjsv4W1FgAQEgAJEABASNg4BsBlrkqlM7S0dTFjziKWHXA0Rx7/PFYcfByz5y2jvXMqQRAwOjzA9i3rWPXwXdx96xXcd9e1rFt9P707t1AYHwXAZS77/8YAuMxl+zI2Msj2LWt57MHbuffOa1j72L307txCpVyiubWTmbMXs/ygYzjosJOZu2Al7V3TSGdyALhsf9m1YwPWRgA8njiO2LLxMQBc5oJ0JktLWzczZi9k8fLDOfSo0znkyNNYtOwwpk6fT0NTK6VigT27t7FhzYM8ePcN3HHzZTz64G1s27ya4cFewrAKgMtc9v+dAXCZy/6VaqXMQN9ONq57iAfuvp4H77mJTRseZah/N34Q0Nkzg/mLDuTgI05h+YHHMHPuElrbuwmCNAAu+0/ZtX0jIgaAx6Oq9O7eCoDL/r/JZHK0dfQwY/Zilqw4gkOPOoODjziVRcsOZeqMBTS3dmJVGRroZdvmNax66E7uuvlyHrj7ejaseYA9u7dSKIwB4DKXucgAuMxlT1VhYoTd2zey+tG7ufeOa1j18J3s3Lqe8bEh6htbmDJtLguXHsqhR53GsgOPZuacxTS3dmE8A4DL/l3CapXdOzYTxxEAe4vjmO2b16DWAuCy/2XZbJ62zinMnLOEpQccxeHHnMlBR5zCgiWHMHXGPJpaOrA2YrB/N9s2r2HVQ3dy921Xcu/tV7H6kbvYvmUtw0N7iOIQAJe5zGWTDIDLXPZMxHHE8OAetmxaxcP33cJ9d1zD+lX3sXvnZgrFcRoaW5kyfR6Llx/GYUefydKVRzF91kIamloBcNmzbef2DRjjAbA3UHp3bQXAZf9Lstk8bR1TmDlnCUtXHsXhxzyHAw8/mQWLD2bK9Lk0NrVRDasM9O9ky8bVPPbQHdx16xXce8c1rHn0brZvWcvw0B7CagUAl7nMZU/EALjMZc+mcrlI354dbFr3MA/efQP333UtG9c+RH/vdqqVMo3NbUybuYBlBxzNEcc+h8UrDmfK9Lnk65oAcNkzVa2U2bF1HdbGAEyK44gdW9dhbQyAy/5bpTNZWjt6mDlnEUtXHsnhx5zJgYefzIIlBzNl+lwam9uohhX69+xgy8bHePTB27nrlsu5/85rWfvovezcto6RoT6isAqAy1zmsqfKALjMZf9OpWKB3l1bWLf6fu6781oeuPt6Nq57mIG+XcRxTHNLJzPnLGHlIcdx+DFnsmjZYfRMm0NdfRMALns6dm7bgAIAkxDYvWMzAC77b5FOZ2lp62b6rEUsXn4Ehx59BgcfcSoLlxzClOnzaWxuJwyrDPTtYsvGx3j0wdu585bLuP/Oa1m36j52btvA6HA/URQC4DKXuezZYABc5rL/pGJhnN6dm1n72D3cfduVPHj3DWxe/yhDA7sBpaWti1lzl7Li4OM4/NjnsHj54UydPpe6hmYAXPZkxHHEzq3rieMYgDgO2bl1A3EcAeCy/SGVztLS1sn0WQtZvPwwDj3qdA4+8lQWLTuUaTPn09zagY0jBvt3s3XTKh578HbuuuUK7rvzWtY+dg87t21gdLifOIoAcJnLXPbvYgBc5rL9qVAYY9eOjax+5G7uvOUKHrznRjatf4TBvl3Y2NLc2smMOUtYcdCxHHHs81i84nCmzphHQ2MLAC57PLt2bEJEABDx2LVjEwAu+0/IZHK0tnczfdYiFq84nEOPOp1DjjyVRcsOZ9rMBTS3dmFVGRzYzbbNa1j18B3cfeuV3HvHNax59G52bF3PyHA/UVQFwGUuc9l/kgFwmcv+mxQmRtm9YxNrHruHu2+7gvvvvp5N6x5moG8ncRzS3NLJjNmLWXbgMRx5/FksXXkkU2csoKGxFQCXTYqjkF3bNwKwc9t64igEwGXPtmyujrbOqcycs4SlK4/isGPO4KAjTmHh0kOZNnM+zS2dKMrQQC/bNq9h1cN3cfdtV3Lv7Vex5pG72b5lLcODfYRhBQCXucxl+5sBcJnL/puVCuPs3rmZtY/dy923Xcn9d13HhjUP0r9nB9VqhcbmdmbMXsiyA4/mqBPOZukBRzF91kIam9sQMQD8r+iZOpulK4/k2VDf0MTE+AgNjS0sXXkkz4bO7ukAuCafb6Cjezqz5i1l2YFHc8Sxz+HAw05iweKDmDJ9Lo3NbcRRzNDAbrZtXsOqh+/k7tuu5J7brmL1I3exfctahgd7CasVAFzmMpf9NzIALnPZ/5JScYI9u7eybtV93Hv7Vdx/57VsWPMAfb3bqZSLNDa1MW3mApauPIojj38eyw86lplzFtPc0onxfAD+m5VLBfp6t/Ns2L1jE32923k2VCtlAP4/E6CuvpHOnhnMmb+c5Qcdy5HHn8XKQ09g3sID6Jk6h4bGVqphlcG+XWzdtIrHHrqDu2+7knvvuJrVj9zN9i1rGR7cQ1itAOAyl7nsf4UBcJnL/peVSgX27N7G+tX3c+8d15BYt/p+9uzaSqlUoL6hmSnT57F4xeEccexzWHHwccyau5SWtm78IADgv01hYpT/NgD/n/i+T0NTK93TZjNv0QGsPOR4jjzhbFYcfDxzF6yka8os6huaqZQLDPTtYsvGVTz64O3cdcsV3HfHNax57B52bF3PyFAfYbUCgMtc5rL/ZQbAZS77/6RSLtLfu50Nax/k/juv5Z7brmLtY/fSu3MzxcIYdfVN9Eybw6Jlh3LY0WdywKEnMGf+cto6ppBKZQBw2f9HqXSG5tZOps2cz8Ilh3DQ4Sdz2DHPYdkBRzN77jI6uqaTr2ukWBinf88Otmx4jEcfvI07b7mM++68jrWP3cPObesZHe4niqoAuMxlLvv/xgC4zGX/n1WrZQb6drJx3cM8cPcN3HXr5ax+5G52bd/IxPgIuXwDXVNmsWDJwRxy1GkcePjJzF2wkvauaaQzOQBc9r8mk8vT1tHDjDmLWLz8CA496nQOOfI0Fi8/nOmzFtHa0UOQzjA+Okzvzi1sWPsgD993E7ffeAkP3H0961bdx87tGxgdHiCOIgBc5jKXucAAuMxlLonCkKGB3Wze8CgP3XsTd9x8GaseupOd29YzPjZMNpuns2cG8xcdyMFHnEJi3uKD6OqZSTZfB8DTceTxZ3H4Mc+hpa0LAJc9W/L1jXR2T2f2vGUsO+Bojjj2ORx02MksWHIIU6fPp7m1A4DhwT52blvP2sfu5f67ruPOmy7l4ftvZuO6h9izayvjYyOoWgBc5jKXucoAuMxlLrNxxPDQHrZsXMXD993M7TdewqMP3sb2LWsZHRkglcnS0TmVOQtWcOChJ3Ho0WewaNmh9EybQ0NjC8bzAfhXRATP91mw9BA6e2YA8P/N1BnzOeqEswF4NqVSaZqa25kybS7zFx3IykNO4KgTzmblwcczd+EBdE+dTUNTK5VqhYG+XWzdtIpVD93BPbdfxd23Xcmqh+9gy8ZVDPTtpFScAMBlLnOZy/bFALjMZS7bm6pldHiAbZvX8OgDt3H7DRfz8H03s3XjYwwN9CICLW3dzJq7lGUHHsNhR53BkhVHMHXGAppbu0inMwA8HiOG2XOXMWP2YkQEgP91QSrN4hVHMHXGPACeiVy+gfbOqcyYs4TFK47g4CNP45CjTmfJyiOZOXcJ7V3TyOXrmRgfYc+urWxa/zCP3H8Ld9x8KfffeS1rH7uHHVvXMzzUR7VSBsBlLnOZy54sA+Ayl7nsyRgfG2bHtg2sfuQu7rrlCu6761o2rn2I/j07CMMyTS0dzJi9kMXLD+PgI09j2YHHMGvuEtq7ppHPN3DEcc8FYJLxPLqnzmbFwceTCtIA/K9qbGrjwENPoqm5Hc/zAXgyglSKxuY2eqbNYe6iA1h+0DEcfsyZHHDoCcxffBBTp8+luaUDI8Lw4B52bF3P2sfu5YG7r+f2Gy/moXtvYsPaB9m9YzNjo0PYOAbAZS5zmcueCQPgMpe57OkoFwv07trCulX3ce8d13D7TZew+tG72L1zM8XCGA2NLfRMm8v8RQey8tATEDEA1PI8j2yujpWHnkAmmwfgf830WYtYsuII/CBARABIHHHc8wCYlM3X0945lRmzF7JgySEccOgJHHrk6SxdeRSz5i6ls2s69Q0tVKpl9vRuY9OGR3j0wdu569YruPu2K1n18J1s3bSKgb6dFAvjALjMZS5z2b+DAXCZy1z2bFBrGervZdO6h3ng7hu47YZ/8uA9N7Ft0xrGRocQEQD2ZowhSKVZecgJNLV0APB0fORjnwTgqfrIxz4JwEc+9kkAnqwglWLx8sPpmTYbMQaAWoIya+5SFi8/goOPOJUDDz2R+YsPYuqMBbR19JDLNzA2NszObetZ99h9PHD39dx2wz954K7r2bD6AXZv38TocD9RWAXAZS5zmcv+UwyAy1zmsn+XwsQI27eu5ZH7bwHgiXiex+IVh9Pc0gnAE/nIxz7J3gA+8rFPsjeAJ+MrX/o8H/nYJwH4V+obmjnwsJNpbGnH83wA9ibGo2faHJpbO/B8j6GBPWzZuIpHH7ydu2+9kttu+CeP3H8LWzauor9vB8XCOAAuc5nLXLa/GQCXucxl/25HHf88AJ5IHMeotTQ0tQHwr3zlS5/nXwGo9ZGPfZK9AXzkY58kAfCRj30SgMfT1jGFZQccje8HGDEAPJ4H7r6B2274J3fdcgWrH7mTndvWMzrcTxhWAHCZy1zmsv9GBsBlLnPZv1scWwBq2ThGUcqlAr27t7Ju9X3cc/vVbN30GABP5Ctf+jwA/8pXvvR5AGp95UufpxbAV770eWoBPJ7G5nZUFdUYgCdSLIwB4DKXucxl/0sMgMtc5rJ/N8/3sXGEqlIojLFz23pWPXIXd950GffdeS0b1zzIUP9uorAKwJP1kY99kscD8O+wce2DrHrkLnZs28DExCiqirUxAHs78vjnAeAyl7nMZf9LDIDLXOayf7fbbvgnjz54O3fcdAkP3n0DWzauYnS4H2tjAJ6ur3zp8zwegH35yMc+ySSAWh/52CcB+FdGh/vZtmkND91zI3fecjlbNq5ibGQQtZY4jlFVAFQVAJe5zGUu+19iAFzmMpf9J4yPDaOqAOxPX/nS50kAPBtsHLF7xyYeeeBW7rj5Uh594Fa2bFxFpVLCGA8Al7nMZS77X2IAXOYyl/2v+cjHPsmTBfBkfORjn+QrX/o8AE+XqjIxPsKu7Ru49/arue2GfwLgMpe5zGX/SwyAy1zmsv81X/nS55kE8JUvfZ5JAF/50ueZBPBEvvKlz/ORj32Sr3zp8wB85GOfBMBlLnOZy1xlAFzmMpe55iMf+yQAiY987JN85Uuf5yMf+yQALnOZy1zmsoQBcJnLXPa/6iMf+yRf+dLnAdiXj3zskwDs7Stf+jyJj3zsk3zlS58H4Ctf+jwf+dgnAXCZy1zmMpcZAJe5zGX/az7ysU+S+MqXPg9Ara986fN85GOfJAEw6SMf+yRf+dLnAUh85GOf5Ctf+jwAk77ypc8D4DKXucxlLjMALnOZy/7XfOVLnycBsC9f+dLnmQSQ+MqXPg/ApK986fMA7O0rX/o8AC5zmctc5ioD4DKXucxlLnOZy1zmsn0xAC5zmctc5jKXucxlLtsXA+Ayl7nMZS5zmctc5rJ9MQAuc5nLXOYyl7nMZS7bFwPgMpe5zGUuc5nLXOayfTEALnOZy1zmMpe5zGUu2xcD4DKXucxlLnOZy1zmsn0xAC5zmctc5jKXucxlLtsXA+Ayl7nMZS5zmctc5rJ9MQAuc5nL/hvl6xr5bwPgMpe5zGX/3xkAl7nMZf9tMtk8HV3T+G+TSmcAcJnLXOay/88MgMtc5rL/Jrt2bOLRB2/nv9We3dsAcJnLXOay/68MgMtc5jKXucxlLnOZy/bFALjMZS5zmctc5jKXuWxfDIDLXOYyl7nMZS5zmcv2xQC4zGUuc5nLXOYyl7lsXwyAy1zmMpe5zGUuc5nL9sUAuMxlLnOZy1zmMpe5bF8MgMtc5jKXucxlLnOZy/bFALjMZS5zmctc5jKXuWxfDIDLXOYyl7nMZS5zmcv2xQC4zGUuc5nLXOYyl7lsXwyAy1zmMpe5zGUuc5nL9sUAuMxlLnOZy1zmMpe5bF8MgMtc5jKXucxlLnOZy/bFALjMZS5zmctc5jKXuWxfDIDLXOYyl7nMZS5zmcv2xQC4zGUuc5nLXOYyl7lsXwyAy1zmMpe5zGUuc5nL9sUAuMxlLnOZy1zmMpe5bF8MgMtc5jKXucxlLnOZy/bFALjMZS5zmctc5jKXuWxfDIDLXOYyl7nMZS5zmcv2xQC4zGUuc5nLXOYyl7lsXwyAy1zmMpe5zGUuc5nL9sUAuMxlLnOZy1zmMpe5bF9MZ08Lnd0tdPW00tnTQmd3C5M6e1rpmtJGV08bnT2tdPW00dndQldPG5O6prTR2dPKpO6p7XT2tNI1pY3Onla6etro7Gmls7uFriltdHS30tnTRteUdjp72kh0TWmns6eNREd3K4nOnjYmdXS30jWlnURnTxudPe10TWmns6eNrintdPa0k+ia0k5nTxudPe10TWmns6edrintdPa009nTRmdPO4mO7jYSnT3tJDq62+jsbqerp52ung46u9tJdPW009ndzqSunnY6ezro7G6ns6eDvXV2t9PZ00FndzudPR0kOrvb6ezpoL2rjc6eDhKd3e109nTQNaWTju52Orvb6ehup7Ong/auNjq72+nq6aRrSiedPR1M6urppLOng47udjp7Oujsbqezp4Ounk46ezro6umks7udrp5OOns6mNTZ3U5Hdzud3e109nTQ2d3OpI7udhKdPR10dreT6OrppLO7nURnTwcd3e109XTS2d3OpM6eDjq720l09XTS2d1OorOng0md3e109XTS2d1OorOng87udhId3W109nTQ1dNBZ3c7tbp6OujobqOzu51EV3c7ic7udrq629lbZ3c7ia7udrp6OujsaqN7Sidd3e3sS2dXG13d7SQ6u9tJdHW309XTQWd3O13d7SS6ejro6m6ns6uNru52JnV0ttHZ3U5XdzuJrp4OOrvb6erpoLunk67udhKd3e10drXR2d1OV3c7k7p6Oujqbqezq41EV3c7kzq720l0dbfT1dNBV3c7XT0ddHa309XdTqKzu529dXa10dndTldPB53d7XT1dNDZ3U53Tyed3e10drXR1d1OZ3c7e+vsaqOru53O7nY6u9qY1NndTldPB13d7XR2t9PV3U5nVxtd3e1M6uppp7O7jUndPZ10drfR1dNOZ3cbXd3tdHa30dnVRldPO51dbXR2t9HV005XdzuJrp52OrvbSHR2tZHo6m6ns7uNru52Orva6OppJ9HZ3UZXdztdPe10drfR1dNOV3c7ia6edjq72+jqbqerp52u7na6etrp6m6ns7uNru52unra6OxuJdHV00ais7uVzu42unra6Oppp7O7jURXTxud3W1M6uppI9HZ3UZXTxt76+pupaunja7uVrp62ujqaaWru4WunlY6u5rp6mkl0dndQldPK91T2ujsbiHR2d1MV08LnV3NdHW30N3TSs+UVrp6WpjU3dNCV08Lnd3NdPW00NXdTFdPC909LXT1NNM9pYWu7ma6p7TQ1dPMpK7uZjq7m+jqbqarp5mu7iYmdXY3kujqaaaru4lEd08zXd1NJLp6munsbqR7SjNdPU1M6upppquniUT3lGa6eppIdPU0M6mrp4nuKc109TSR6OpppquniURndyNdPc10T2mmq6eJWt1TmunsbqSrp4lEV08zia6eJrp6mnki3VNa6OxuomdqC109zexLZ3cTXT3N1OrqaaF7SgudPc109bSQ6JrSSldPC53dzXT1tDCpo7uZzp4WunpaSHRNaaWzp4WuKa30TG2jq6eVRGdPC53dLXT2tNDV08qkriltdPW00tndQqKrp5VJnT0tJLp6Wuma0kZXTytdU9ro7Gmlq6eNRGdPK3vr7G6hs6eVriltdPa00jWljc6eVrqnttPZ00pndwtdPW109rQyqbOnhURndwtdPa109rTQ2d3CpM6eFrqmtNHV00pnTwtdPa10drfQ1dPKpK4pbXT2tDCpe2obnT0tdE1po7Onha6eVjp7WujsbqFrShud3c109rTQNaWNrp5Wunpa6JrSSmdPC4nO7mYSXT0tdPa00NXTQmd3M11TWkl09rTQ1dNC15RWOnua6ZrSQldPC4muKS109jTT1dNC15QWunpa6JrSQldPC509zXT1tJD4PxjcT6H8mX9OAAAAAElFTkSuQmCC;" vertex="1" parent="1">
          <mxGeometry y="90" width="565.03" height="780" as="geometry" />
        </mxCell>
        <mxCell id="cWcfSYOSI2J4r_bsHk8Z-11" value="" style="shape=image;verticalLabelPosition=bottom;labelBackgroundColor=default;verticalAlign=top;aspect=fixed;imageAspect=0;image=data:image/png,iVBORw0KGgoAAAANSUhEUgAAAHoAAABNCAYAAABpJnDxAAAABWZkRUNSJJPjAOWrYpkAABkcSURBVHgB5cRjtCVn2oDh+3mravPY57RtxLYzM0kGydi2bdu2EYxi22bbPH2szap6n2/Vj7PWXr06mWimZ773x3WxcOnB6jJXGACXucIAuMwVBsBlrjAALnOFAfhfx+cvYPUj9zDp7l++AoC9feHie1j9yD0kVj9yPb9+FQDU4vMXsPqRe5h09y9fAcDTAa/g17ffw+pH7uHSzwPA/mIA/pe99pfXs/oc+OuyQ1i07BAWff0eOPTd3P3LVwAw6QsX38ML2+7ha8sOYdGyQ/ja3XD4B6/n168CgASfv4DV57Rx59cPYdGyQ1j09Xvg0Hdz9y9fAcBT8dpfXs/qR14HqzcDsL8ZgP9V8AleeGg9G/9xHp8AAPjd2/jx3ePUH3oWXwAA+PwFvHDWOHf+5G38GgD49et/xZ3j9Rz+ok8AAJ/g0nNmMX73r3jt7wCA372NH989Tv2hZ/EFAODJ4PMX8KFFa/jashN57S4A2N8MQAJewa9vv4fVj9zDpNW3/4jXAgCTXvvL61n9yD1MWn37j3gtAMCrfsTdj9zDpZ8HgEnwCS595B5WX/wJACZ94eJ7WP3IPUy69PMA8GTxqh46AIBav941ALQx5VUA8NqeNhhfw82/A4AErzqSJfXArOV8AeBVPXQwzmM3/QGABLyCYxfVA7NY+XkAeDL45HksOvJt/BoA+G9gABJfuPjdHM49fG3ZISxadgiJRUe+jV8DAAk+fwFv5VcsWnYIiUXL/snG+kP40MWfAIDf3c5j4zDnpB/xWgAgweeXM4dx7rzoCwDAK/j17ffwQv7JomWHkFj09XvoOOceLv08ADwTrB9gHABIzGmvh4Fd/BoA4PMXsPqDbVz9j81AG1NeBcxro54Bdv4OAOATXPrIu2m/7p9sBDp6XgHA/yoDAK9gShswsItfAwD7wifP49DX/wGABHyBBzcDbT28FoA/8NrrNkP9Qo59FQAkvrBiFoyv4ebfAQCfP4vD6zfz17O+AECC372NqzfDnBWfAODJ4He389g4zDnpR7wWAIBX8Ou3HEI9AACvYEobACRe+8vrWX3SAF9bdh6fAAASr+1pAyDBq37E3Y+cSP/XD+G5nwSA/3UGAP7Aa6/bDLPOZvUj97D69h/xWgCgFryCX99+D6sfuYdJL5wFAJP45MNspJ4lx70CAPgEK2fBxuvexq8BgNf2tAGzeOEj97D6kXuY9MJZQFsPrwUA/hX4A6898rvcySF86JF7WP3IPax+5HVw3T2MAwDwB3YOAMAXLr6HD7Vfz6Ij38avAQAYYOfv4Ne7BgDg8xew+oNtXL3sRF77OwBI9O36AwD/qwxAgk+ex6Jlh7Do6/cwXn8IH3rkHlY/cgFfAADgFfz69ndzeP1m/rrsEBYtO4TEXzcDwCT4An+9e5z6RUfyWoDPL2cOm3nwkwAwCTbz12WHsGjZIdRadOTb+DUA8GTAH3jtkYewaNkhJBYtO5HX0kY9A+z8HQBs7B+HWWdzav93WXTWFwBIvLanDYAE6wcYZxYvPGmAry07j08AALyqhw4A4H+ZAajF797GocsOYdHX72GcWaz8PADATNrrYfzui/kEAPB4fn3TGsbrF3Lsq+ALK2YxfvfFfAIASPx61wDQxpRXAcCzCV7Br0+axfjdF/MJAODXuwaAcR676Q8AJOAVHLuoHjY/zCcAfreLPmB89e38GgBIvPa4hdSzmQc/CQD/qwzAvjCvjXrG6V8PALCF/nGob58JQOILF9/DC2cBQC1+dzuPjdez5LgfsXLWOI/d9AcAJvHJi7lzvJ7DP3gBXwAAng3wCS595N0czj38+PV/ACDBJy/mzvF6Dn/Lj3gtAPDaX76Ow+vHufOiLwAAX+Cvd49Tf+jr+PWrAIBX/Yi3HlrP+N0X8wkA4H+VAYBPcOkj97D6kXuYtPqcNu78+om89ncAAH/gtT+5h/FZZ7P6kXtIvJB/8rW7xwGoBX/gtddtpv7QQ5iz+Xpe+zsAmAR/4LVHfpc7x2fxwkfuYfUj9zDp0s8DwJP12l9ez+pH7iGx+pGz4R+HsOjIt/FrACABf+C1R36XOzmEDz1yD6sfuYcPHTrAX5edyGt/BwCJX7/+RL52Nxz+wXtY/cg9rP7gIfT94xAOff0fAHiy4BNc+sg9rH7kHlafMwuAOefcw+pH7mH17T/itQDAf5IBgC/w3GWHsGjZIUxatOxEXvs7AJjE797GocsOYdGyQ0gsOusL/Pr1J7LoyLfxawBgEp88j0XLDmHRWV8AYG/wB1575CEsWnYItZ77SQB4sn79+hNZtOwQJj33kwCwN/gDrz3yEBYtO4TEomXn8QkAoNavX38ii5YdwqTnfhIAngr4As9ddgiLlh3C3hYd+TZ+DQD8JxkAl7nCALjMFQbAZa4wAC5zhQFwmSsMgMtcYQBc5goD4DJXGACXucIAuMwVBsBlrjAALnOFAXCZKwyAy1xhAFzmCgPgMlcYgP9lfP4CVj9yD7Uu/TwA7O0LF9/D6kfuIbH6kev59asAoBafv4DVj9zDpLt/+QoAng54Bb++/R5WP3IPl34eAPbG5y9g9SP3MOnuX74CgGebAfhfxifPY9GyQ5i06B+bmXPOPVz6eQCY9IWL7+GFbffwtWWHsGjZIXztbjj8g9fz61cBQILPX8Dqc9q48+uHsGjZISz6+j1w6Lu5+5evAOCpeO0vr2f1I6+D1ZsB2Bc+fwGrz2njzq8fwqJlh7Do6/fAoe/m7l++AoBnkwH4/4RPXsyd4zBnxScASPD5C3jhrHHu/Mnb+DUA8OvX/4o7x+s5/EWfAAA+waXnzGL87l/x2t8BAL97Gz++e5z6Q8/iCwDAk8HnL+BDi9bwtWUn8tpdALA3+ASXnjOL8bt/xWt/BwD87m38+O5x6g89iy8AAM8WA5CAV/Dr2+9h9SP3MGn17T/itQDApNf+8npWP3IPk1bf/iNeCwDwqh9x9yP3cOnnAWASfIJLH7mH1Rd/AoBJX7j4HlY/cg+TLv08ADwbxvu3AJB4bU8bjK/h5t8BQIJXHcmSemDWcr4A8KoeOhjnsZv+AEACXsGxi+qBWaz8PAA8GXzyPBYd+TZ+DQDsC6/qoYNxHrvpDwAk4BUcu6gemMXKzwPAs8UAJL5w8bs5nHv42rJDWLTsEBKLjnwbvwYAEnz+At7Kr1i07BASi5b9k431h/Chiz8BAL+7ncfGYc5JP+K1AECCzy9nDuPcedEXAIBX8Ovb7+GF/JNFyw4hsejr99Bxzj1c+nkAeLpe+8vXcXj9Zq5+/R8ASMxpr4eBXfwaAODzF7D6g21c/Y/NQBtTXgXMa6OeAXb+DgDgE1z6yLtpv+6fbAQ6el4BwLOFeW3UM8DO3wEAfIJLH3k37df9k41AR88rAHi2GAB4BVPagIFd/BoA2Bc+eR6Hvv4PACTgCzy4GWjr4bUA/IHXXrcZ6hdy7KsAIPGFFbNgfA03/w4A+PxZHF6/mb+e9QUAEvzubVy9Geas+AQATwWfv4DVj9xD4kOH1rPxH+fxCQAAXsGUNgBIvPaX17P6pAG+tuw8PgEAJF7b0wZAglf9iLsfOZH+rx/Ccz8JAM+21/a0AZDgVT/i7kdOpP/rh/DcTwLAs80AwB947XWbYdbZrH7kHlbf/iNeCwDUglfw69vvYfUj9zDphbMAYBKffJiN1LPkuFcAAJ9g5SzYeN3b+DUA8NqeNmAWL3zkHlY/cg+TXjgLaOvhtQDAk8Unz2PRskNILFr2TzjnHlZf/AkA4A/sHACAL1x8Dx9qv55FR76NXwMAMMDO38Gvdw0AwOcvYPUH27h62Ym89ncAkOjb9QcAni2/3jUAAJ+/gNUfbOPqZSfy2t8BQKJv1x8AeLYYgASfPI9Fyw5h0dfvYbz+ED70yD2sfuQCvgAAwCv49e3v5vD6zfx12SEsWnYIib9uBoBJ8AX+evc49YuO5LUAn1/OHDbz4CcBYBJs5q/LDmHRskOotejIt/FrAODpgC/w3H9shlkn8utXAcDG/nGYdTan9n+XRWd9AYDEa3vaAEiwfoBxZvHCkwb42rLz+AQAwKt66AAAnk2sH2CcWbzwpAG+tuw8PgEA8KoeOgCAZ5MBqMXv3sahyw5h0dfvYZxZrPw8AMBM2uth/O6L+QQA8Hh+fdMaxusXcuyr4AsrZjF+98V8AgBI/HrXANDGlFcBwL8DDLDzdwDw610DwDiP3fQHABLwCo5dVA+bH+YTAL/bRR8wvvp2fg0AJF573ELq2cyDnwSAZwu/20UfML76dn4NACRee9xC6tnMg58EgGeLAdgX5rVRzzj96wEAttA/DvXtMwFIfOHie3jhLACoxe9u57HxepYc9yNWzhrnsZv+AMAkPnkxd47Xc/gHL+ALAMCzhVf9iLvPmcX43RfzCQCAT17MneP1HP6WH/FaAOC1v3wdh9ePc+dFXwAAvsBf7x6n/tDX8etXAQCv+hFvPbSe8bsv5hMAwLMFvsBf7x6n/tDX8etXAQCv+hFvPbSe8bsv5hMAwLPFAMAnuPSRe1j9yD1MWn1OG3d+/URe+zsAgD/w2p/cw/iss1n9yD0kXsg/+drd4wDUgj/w2us2U3/oIczZfD2v/R0ATII/8Nojv8ud47N44SP3sPqRe5h06ecB4Mn6wsX3sPqRe5i0+oMLeezrh3Do6/8AQAL+wGuP/C53cggfeuQeVj9yDx86dIC/LjuR1/4OABK/fv2JfO1uOPyD97D6kXtY/cFD6PvHIRz6+j8A8GTBJ7j0kXtY/cg9rD5nFgBzzrmH1Y/cw+rbf8RrAYBfv/5EvnY3HP7Be1j9yD2s/uAh9P3jEA59/R8AeDYZAPgCz112CIuWHcKkRctO5LW/A4BJ/O5tHLrsEBYtO4TEorO+wK9ffyKLjnwbvwYAJvHJ81i07BAWnfUFAPYGf+C1Rx7ComWHUOu5nwSAJ+sTZx3ComWHMGnRshN57e8AoBb8gdceeQiLlh1CYtGy8/gEAFDr168/kUXLDmHScz8JAE8FfIHnLjuERcsOYW+LjnwbvwYAEr9+/YksWnYIk577SQB4thkAl7nCALjMFQbAZa4wAC5zhQFwmSsMgMtcYQBc5goD4DJXGACXucIAuMwVBsBlrjAALnOFAXCZKwyAy1xhAFzmCgPgMlcYgP8PeNWPuPuRe1j9yD0kVl/8CQBqfeHie1j9yD0kVj9yPb9+FQA8HfAJLn3kHlY/cj2/fhUA7O0LF9/D6kfuIbH6kev59asAoBafv4DVj9zDpLt/+QoAasEr+PXt97D6kXtIrH7kAr4AANT6wsX3sPqRe0isfuR6fv0qAEgYgP91r/3l9az+4EIe+/ohLFp2CIlFZ30BgElfuPgeXth2D19bdgiLlh3C1+6Gwz94Pb9+FQA8FV+4+B5WP7Kc/rvHAdiXL1x8Dy9su4evLTuERcsO4Wt3w+EfvJ5fvwoAEnz+Alaf08adXz+ERcsOYdHX74FD383dv3wFAAl4Bb++/d0cPvBPFi07hMRfN8/ihY9cwBcAgMQXLr6HF7bdw9eWHcKiZYfwtbvh8A9ez69fBQAG4H8Zn7+ADx0Kd379RF77OwDYG5+/gBfOGufOn7yNXwMAv379r7hzvJ7DX/QJAJ6s1/7yel7IP1m07DxuBgD2xucv4IWzxrnzJ2/j1wDAr1//K+4cr+fwF30CAPgEl54zi/G7f8VrfwcA/O5t/PjuceoPPYsvAACv/eXrOLx+M3896wsAJD5x1j/ZyCxO/eUrAODzF/DCWePc+ZO38WsA4Nev/xV3jtdz+Is+AYABSMAr+PXt97D6kXuYtPr2H/FaAGDSa395PasfuYdJq2//Ea8FAHjVj7j7kXu49PMAMAk+waWP3MPqiz8BwKQvXHwPqx+5h0mXfh4AnoovrJgFm6/ntb8DgH15bU8bjK/h5t8BQIJXHcmSemDWcr4AADwZv379iSw66wsAPJ7X9rTB+Bpu/h0AJHjVkSypB2Yt5wsAr+qhg3Eeu+kPACTgFRy7qB6YxcrPA8Cc9nrY/DCfAAASfH45c4D6RUfyWuC1PW0wvoabfwcACV51JEvqgVnL+QJgABJfuPjdHM49fG3ZISxadgiJRUe+jV8DAAk+fwFv5VcsWnYIiUXL/snG+kP40MWfAIDf3c5j4zDnpB/xWgAgweeXM4dx7rzoCwDAK/j17ffwQv7JomWHkFj09XvoOOceLv08ADwZ8AqmtMF4P/z69ntY/cg9JFY/cgFfAAASc9rrYWAXvwYA+PwFrP5gG1f/YzPQxpRXAcCzZU57PQzs4tcAAJ+/gNUfbOPqf2wG2pjyKmBeG/UMsPN3AACf4NJH3k37df9kI9DR8wrgFUxpg/H+LQAkXvvL61l90gB/vXsc6tuYA8xpr4eBXfwaAODzF7D6g21c/Y/NQBtTXgUGAF7BlDZgYBe/BgD2hU+ex6Gv/wMACfgCD24G2np4LQB/4LXXbYb6hRz7KgBIfGHFLBhfw82/AwA+fxaH12/mr2d9AYAEv3sbV2+GOSs+AcCTATNpr4f6Q0+EnxzComWHkPjr5lm88JEL+AIAr2BKGwAkXvvL61l90gBfW3YenwAAnk3wCqa0AUDitb+8ntUnDfC1ZefxCQAg8dqeNgASvOpH3P3IifR//RCe+0kASMBM2usBIPGFi+/hQ+3Xs+jIt7ERAIBXMKUNABKv/eX1rD5pgK8tO49PAAAJAwB/4LXXbYZZZ7P6kXtYffuPeC0AUAtewa9vv4fVj9zDpBfOAoBJfPJhNlLPkuNeAQB8gpWzYON1b+PXAMBre9qAWbzwkXtY/cg9THrhLKCth9cCAE/W+N2/4rW/A4DEJy66h3FmsfLzAH9g5wAAfOHie/hQ+/UsOvJt/BoAgAF2/g4Ang3wB3YOAMAXLr6HD7Vfz6Ij38avAQAYYOfv4Ne7BgDg8xew+oNtXL3sRF77OwBI9O36A7CF/nGAmfz69ns4tf+7LDrrCwAkGB9gI39g5wAAfOHie/hQ+/UsOvJt/BoAgAF2/g4MQIJPnseiZYew6Ov3MF5/CB965B5WP3IBXwAA4BX8+vZ3c3j9Zv667BAWLTuExF83A8Ak+AJ/vXuc+kVH8lqAzy9nDpt58JMAMAk289dlh7Bo2SHUWnTk2/g1APB08btd9AEdPa8AYGP/OMw6m1P7v8uis74AQOK1PW0APNs29o/DrLM5tf+7LDrrCwAkXtvTBkCC9QOMM4sXnjTA15adxycAAF7VQwcAAH9g5wDUH3o27dcdwqGv/wMAiTnt9QAkNvaPw6yzObX/uyw66wsAJF7b0wZAwgDU4ndv49Blh7Do6/cwzixWfh4AYCbt9TB+98V8AgB4PL++aQ3j9Qs59lXwhRWzGL/7Yj4BACR+vWsAaGPKqwDg6YIv8OBmqG+fCcAkXtVDB9C36w8A/HrXADDOYzf9AYAEvIJjF9XD5of5BADwbPn1rgFgnMdu+gMACXgFxy6qh80P8wmA3+2iDxhffTu/BgASrz1uIfVs5sFPAsDG/nFgMw9+EgAS8AlWzoLx1bfza+DXuwaAcR676Q8AJOAVHLuoHjY/zCcAA7AvzGujnnH61wMAbKF/HOrbZwKQ+MLF9/DCWQBQi9/dzmPj9Sw57kesnDXOYzf9AYBJfPJi7hyv5/APXsAXAICn6xMPbYZZZ3Pp5wEAXsGv33II9eP38NdPAgCfvJg7x+s5/C0/4rUAwGt/+ToOrx/nzou+AMCziU9ezJ3j9Rz+lh/xWgDgtb98HYfXj3PnRV8AAL7AX+8ep/7Q1/HrVwEAr/oRbz20nvG7L+YTAMCvX389G5nFCy/+BACJL1x8NnPYzNWv/wMAfPJi7hyv5/C3/IjXAgCv/eXrOLx+nDsv+gIABgA+waWP3MPqR+5h0upz2rjz6yfy2t8BAPyB1/7kHsZnnc3qR+4h8UL+ydfuHgegFvyB1163mfpDD2HO5ut57e8AYBL8gdce+V3uHJ/FCx+5h9WP3MOkSz8PAE8WnzyPRf/YzJxz7mH1I/ew+pF3c/jAP1l05Nv4NQAAf+C1R36XOzmEDz1yD6sfuYcPHTrAX5edyGt/BwBPFq/6EXc/cg+rH7mHDx1aD9Rz+AfvYfUj97D64k8AAH/gtUd+lzs5hA89cg+rH7mHDx06wF+XnchrfwcAiV+//kS+djcc/sF7WP3IPaz+4CH0/eMQDn39HwBIwBd47rJ/snHW2ax+5B4SL2y7h68tO49PAADwB1575He5k0P40CP3sPqRe/jQoQP8ddmJvPZ3AGAA4As8d9khLFp2CJMWLTuR1/4OACbxu7dx6LJDWLTsEBKLzvoCv379iSw68m38GgCYxCfPY9GyQ1h01hcA2Bv8gdceeQiLlh1Cred+EgCeCj55HouWHcKkRWd9AYBa8Adee+QhLFp2CIlFy87jEwDAU8Hv3sahyw5h0bJD2Nuis74AQAL+wGuPPIRFyw4hsWjZeXwCAKj169efyKJlhzDpuZ8EgFrwBZ677BAWLTuExKIj38avAYBJ8Adee+QhLFp2CIlFy87jEwBAwgC4zBUGwGWuMAAuc4UBcJkr/g9qB+5nad6gowAAAABJRU5ErkJggg==;" vertex="1" parent="1">
          <mxGeometry x="460" y="470" width="76.84" height="48.5" as="geometry" />
        </mxCell>
        <mxCell id="cWcfSYOSI2J4r_bsHk8Z-12" value="可以认为，执行快照是一个比较重的操作，如果频率太频繁，可能会对 Redis 性能产生影响。" style="text;whiteSpace=wrap;fontFamily=Helvetica;fontSize=18;fillColor=#fff2cc;strokeColor=#d6b656;" vertex="1" parent="1">
          <mxGeometry x="240" y="110" width="310" height="80" as="geometry" />
        </mxCell>
        <mxCell id="cWcfSYOSI2J4r_bsHk8Z-13" value="通常可能设置至少 5 分钟才保存一次快照" style="text;whiteSpace=wrap;fontFamily=Helvetica;fontSize=18;fillColor=#fff2cc;strokeColor=#d6b656;" vertex="1" parent="1">
          <mxGeometry x="215.02999999999997" y="240" width="334.97" height="30" as="geometry" />
        </mxCell>
        <mxCell id="cWcfSYOSI2J4r_bsHk8Z-14" value="执行 bgsave 过程中数据能被修改（主线程来修改）：可以" style="text;whiteSpace=wrap;fontFamily=Helvetica;fontSize=18;fillColor=#e1d5e7;strokeColor=#9673a6;" vertex="1" parent="1">
          <mxGeometry y="920" width="290" height="50" as="geometry" />
        </mxCell>
        <mxCell id="cWcfSYOSI2J4r_bsHk8Z-15" value="写时复制技术（Copy-On-Write, COW）" style="text;whiteSpace=wrap;fontFamily=Helvetica;fontSize=18;fontColor=default;" vertex="1" parent="1">
          <mxGeometry y="970" width="350" height="50" as="geometry" />
        </mxCell>
        <mxCell id="cWcfSYOSI2J4r_bsHk8Z-19" style="edgeStyle=orthogonalEdgeStyle;rounded=0;orthogonalLoop=1;jettySize=auto;html=1;fontFamily=Helvetica;fontSize=18;fontColor=default;" edge="1" parent="1" source="cWcfSYOSI2J4r_bsHk8Z-16" target="cWcfSYOSI2J4r_bsHk8Z-18">
          <mxGeometry relative="1" as="geometry" />
        </mxCell>
        <mxCell id="cWcfSYOSI2J4r_bsHk8Z-16" value="" style="shape=image;verticalLabelPosition=bottom;labelBackgroundColor=default;verticalAlign=top;aspect=fixed;imageAspect=0;image=https://cdn.xiaolincoding.com//mysql/other/c34a9d1f58d602ff1fe8601f7270baa7.png;" vertex="1" parent="1">
          <mxGeometry y="1000" width="383.17" height="350" as="geometry" />
        </mxCell>
        <mxCell id="cWcfSYOSI2J4r_bsHk8Z-17" value="执行 bgsave 命令" style="text;whiteSpace=wrap;fontFamily=Helvetica;fontSize=18;fillColor=#fff2cc;strokeColor=#d6b656;" vertex="1" parent="1">
          <mxGeometry x="100" y="1130" width="170" height="30" as="geometry" />
        </mxCell>
        <mxCell id="cWcfSYOSI2J4r_bsHk8Z-18" value="" style="shape=image;verticalLabelPosition=bottom;labelBackgroundColor=default;verticalAlign=top;aspect=fixed;imageAspect=0;image=https://cdn.xiaolincoding.com//mysql/other/ebd620db8a1af66fbeb8f4d4ef6adc68.png;" vertex="1" parent="1">
          <mxGeometry x="470" y="1005.35" width="465.03" height="339.3" as="geometry" />
        </mxCell>
        <mxCell id="cWcfSYOSI2J4r_bsHk8Z-20" value="执行 bgsave 过程中主线程还是可以继续工作的，此时主线程可以修改数据吗？" style="text;whiteSpace=wrap;fontFamily=Helvetica;fontSize=18;fontColor=default;" vertex="1" parent="1">
          <mxGeometry x="310" y="920" width="400" height="50" as="geometry" />
        </mxCell>
        <mxCell id="cWcfSYOSI2J4r_bsHk8Z-22" value="复制然后再写新的区域&lt;div&gt;下一次bgsave再写这个修改的&lt;/div&gt;" style="text;html=1;align=center;verticalAlign=middle;resizable=0;points=[];autosize=1;strokeColor=none;fillColor=none;fontFamily=Helvetica;fontSize=18;fontColor=default;" vertex="1" parent="1">
          <mxGeometry x="690" y="1050" width="260" height="60" as="geometry" />
        </mxCell>
      </root>
    </mxGraphModel>
  </diagram>
</mxfile>
